%TF.GenerationSoftware,KiCad,Pcbnew,9.0.4*%
%TF.CreationDate,2025-10-07T17:59:55+07:00*%
%TF.ProjectId,duodrive,64756f64-7269-4766-952e-6b696361645f,rev?*%
%TF.SameCoordinates,Original*%
%TF.FileFunction,Legend,Bot*%
%TF.FilePolarity,Positive*%
%FSLAX46Y46*%
G04 Gerber Fmt 4.6, Leading zero omitted, Abs format (unit mm)*
G04 Created by KiCad (PCBNEW 9.0.4) date 2025-10-07 17:59:55*
%MOMM*%
%LPD*%
G01*
G04 APERTURE LIST*
%ADD10C,0.100000*%
%ADD11C,0.400000*%
%ADD12C,0.200000*%
%ADD13C,0.300000*%
%ADD14C,0.000000*%
G04 APERTURE END LIST*
D10*
G36*
X138352222Y-110854497D02*
G01*
X135695914Y-110854497D01*
X135695914Y-110632275D01*
X135918136Y-110632275D01*
X138130000Y-110632275D01*
X138130000Y-110057083D01*
X135918136Y-110057083D01*
X135918136Y-110632275D01*
X135695914Y-110632275D01*
X135695914Y-109926047D01*
X135918136Y-109926047D01*
X136363635Y-109926047D01*
X136363635Y-109584473D01*
X138130000Y-109584473D01*
X138130000Y-109009281D01*
X136363635Y-109009281D01*
X136363635Y-108669051D01*
X135918136Y-108669051D01*
X135918136Y-109926047D01*
X135695914Y-109926047D01*
X135695914Y-108446829D01*
X138352222Y-108446829D01*
X138352222Y-110854497D01*
G37*
D11*
G36*
X135910321Y-112848850D02*
G01*
X138130000Y-112848850D01*
X138130000Y-112338260D01*
X136632791Y-112342168D01*
X138130000Y-112144820D01*
X138130000Y-111781387D01*
X136664054Y-111573047D01*
X138130000Y-111576955D01*
X138130000Y-111066366D01*
X135910321Y-111066366D01*
X135910321Y-111818145D01*
X136383907Y-111888487D01*
X136947009Y-111963714D01*
X135910321Y-112091453D01*
X135910321Y-112848850D01*
G37*
G36*
X138130000Y-113545064D02*
G01*
X137731395Y-113579136D01*
X137731395Y-113778316D01*
X138130000Y-113806893D01*
X138130000Y-114403944D01*
X135910321Y-114073606D01*
X135910321Y-113678054D01*
X136401004Y-113678054D01*
X136936784Y-113720771D01*
X137332791Y-113761097D01*
X137332791Y-113572908D01*
X136999653Y-113605037D01*
X136401004Y-113678054D01*
X135910321Y-113678054D01*
X135910321Y-113234754D01*
X138130000Y-112941296D01*
X138130000Y-113545064D01*
G37*
G36*
X135910321Y-115785626D02*
G01*
X138130000Y-115785626D01*
X138130000Y-115274670D01*
X137120544Y-114978403D01*
X138130000Y-114982311D01*
X138130000Y-114493581D01*
X135910321Y-114493581D01*
X135910321Y-114981212D01*
X136910129Y-115300804D01*
X135910321Y-115296896D01*
X135910321Y-115785626D01*
G37*
G36*
X135910321Y-117340110D02*
G01*
X138130000Y-117340110D01*
X138130000Y-116757102D01*
X137199923Y-116757102D01*
X137199923Y-116592849D01*
X138130000Y-116592849D01*
X138130000Y-116009841D01*
X135910321Y-116009841D01*
X135910321Y-116592849D01*
X136699713Y-116592849D01*
X136699713Y-116757102D01*
X135910321Y-116757102D01*
X135910321Y-117340110D01*
G37*
D12*
X108800001Y-90200000D02*
X108500001Y-91100000D01*
X108800001Y-90200000D02*
X107900000Y-89700000D01*
X108800001Y-90200000D02*
X108787380Y-90206839D01*
X108774644Y-90213649D01*
X108761794Y-90220428D01*
X108748831Y-90227177D01*
X108735757Y-90233894D01*
X108722570Y-90240579D01*
X108709274Y-90247229D01*
X108695867Y-90253845D01*
X108682352Y-90260426D01*
X108668729Y-90266969D01*
X108654999Y-90273476D01*
X108641163Y-90279943D01*
X108627222Y-90286372D01*
X108613178Y-90292760D01*
X108599031Y-90299107D01*
X108584782Y-90305411D01*
X108570433Y-90311673D01*
X108555985Y-90317890D01*
X108541438Y-90324063D01*
X108526795Y-90330190D01*
X108512056Y-90336269D01*
X108497223Y-90342301D01*
X108482297Y-90348285D01*
X108467279Y-90354219D01*
X108452171Y-90360102D01*
X108436974Y-90365934D01*
X108421690Y-90371714D01*
X108406319Y-90377441D01*
X108390864Y-90383114D01*
X108375326Y-90388733D01*
X108359706Y-90394295D01*
X108344005Y-90399801D01*
X108328226Y-90405250D01*
X108312370Y-90410641D01*
X108296438Y-90415973D01*
X108280432Y-90421246D01*
X108264354Y-90426458D01*
X108248205Y-90431608D01*
X108231986Y-90436697D01*
X108223851Y-90439218D01*
X108215700Y-90441723D01*
X108207532Y-90444212D01*
X108199348Y-90446686D01*
X108191147Y-90449143D01*
X108182932Y-90451584D01*
X108174700Y-90454009D01*
X108166453Y-90456418D01*
X108158190Y-90458810D01*
X108149912Y-90461186D01*
X108141620Y-90463545D01*
X108133313Y-90465887D01*
X108124991Y-90468213D01*
X108116656Y-90470522D01*
X108108306Y-90472814D01*
X108099942Y-90475090D01*
X108091565Y-90477348D01*
X108083175Y-90479589D01*
X108074771Y-90481813D01*
X108066355Y-90484019D01*
X108057926Y-90486208D01*
X108049483Y-90488380D01*
X108041030Y-90490534D01*
X108032563Y-90492671D01*
X108024086Y-90494790D01*
X108015595Y-90496891D01*
X108007095Y-90498975D01*
X107998582Y-90501041D01*
X107990059Y-90503088D01*
X107981524Y-90505118D01*
X107972980Y-90507130D01*
X107964424Y-90509124D01*
X107955859Y-90511099D01*
X107947283Y-90513056D01*
X107938699Y-90514995D01*
X107930103Y-90516916D01*
X107921500Y-90518818D01*
X107912886Y-90520701D01*
X107904265Y-90522566D01*
X107895633Y-90524413D01*
X107886995Y-90526241D01*
X107878346Y-90528050D01*
X107869692Y-90529840D01*
X107861027Y-90531612D01*
X107852358Y-90533364D01*
X107843678Y-90535098D01*
X107834994Y-90536813D01*
X107826300Y-90538509D01*
X107817602Y-90540185D01*
X107808894Y-90541843D01*
X107800184Y-90543481D01*
X107791463Y-90545100D01*
X107782741Y-90546700D01*
X107774009Y-90548281D01*
X107765275Y-90549842D01*
X107756532Y-90551384D01*
X107747787Y-90552906D01*
X107739034Y-90554410D01*
X107730280Y-90555893D01*
X107721517Y-90557357D01*
X107712755Y-90558801D01*
X107703983Y-90560226D01*
X107695213Y-90561631D01*
X107686434Y-90563017D01*
X107677656Y-90564382D01*
X107668870Y-90565729D01*
X107660086Y-90567055D01*
X107651293Y-90568361D01*
X107642504Y-90569648D01*
X107633706Y-90570915D01*
X107624911Y-90572161D01*
X107616109Y-90573388D01*
X107607310Y-90574595D01*
X107598504Y-90575782D01*
X107589702Y-90576949D01*
X107580893Y-90578096D01*
X107572088Y-90579223D01*
X107563277Y-90580330D01*
X107554471Y-90581417D01*
X107545658Y-90582484D01*
X107536850Y-90583530D01*
X107528036Y-90584557D01*
X107519228Y-90585563D01*
X107510415Y-90586550D01*
X107501607Y-90587515D01*
X107492794Y-90588462D01*
X107483988Y-90589387D01*
X107475176Y-90590293D01*
X107466371Y-90591177D01*
X107457561Y-90592043D01*
X107448759Y-90592887D01*
X107439952Y-90593712D01*
X107431153Y-90594516D01*
X107422350Y-90595300D01*
X107413555Y-90596063D01*
X107404755Y-90596807D01*
X107395965Y-90597529D01*
X107387170Y-90598232D01*
X107378385Y-90598914D01*
X107369596Y-90599577D01*
X107360817Y-90600218D01*
X107352033Y-90600840D01*
X107343261Y-90601441D01*
X107334484Y-90602022D01*
X107325719Y-90602582D01*
X107316950Y-90603123D01*
X107308193Y-90603642D01*
X107299431Y-90604142D01*
X107290682Y-90604621D01*
X107281930Y-90605080D01*
X107273190Y-90605519D01*
X107264447Y-90605937D01*
X107255716Y-90606335D01*
X107246983Y-90606713D01*
X107238263Y-90607070D01*
X107229540Y-90607408D01*
X107220831Y-90607725D01*
X107212119Y-90608022D01*
X107203421Y-90608298D01*
X107194721Y-90608554D01*
X107186035Y-90608790D01*
X107177347Y-90609006D01*
X107168673Y-90609202D01*
X107159998Y-90609378D01*
X107151338Y-90609533D01*
X107142676Y-90609668D01*
X107134029Y-90609783D01*
X107125380Y-90609878D01*
X107116748Y-90609953D01*
X107108114Y-90610008D01*
X107099496Y-90610042D01*
X107090877Y-90610057D01*
X107082274Y-90610051D01*
X107073670Y-90610026D01*
X107065083Y-90609980D01*
X107056495Y-90609915D01*
X107047923Y-90609829D01*
X107039352Y-90609724D01*
X107030797Y-90609599D01*
X107022242Y-90609453D01*
X107013705Y-90609288D01*
X107005167Y-90609103D01*
X106996647Y-90608898D01*
X106988127Y-90608674D01*
X106979625Y-90608429D01*
X106971123Y-90608165D01*
X106962640Y-90607881D01*
X106954157Y-90607577D01*
X106945692Y-90607254D01*
X106937228Y-90606910D01*
X106928782Y-90606548D01*
X106920338Y-90606165D01*
X106911912Y-90605763D01*
X106903487Y-90605341D01*
X106895081Y-90604901D01*
X106886677Y-90604440D01*
X106878291Y-90603960D01*
X106869907Y-90603460D01*
X106861543Y-90602941D01*
X106853180Y-90602402D01*
X106844837Y-90601844D01*
X106836495Y-90601267D01*
X106828174Y-90600671D01*
X106819854Y-90600054D01*
X106811555Y-90599419D01*
X106803257Y-90598765D01*
X106794980Y-90598091D01*
X106786705Y-90597398D01*
X106778450Y-90596687D01*
X106770198Y-90595955D01*
X106761966Y-90595205D01*
X106753737Y-90594436D01*
X106745529Y-90593648D01*
X106737323Y-90592840D01*
X106729138Y-90592014D01*
X106720956Y-90591169D01*
X106712795Y-90590305D01*
X106704637Y-90589422D01*
X106696501Y-90588521D01*
X106688367Y-90587599D01*
X106680256Y-90586661D01*
X106672147Y-90585702D01*
X106664060Y-90584726D01*
X106655976Y-90583730D01*
X106647914Y-90582716D01*
X106639855Y-90581683D01*
X106631818Y-90580632D01*
X106623785Y-90579562D01*
X106615774Y-90578474D01*
X106607767Y-90577367D01*
X106599782Y-90576242D01*
X106591800Y-90575098D01*
X106583841Y-90573937D01*
X106575886Y-90572756D01*
X106567953Y-90571558D01*
X106560024Y-90570340D01*
X106552118Y-90569106D01*
X106544216Y-90567852D01*
X106536337Y-90566582D01*
X106528462Y-90565291D01*
X106520610Y-90563985D01*
X106512762Y-90562658D01*
X106504937Y-90561315D01*
X106497116Y-90559953D01*
X106489319Y-90558574D01*
X106481526Y-90557176D01*
X106473756Y-90555761D01*
X106465991Y-90554327D01*
X106458249Y-90552877D01*
X106450512Y-90551408D01*
X106442798Y-90549922D01*
X106435088Y-90548417D01*
X106427403Y-90546896D01*
X106419722Y-90545356D01*
X106412064Y-90543800D01*
X106404412Y-90542224D01*
X106396783Y-90540633D01*
X106389159Y-90539023D01*
X106381559Y-90537397D01*
X106373964Y-90535751D01*
X106366393Y-90534090D01*
X106358827Y-90532410D01*
X106351284Y-90530715D01*
X106343747Y-90529000D01*
X106336234Y-90527270D01*
X106328726Y-90525521D01*
X106321242Y-90523757D01*
X106313764Y-90521974D01*
X106306310Y-90520175D01*
X106298861Y-90518358D01*
X106291436Y-90516525D01*
X106284016Y-90514674D01*
X106276621Y-90512807D01*
X106269232Y-90510922D01*
X106261866Y-90509022D01*
X106254506Y-90507103D01*
X106247170Y-90505169D01*
X106239841Y-90503216D01*
X106232535Y-90501249D01*
X106225235Y-90499263D01*
X106217960Y-90497262D01*
X106210690Y-90495243D01*
X106203445Y-90493209D01*
X106196205Y-90491156D01*
X106188990Y-90489089D01*
X106181781Y-90487004D01*
X106174596Y-90484904D01*
X106167418Y-90482785D01*
X106160263Y-90480653D01*
X106153115Y-90478501D01*
X106145991Y-90476336D01*
X106138874Y-90474152D01*
X106131780Y-90471954D01*
X106124694Y-90469738D01*
X106117631Y-90467507D01*
X106110575Y-90465258D01*
X106103542Y-90462996D01*
X106096517Y-90460715D01*
X106089516Y-90458420D01*
X106082521Y-90456107D01*
X106075551Y-90453780D01*
X106068587Y-90451435D01*
X106061647Y-90449076D01*
X106054715Y-90446699D01*
X106047806Y-90444309D01*
X106040905Y-90441900D01*
X106034027Y-90439478D01*
X106027156Y-90437038D01*
X106020309Y-90434584D01*
X106013470Y-90432112D01*
X106006654Y-90429628D01*
X105999845Y-90427124D01*
X105993061Y-90424608D01*
X105986283Y-90422074D01*
X105979530Y-90419526D01*
X105972784Y-90416961D01*
X105966061Y-90414383D01*
X105959346Y-90411786D01*
X105952655Y-90409177D01*
X105945971Y-90406549D01*
X105939311Y-90403909D01*
X105932658Y-90401251D01*
X105926029Y-90398580D01*
X105919408Y-90395891D01*
X105912810Y-90393190D01*
X105906220Y-90390470D01*
X105899654Y-90387739D01*
X105893095Y-90384989D01*
X105886559Y-90382227D01*
X105880032Y-90379446D01*
X105873528Y-90376654D01*
X105867032Y-90373844D01*
X105860559Y-90371021D01*
X105854094Y-90368181D01*
X105847652Y-90365328D01*
X105841219Y-90362457D01*
X105834808Y-90359575D01*
X105828406Y-90356674D01*
X105822027Y-90353762D01*
X105815656Y-90350832D01*
X105809308Y-90347890D01*
X105802969Y-90344930D01*
X105796652Y-90341958D01*
X105790343Y-90338968D01*
X105784058Y-90335967D01*
X105777781Y-90332948D01*
X105771526Y-90329918D01*
X105765281Y-90326869D01*
X105759057Y-90323809D01*
X105752843Y-90320731D01*
X105746651Y-90317642D01*
X105740467Y-90314535D01*
X105734306Y-90311416D01*
X105728154Y-90308280D01*
X105722025Y-90305132D01*
X105715904Y-90301967D01*
X105709805Y-90298790D01*
X105703715Y-90295596D01*
X105697648Y-90292390D01*
X105691589Y-90289167D01*
X105685553Y-90285933D01*
X105679525Y-90282681D01*
X105673520Y-90279418D01*
X105667524Y-90276137D01*
X105661549Y-90272845D01*
X105655584Y-90269535D01*
X105649640Y-90266215D01*
X105643706Y-90262877D01*
X105637794Y-90259528D01*
X105631890Y-90256161D01*
X105626009Y-90252784D01*
X105620137Y-90249389D01*
X105614286Y-90245983D01*
X105608445Y-90242559D01*
X105602625Y-90239125D01*
X105596815Y-90235673D01*
X105591025Y-90232211D01*
X105585246Y-90228731D01*
X105579488Y-90225240D01*
X105573739Y-90221732D01*
X105568012Y-90218213D01*
X105562294Y-90214677D01*
X105556597Y-90211130D01*
X105550910Y-90207565D01*
X105545244Y-90203990D01*
X105539588Y-90200398D01*
X105533953Y-90196795D01*
X105528327Y-90193175D01*
X105522722Y-90189544D01*
X105517128Y-90185895D01*
X105511553Y-90182237D01*
X105505989Y-90178560D01*
X105500445Y-90174874D01*
X105494912Y-90171170D01*
X105489398Y-90167455D01*
X105483895Y-90163724D01*
X105478413Y-90159981D01*
X105472940Y-90156222D01*
X105467488Y-90152452D01*
X105462046Y-90148665D01*
X105456624Y-90144867D01*
X105451212Y-90141053D01*
X105445820Y-90137228D01*
X105440439Y-90133385D01*
X105435077Y-90129532D01*
X105429726Y-90125662D01*
X105424395Y-90121782D01*
X105419075Y-90117885D01*
X105413774Y-90113977D01*
X105408483Y-90110052D01*
X105403212Y-90106116D01*
X105397952Y-90102164D01*
X105392712Y-90098201D01*
X105387482Y-90094221D01*
X105382271Y-90090231D01*
X105377071Y-90086224D01*
X105371890Y-90082206D01*
X105366721Y-90078171D01*
X105361570Y-90074126D01*
X105356430Y-90070064D01*
X105351309Y-90065992D01*
X105346200Y-90061902D01*
X105341109Y-90057802D01*
X105336029Y-90053685D01*
X105330968Y-90049558D01*
X105325918Y-90045414D01*
X105320887Y-90041260D01*
X105315867Y-90037088D01*
X105310866Y-90032906D01*
X105305875Y-90028708D01*
X105300904Y-90024498D01*
X105295943Y-90020272D01*
X105291002Y-90016036D01*
X105286071Y-90011783D01*
X105281159Y-90007519D01*
X105276258Y-90003238D01*
X105271375Y-89998947D01*
X105266504Y-89994639D01*
X105261651Y-89990321D01*
X105256809Y-89985985D01*
X105251985Y-89981640D01*
X105247173Y-89977277D01*
X105242379Y-89972904D01*
X105237596Y-89968514D01*
X105232832Y-89964114D01*
X105228079Y-89959697D01*
X105223344Y-89955269D01*
X105218620Y-89950825D01*
X105213914Y-89946370D01*
X105209220Y-89941898D01*
X105204544Y-89937416D01*
X105199879Y-89932917D01*
X105195232Y-89928407D01*
X105190596Y-89923881D01*
X105185979Y-89919344D01*
X105181372Y-89914790D01*
X105176784Y-89910226D01*
X105172207Y-89905644D01*
X105167648Y-89901053D01*
X105163100Y-89896444D01*
X105158570Y-89891825D01*
X105154051Y-89887189D01*
X105149551Y-89882542D01*
X105145061Y-89877879D01*
X105140589Y-89873204D01*
X105136129Y-89868513D01*
X105131687Y-89863812D01*
X105127256Y-89859093D01*
X105122842Y-89854364D01*
X105118440Y-89849618D01*
X105114056Y-89844861D01*
X105109683Y-89840088D01*
X105105327Y-89835303D01*
X105100983Y-89830502D01*
X105096657Y-89825690D01*
X105092342Y-89820861D01*
X105088044Y-89816022D01*
X105083759Y-89811165D01*
X105079490Y-89806298D01*
X105075233Y-89801414D01*
X105070993Y-89796518D01*
X105066766Y-89791606D01*
X105062555Y-89786683D01*
X105058356Y-89781744D01*
X105054174Y-89776793D01*
X105050004Y-89771825D01*
X105045851Y-89766847D01*
X105041710Y-89761851D01*
X105037585Y-89756844D01*
X105033473Y-89751821D01*
X105029378Y-89746786D01*
X105025294Y-89741735D01*
X105021227Y-89736672D01*
X105017173Y-89731593D01*
X105013135Y-89726502D01*
X105009109Y-89721394D01*
X105005100Y-89716275D01*
X105001103Y-89711140D01*
X104997123Y-89705993D01*
X104993155Y-89700829D01*
X104989203Y-89695653D01*
X104985264Y-89690461D01*
X104981341Y-89685257D01*
X104977431Y-89680037D01*
X104973537Y-89674805D01*
X104969655Y-89669556D01*
X104965790Y-89664295D01*
X104961937Y-89659018D01*
X104958100Y-89653728D01*
X104954276Y-89648423D01*
X104950468Y-89643105D01*
X104946673Y-89637770D01*
X104942894Y-89632424D01*
X104939127Y-89627061D01*
X104935377Y-89621686D01*
X104931639Y-89616294D01*
X104927917Y-89610890D01*
X104924208Y-89605469D01*
X104920515Y-89600036D01*
X104916835Y-89594586D01*
X104913171Y-89589125D01*
X104909520Y-89583646D01*
X104905884Y-89578155D01*
X104902261Y-89572648D01*
X104898655Y-89567128D01*
X104895061Y-89561591D01*
X104891483Y-89556042D01*
X104887918Y-89550476D01*
X104884369Y-89544897D01*
X104880832Y-89539302D01*
X104877312Y-89533694D01*
X104873805Y-89528070D01*
X104870313Y-89522432D01*
X104866834Y-89516778D01*
X104863372Y-89511112D01*
X104859922Y-89505428D01*
X104856488Y-89499732D01*
X104853067Y-89494018D01*
X104849662Y-89488292D01*
X104846270Y-89482549D01*
X104842894Y-89476793D01*
X104839531Y-89471021D01*
X104836184Y-89465235D01*
X104832850Y-89459432D01*
X104829531Y-89453616D01*
X104826226Y-89447783D01*
X104822937Y-89441937D01*
X104819661Y-89436075D01*
X104816400Y-89430199D01*
X104813153Y-89424306D01*
X104809922Y-89418399D01*
X104806704Y-89412476D01*
X104803501Y-89406539D01*
X104800312Y-89400585D01*
X104800000Y-89400000D01*
D10*
X90300000Y-109400000D02*
X109200000Y-109400000D01*
X109200000Y-124700000D01*
X90300000Y-124700000D01*
X90300000Y-109400000D01*
D13*
X104214285Y-121396685D02*
X104328571Y-121339542D01*
X104328571Y-121339542D02*
X104499999Y-121339542D01*
X104499999Y-121339542D02*
X104671428Y-121396685D01*
X104671428Y-121396685D02*
X104785713Y-121510971D01*
X104785713Y-121510971D02*
X104842856Y-121625257D01*
X104842856Y-121625257D02*
X104899999Y-121853828D01*
X104899999Y-121853828D02*
X104899999Y-122025257D01*
X104899999Y-122025257D02*
X104842856Y-122253828D01*
X104842856Y-122253828D02*
X104785713Y-122368114D01*
X104785713Y-122368114D02*
X104671428Y-122482400D01*
X104671428Y-122482400D02*
X104499999Y-122539542D01*
X104499999Y-122539542D02*
X104385713Y-122539542D01*
X104385713Y-122539542D02*
X104214285Y-122482400D01*
X104214285Y-122482400D02*
X104157142Y-122425257D01*
X104157142Y-122425257D02*
X104157142Y-122025257D01*
X104157142Y-122025257D02*
X104385713Y-122025257D01*
X103642856Y-122539542D02*
X103642856Y-121339542D01*
X103642856Y-121339542D02*
X102957142Y-122539542D01*
X102957142Y-122539542D02*
X102957142Y-121339542D01*
X102385713Y-122539542D02*
X102385713Y-121339542D01*
X102385713Y-121339542D02*
X102099999Y-121339542D01*
X102099999Y-121339542D02*
X101928570Y-121396685D01*
X101928570Y-121396685D02*
X101814285Y-121510971D01*
X101814285Y-121510971D02*
X101757142Y-121625257D01*
X101757142Y-121625257D02*
X101699999Y-121853828D01*
X101699999Y-121853828D02*
X101699999Y-122025257D01*
X101699999Y-122025257D02*
X101757142Y-122253828D01*
X101757142Y-122253828D02*
X101814285Y-122368114D01*
X101814285Y-122368114D02*
X101928570Y-122482400D01*
X101928570Y-122482400D02*
X102099999Y-122539542D01*
X102099999Y-122539542D02*
X102385713Y-122539542D01*
X104071428Y-114925257D02*
X104128571Y-114982400D01*
X104128571Y-114982400D02*
X104299999Y-115039542D01*
X104299999Y-115039542D02*
X104414285Y-115039542D01*
X104414285Y-115039542D02*
X104585714Y-114982400D01*
X104585714Y-114982400D02*
X104699999Y-114868114D01*
X104699999Y-114868114D02*
X104757142Y-114753828D01*
X104757142Y-114753828D02*
X104814285Y-114525257D01*
X104814285Y-114525257D02*
X104814285Y-114353828D01*
X104814285Y-114353828D02*
X104757142Y-114125257D01*
X104757142Y-114125257D02*
X104699999Y-114010971D01*
X104699999Y-114010971D02*
X104585714Y-113896685D01*
X104585714Y-113896685D02*
X104414285Y-113839542D01*
X104414285Y-113839542D02*
X104299999Y-113839542D01*
X104299999Y-113839542D02*
X104128571Y-113896685D01*
X104128571Y-113896685D02*
X104071428Y-113953828D01*
X103557142Y-115039542D02*
X103557142Y-113839542D01*
X103557142Y-114410971D02*
X102871428Y-114410971D01*
X102871428Y-115039542D02*
X102871428Y-113839542D01*
X102357142Y-114696685D02*
X101785714Y-114696685D01*
X102471428Y-115039542D02*
X102071428Y-113839542D01*
X102071428Y-113839542D02*
X101671428Y-115039542D01*
X104157142Y-117225257D02*
X104214285Y-117282400D01*
X104214285Y-117282400D02*
X104385713Y-117339542D01*
X104385713Y-117339542D02*
X104499999Y-117339542D01*
X104499999Y-117339542D02*
X104671428Y-117282400D01*
X104671428Y-117282400D02*
X104785713Y-117168114D01*
X104785713Y-117168114D02*
X104842856Y-117053828D01*
X104842856Y-117053828D02*
X104899999Y-116825257D01*
X104899999Y-116825257D02*
X104899999Y-116653828D01*
X104899999Y-116653828D02*
X104842856Y-116425257D01*
X104842856Y-116425257D02*
X104785713Y-116310971D01*
X104785713Y-116310971D02*
X104671428Y-116196685D01*
X104671428Y-116196685D02*
X104499999Y-116139542D01*
X104499999Y-116139542D02*
X104385713Y-116139542D01*
X104385713Y-116139542D02*
X104214285Y-116196685D01*
X104214285Y-116196685D02*
X104157142Y-116253828D01*
X103642856Y-117339542D02*
X103642856Y-116139542D01*
X103642856Y-116710971D02*
X102957142Y-116710971D01*
X102957142Y-117339542D02*
X102957142Y-116139542D01*
X101985713Y-116710971D02*
X101814285Y-116768114D01*
X101814285Y-116768114D02*
X101757142Y-116825257D01*
X101757142Y-116825257D02*
X101699999Y-116939542D01*
X101699999Y-116939542D02*
X101699999Y-117110971D01*
X101699999Y-117110971D02*
X101757142Y-117225257D01*
X101757142Y-117225257D02*
X101814285Y-117282400D01*
X101814285Y-117282400D02*
X101928570Y-117339542D01*
X101928570Y-117339542D02*
X102385713Y-117339542D01*
X102385713Y-117339542D02*
X102385713Y-116139542D01*
X102385713Y-116139542D02*
X101985713Y-116139542D01*
X101985713Y-116139542D02*
X101871428Y-116196685D01*
X101871428Y-116196685D02*
X101814285Y-116253828D01*
X101814285Y-116253828D02*
X101757142Y-116368114D01*
X101757142Y-116368114D02*
X101757142Y-116482400D01*
X101757142Y-116482400D02*
X101814285Y-116596685D01*
X101814285Y-116596685D02*
X101871428Y-116653828D01*
X101871428Y-116653828D02*
X101985713Y-116710971D01*
X101985713Y-116710971D02*
X102385713Y-116710971D01*
D10*
G36*
X106344960Y-87732276D02*
G01*
X106662801Y-88799225D01*
X107016684Y-88736826D01*
X107015001Y-88468407D01*
X107000863Y-88147428D01*
X107180847Y-88707879D01*
X107532686Y-88645841D01*
X107467103Y-87534412D01*
X107191934Y-87582932D01*
X107230011Y-87968013D01*
X107265645Y-88343108D01*
X107186153Y-88038331D01*
X107055372Y-87607012D01*
X106760720Y-87658967D01*
X106793126Y-88023843D01*
X106835813Y-88446676D01*
X106769628Y-88184703D01*
X106697698Y-87930475D01*
X106620129Y-87683757D01*
X106344960Y-87732276D01*
G37*
G36*
X106004546Y-87792300D02*
G01*
X106196589Y-88881431D01*
X106479816Y-88831490D01*
X106287773Y-87742360D01*
X106004546Y-87792300D01*
G37*
G36*
X105216623Y-87931233D02*
G01*
X105465454Y-88394415D01*
X105393212Y-89023088D01*
X105685819Y-88971493D01*
X105717870Y-88484453D01*
X105800192Y-88951326D01*
X106083419Y-88901386D01*
X105891376Y-87812255D01*
X105608149Y-87862196D01*
X105682763Y-88285352D01*
X105482351Y-87884378D01*
X105216623Y-87931233D01*
G37*
G36*
X104868272Y-87992656D02*
G01*
X105060315Y-89081786D01*
X105343542Y-89031846D01*
X105151499Y-87942716D01*
X104868272Y-87992656D01*
G37*
G36*
X104704688Y-89144493D02*
G01*
X104421461Y-89194433D01*
X104344101Y-88755703D01*
X104268093Y-88769105D01*
X104205784Y-88776739D01*
X104154822Y-88776574D01*
X104113254Y-88770056D01*
X104074205Y-88756000D01*
X104044068Y-88736214D01*
X104021254Y-88710697D01*
X104004671Y-88679702D01*
X103988305Y-88632084D01*
X103972922Y-88562476D01*
X103956201Y-88467647D01*
X103942657Y-88371516D01*
X103941737Y-88344800D01*
X104184305Y-88344800D01*
X104187809Y-88396426D01*
X104203756Y-88486867D01*
X104218313Y-88541547D01*
X104233129Y-88564833D01*
X104254968Y-88575305D01*
X104290662Y-88574653D01*
X104311412Y-88570312D01*
X104261991Y-88290032D01*
X104213281Y-88304032D01*
X104192351Y-88319858D01*
X104184305Y-88344800D01*
X103941737Y-88344800D01*
X103940701Y-88314691D01*
X103948999Y-88266288D01*
X103968452Y-88224172D01*
X104000313Y-88188501D01*
X104052702Y-88155188D01*
X104119334Y-88130132D01*
X104227434Y-88105653D01*
X104512645Y-88055363D01*
X104704688Y-89144493D01*
G37*
G36*
X104112137Y-89248976D02*
G01*
X103818808Y-89300698D01*
X103767422Y-89107382D01*
X103665797Y-89125301D01*
X103686335Y-89324056D01*
X103396373Y-89375184D01*
X103371955Y-88463112D01*
X103601800Y-88463112D01*
X103625780Y-88731031D01*
X103639985Y-88931443D01*
X103736860Y-88914362D01*
X103691269Y-88751370D01*
X103601800Y-88463112D01*
X103371955Y-88463112D01*
X103366449Y-88257468D01*
X103776135Y-88185229D01*
X104112137Y-89248976D01*
G37*
G36*
X102576759Y-88809402D02*
G01*
X102859986Y-88759461D01*
X102842618Y-88660963D01*
X102830417Y-88575768D01*
X102830166Y-88542874D01*
X102840180Y-88523328D01*
X102864336Y-88512668D01*
X102887749Y-88513992D01*
X102903617Y-88526574D01*
X102914735Y-88553355D01*
X102931246Y-88628409D01*
X103023376Y-89150905D01*
X103032173Y-89218471D01*
X103031003Y-89249013D01*
X103020214Y-89268656D01*
X102997392Y-89278872D01*
X102977933Y-89279118D01*
X102962862Y-89272919D01*
X102950736Y-89260066D01*
X102937401Y-89228898D01*
X102921565Y-89159681D01*
X102898769Y-89030395D01*
X102955955Y-89020311D01*
X102926775Y-88854825D01*
X102595081Y-88913312D01*
X102698228Y-89498286D01*
X102876523Y-89466848D01*
X102888978Y-89384172D01*
X102930203Y-89423111D01*
X102975350Y-89447128D01*
X103025608Y-89457574D01*
X103083724Y-89454122D01*
X103129693Y-89442028D01*
X103171978Y-89422721D01*
X103211172Y-89395936D01*
X103245827Y-89363272D01*
X103271972Y-89329204D01*
X103290571Y-89293458D01*
X103307644Y-89235962D01*
X103311993Y-89179006D01*
X103306524Y-89114706D01*
X103290320Y-89008972D01*
X103233244Y-88685275D01*
X103202561Y-88540727D01*
X103176482Y-88461472D01*
X103151804Y-88420865D01*
X103113099Y-88383450D01*
X103057070Y-88348974D01*
X103011722Y-88331306D01*
X102961232Y-88321264D01*
X102904553Y-88319316D01*
X102840482Y-88326401D01*
X102759975Y-88347002D01*
X102695025Y-88376417D01*
X102642998Y-88413925D01*
X102599295Y-88460865D01*
X102571609Y-88507266D01*
X102557408Y-88554077D01*
X102553146Y-88604034D01*
X102556001Y-88671962D01*
X102568468Y-88762378D01*
X102576759Y-88809402D01*
G37*
G36*
X102395961Y-88428591D02*
G01*
X101923736Y-88511857D01*
X101962416Y-88731223D01*
X102151415Y-88697897D01*
X102187380Y-88901869D01*
X102010469Y-88933063D01*
X102047113Y-89140883D01*
X102224025Y-89109689D01*
X102266098Y-89348297D01*
X102058218Y-89384951D01*
X102096898Y-89604317D01*
X102588004Y-89517721D01*
X102395961Y-88428591D01*
G37*
D13*
X104899999Y-118839542D02*
X104499999Y-120039542D01*
X104499999Y-120039542D02*
X104099999Y-118839542D01*
X103699999Y-120039542D02*
X103699999Y-118839542D01*
X103699999Y-118839542D02*
X103414285Y-118839542D01*
X103414285Y-118839542D02*
X103242856Y-118896685D01*
X103242856Y-118896685D02*
X103128571Y-119010971D01*
X103128571Y-119010971D02*
X103071428Y-119125257D01*
X103071428Y-119125257D02*
X103014285Y-119353828D01*
X103014285Y-119353828D02*
X103014285Y-119525257D01*
X103014285Y-119525257D02*
X103071428Y-119753828D01*
X103071428Y-119753828D02*
X103128571Y-119868114D01*
X103128571Y-119868114D02*
X103242856Y-119982400D01*
X103242856Y-119982400D02*
X103414285Y-120039542D01*
X103414285Y-120039542D02*
X103699999Y-120039542D01*
X101814285Y-119925257D02*
X101871428Y-119982400D01*
X101871428Y-119982400D02*
X102042856Y-120039542D01*
X102042856Y-120039542D02*
X102157142Y-120039542D01*
X102157142Y-120039542D02*
X102328571Y-119982400D01*
X102328571Y-119982400D02*
X102442856Y-119868114D01*
X102442856Y-119868114D02*
X102499999Y-119753828D01*
X102499999Y-119753828D02*
X102557142Y-119525257D01*
X102557142Y-119525257D02*
X102557142Y-119353828D01*
X102557142Y-119353828D02*
X102499999Y-119125257D01*
X102499999Y-119125257D02*
X102442856Y-119010971D01*
X102442856Y-119010971D02*
X102328571Y-118896685D01*
X102328571Y-118896685D02*
X102157142Y-118839542D01*
X102157142Y-118839542D02*
X102042856Y-118839542D01*
X102042856Y-118839542D02*
X101871428Y-118896685D01*
X101871428Y-118896685D02*
X101814285Y-118953828D01*
D10*
G36*
X134409068Y-109444731D02*
G01*
X135515000Y-109444731D01*
X135515000Y-109193344D01*
X134768349Y-109193344D01*
X135515000Y-109092960D01*
X135515000Y-108914663D01*
X134783981Y-108808784D01*
X135515000Y-108808784D01*
X135515000Y-108557397D01*
X134409068Y-108557397D01*
X134409068Y-108929684D01*
X134644152Y-108964549D01*
X134925458Y-109004117D01*
X134409068Y-109069696D01*
X134409068Y-109444731D01*
G37*
G36*
X135515000Y-109793021D02*
G01*
X135315697Y-109810057D01*
X135315697Y-109913250D01*
X135515000Y-109927538D01*
X135515000Y-110221973D01*
X134409068Y-110057353D01*
X134409068Y-109861287D01*
X134652456Y-109861287D01*
X134920469Y-109884195D01*
X135120303Y-109905006D01*
X135120303Y-109806638D01*
X134951871Y-109823232D01*
X134652456Y-109861287D01*
X134409068Y-109861287D01*
X134409068Y-109641346D01*
X135515000Y-109495167D01*
X135515000Y-109793021D01*
G37*
G36*
X135515000Y-110633766D02*
G01*
X135511691Y-110730413D01*
X135503764Y-110788128D01*
X135487822Y-110836087D01*
X135464136Y-110874162D01*
X135431022Y-110903351D01*
X135385551Y-110923011D01*
X135323139Y-110932577D01*
X135186432Y-110937055D01*
X134799124Y-110937055D01*
X134654851Y-110934007D01*
X134588403Y-110927468D01*
X134537605Y-110910942D01*
X134491011Y-110879658D01*
X134465607Y-110851664D01*
X134444558Y-110815049D01*
X134428180Y-110767978D01*
X134415107Y-110677793D01*
X134411350Y-110558600D01*
X134596646Y-110558600D01*
X134599740Y-110601804D01*
X134606599Y-110622775D01*
X134619191Y-110636647D01*
X134637862Y-110644635D01*
X134665754Y-110647866D01*
X134734583Y-110649459D01*
X135166160Y-110649459D01*
X135266748Y-110644551D01*
X135302386Y-110635109D01*
X135314768Y-110622819D01*
X135323715Y-110599355D01*
X135327421Y-110558600D01*
X134596646Y-110558600D01*
X134411350Y-110558600D01*
X134409068Y-110486182D01*
X134409068Y-110271004D01*
X135515000Y-110271004D01*
X135515000Y-110633766D01*
G37*
G36*
X134409068Y-111044766D02*
G01*
X134409068Y-111524275D01*
X134631817Y-111524275D01*
X134631817Y-111332362D01*
X134838935Y-111332362D01*
X134838935Y-111512002D01*
X135049961Y-111512002D01*
X135049961Y-111332362D01*
X135292250Y-111332362D01*
X135292250Y-111543449D01*
X135515000Y-111543449D01*
X135515000Y-111044766D01*
X134409068Y-111044766D01*
G37*
G36*
X135515000Y-112204919D02*
G01*
X135511924Y-112323183D01*
X135504512Y-112394913D01*
X135495094Y-112434446D01*
X135477917Y-112468566D01*
X135453505Y-112495472D01*
X135420966Y-112516085D01*
X135383634Y-112529051D01*
X135329699Y-112538199D01*
X135254209Y-112541730D01*
X135151261Y-112541730D01*
X135079326Y-112536963D01*
X135027231Y-112524455D01*
X134990305Y-112506193D01*
X134960888Y-112478340D01*
X134935556Y-112434960D01*
X134915139Y-112370943D01*
X134897492Y-112429406D01*
X134877748Y-112467528D01*
X134856704Y-112490806D01*
X134829284Y-112506060D01*
X134786440Y-112516924D01*
X134722248Y-112521214D01*
X134627194Y-112515291D01*
X134560611Y-112500005D01*
X134515375Y-112478166D01*
X134476930Y-112445995D01*
X134448852Y-112408573D01*
X134430134Y-112365081D01*
X134415219Y-112286825D01*
X134409100Y-112159856D01*
X134596646Y-112159856D01*
X134598930Y-112200631D01*
X134602814Y-112219635D01*
X134611522Y-112232990D01*
X134629131Y-112244548D01*
X134653984Y-112251199D01*
X134701976Y-112254134D01*
X134790997Y-112250119D01*
X134821350Y-112242533D01*
X134832004Y-112232752D01*
X134839276Y-112215881D01*
X134842172Y-112188555D01*
X134842843Y-112159856D01*
X135014790Y-112159856D01*
X135021490Y-112217351D01*
X135032070Y-112239113D01*
X135054742Y-112249071D01*
X135119021Y-112254134D01*
X135223190Y-112254134D01*
X135283912Y-112248708D01*
X135308126Y-112237404D01*
X135320286Y-112214352D01*
X135327421Y-112159856D01*
X135014790Y-112159856D01*
X134842843Y-112159856D01*
X134596646Y-112159856D01*
X134409100Y-112159856D01*
X134409068Y-112159185D01*
X134409068Y-111872260D01*
X135515000Y-111872260D01*
X135515000Y-112204919D01*
G37*
G36*
X134409068Y-113257789D02*
G01*
X135114685Y-113048046D01*
X135515000Y-113048046D01*
X135515000Y-112781638D01*
X135114685Y-112781638D01*
X134409068Y-112579466D01*
X134409068Y-112843797D01*
X134706839Y-112896570D01*
X134844187Y-112913468D01*
X134657518Y-112943500D01*
X134409068Y-112993396D01*
X134409068Y-113257789D01*
G37*
D14*
%TO.C,G\u002A\u002A\u002A*%
G36*
X109780000Y-87990000D02*
G01*
X109780000Y-88260000D01*
X109640000Y-88260000D01*
X109500000Y-88260000D01*
X109500000Y-87990000D01*
X109500001Y-87720000D01*
X109640001Y-87720000D01*
X109779999Y-87720000D01*
X109780000Y-87990000D01*
G37*
G36*
X109780000Y-90830001D02*
G01*
X109780000Y-90959999D01*
X109640001Y-90960000D01*
X109500001Y-90960000D01*
X109500001Y-90830000D01*
X109500000Y-90700000D01*
X109640000Y-90700000D01*
X109780000Y-90700000D01*
X109780000Y-90830001D01*
G37*
G36*
X109780000Y-92450001D02*
G01*
X109780000Y-92579999D01*
X109640001Y-92580000D01*
X109500001Y-92580000D01*
X109500001Y-92450000D01*
X109500000Y-92320000D01*
X109640000Y-92320000D01*
X109780000Y-92320000D01*
X109780000Y-92450001D01*
G37*
G36*
X110860000Y-86240000D02*
G01*
X110860000Y-86640000D01*
X110460000Y-86640000D01*
X110060000Y-86640000D01*
X110059999Y-86240000D01*
X110060000Y-85840000D01*
X110460000Y-85840000D01*
X110860000Y-85840000D01*
X110860000Y-86240000D01*
G37*
G36*
X111400000Y-93530000D02*
G01*
X111400000Y-93660000D01*
X111270000Y-93660000D01*
X111140000Y-93660000D01*
X111140000Y-93530000D01*
X111140000Y-93400000D01*
X111270000Y-93400000D01*
X111400000Y-93400000D01*
X111400000Y-93530000D01*
G37*
G36*
X112480000Y-86510000D02*
G01*
X112480000Y-86640000D01*
X112350000Y-86640000D01*
X112220000Y-86640000D01*
X112220000Y-86510000D01*
X112220000Y-86380000D01*
X112350000Y-86380000D01*
X112480000Y-86380000D01*
X112480000Y-86510000D01*
G37*
G36*
X113020000Y-92990000D02*
G01*
X113020000Y-93120000D01*
X112750000Y-93120000D01*
X112480000Y-93120000D01*
X112480000Y-92990000D01*
X112480000Y-92860000D01*
X112750000Y-92859999D01*
X113020000Y-92859999D01*
X113020000Y-92990000D01*
G37*
G36*
X114100000Y-85430000D02*
G01*
X114100000Y-85560000D01*
X113970000Y-85559999D01*
X113840000Y-85559999D01*
X113840001Y-85430000D01*
X113840000Y-85300001D01*
X113970000Y-85300001D01*
X114100000Y-85300000D01*
X114100000Y-85430000D01*
G37*
G36*
X115180000Y-86240000D02*
G01*
X115180000Y-86380000D01*
X115050000Y-86380000D01*
X114920000Y-86380000D01*
X114920000Y-86240000D01*
X114920000Y-86100000D01*
X115050000Y-86100000D01*
X115180000Y-86100000D01*
X115180000Y-86240000D01*
G37*
G36*
X115180001Y-87050000D02*
G01*
X115180000Y-87180000D01*
X115050000Y-87180000D01*
X114920000Y-87180000D01*
X114920000Y-87050000D01*
X114920000Y-86920000D01*
X115050000Y-86920000D01*
X115180001Y-86920000D01*
X115180001Y-87050000D01*
G37*
G36*
X115460000Y-95159999D02*
G01*
X115460000Y-95299999D01*
X115320000Y-95299999D01*
X115180001Y-95300000D01*
X115180001Y-95160000D01*
X115180001Y-95020000D01*
X115320001Y-95020000D01*
X115460001Y-95020000D01*
X115460000Y-95159999D01*
G37*
G36*
X115720000Y-87050000D02*
G01*
X115720000Y-87180000D01*
X115590000Y-87180000D01*
X115460000Y-87180000D01*
X115460000Y-87049999D01*
X115460000Y-86920001D01*
X115589999Y-86920000D01*
X115720000Y-86920000D01*
X115720000Y-87050000D01*
G37*
G36*
X116260000Y-86510000D02*
G01*
X116260000Y-86640000D01*
X116130000Y-86640000D01*
X116000000Y-86640000D01*
X116000000Y-86510000D01*
X116000000Y-86380000D01*
X116130000Y-86379999D01*
X116260000Y-86379999D01*
X116260000Y-86510000D01*
G37*
G36*
X116260000Y-87590001D02*
G01*
X116259999Y-87720000D01*
X116130001Y-87720000D01*
X116000000Y-87720000D01*
X116000000Y-87590000D01*
X116000000Y-87460000D01*
X116130000Y-87460000D01*
X116260000Y-87460000D01*
X116260000Y-87590001D01*
G37*
G36*
X116260000Y-91370000D02*
G01*
X116260000Y-91500000D01*
X116130000Y-91500000D01*
X116000000Y-91500000D01*
X116000000Y-91370000D01*
X116000000Y-91240000D01*
X116130000Y-91239999D01*
X116260000Y-91239999D01*
X116260000Y-91370000D01*
G37*
G36*
X116260000Y-92719999D02*
G01*
X116260000Y-92859999D01*
X116130000Y-92859999D01*
X116000000Y-92860000D01*
X116000000Y-92720000D01*
X116000000Y-92580000D01*
X116130001Y-92580000D01*
X116259999Y-92580000D01*
X116260000Y-92719999D01*
G37*
G36*
X117080000Y-91370000D02*
G01*
X117080000Y-91500001D01*
X116940000Y-91500001D01*
X116800000Y-91500001D01*
X116800000Y-91370000D01*
X116800000Y-91240000D01*
X116940000Y-91240000D01*
X117080000Y-91240000D01*
X117080000Y-91370000D01*
G37*
G36*
X117880000Y-87590001D02*
G01*
X117879999Y-87720000D01*
X117610001Y-87720000D01*
X117340000Y-87720000D01*
X117340000Y-87590000D01*
X117340000Y-87460000D01*
X117610000Y-87460000D01*
X117880000Y-87460000D01*
X117880000Y-87590001D01*
G37*
G36*
X117880000Y-89210001D02*
G01*
X117879999Y-89340000D01*
X117750001Y-89340000D01*
X117620000Y-89340000D01*
X117620000Y-89210000D01*
X117620000Y-89080000D01*
X117750000Y-89080000D01*
X117880000Y-89080000D01*
X117880000Y-89210001D01*
G37*
G36*
X118960000Y-86240000D02*
G01*
X118960000Y-86640000D01*
X118560000Y-86640000D01*
X118160000Y-86640000D01*
X118160000Y-86240000D01*
X118160000Y-85840000D01*
X118560000Y-85840000D01*
X118960000Y-85840000D01*
X118960000Y-86240000D01*
G37*
G36*
X118960000Y-94340000D02*
G01*
X118960000Y-94740000D01*
X118560000Y-94740001D01*
X118160000Y-94740000D01*
X118160000Y-94340000D01*
X118160000Y-93940000D01*
X118560000Y-93940000D01*
X118960000Y-93940000D01*
X118960000Y-94340000D01*
G37*
G36*
X111140000Y-91770000D02*
G01*
X111140000Y-92040000D01*
X110870000Y-92040000D01*
X110600000Y-92040000D01*
X110600000Y-91909999D01*
X110600001Y-91780000D01*
X110729999Y-91780000D01*
X110860000Y-91780000D01*
X110860000Y-91640000D01*
X110860000Y-91500000D01*
X111000000Y-91500000D01*
X111140000Y-91500000D01*
X111140000Y-91770000D01*
G37*
G36*
X114920000Y-85570000D02*
G01*
X114920000Y-85840000D01*
X114780000Y-85840000D01*
X114640000Y-85840000D01*
X114640000Y-85970001D01*
X114639999Y-86100000D01*
X114510001Y-86100000D01*
X114380000Y-86100000D01*
X114380000Y-85700000D01*
X114380000Y-85300000D01*
X114650000Y-85300000D01*
X114920000Y-85300000D01*
X114920000Y-85570000D01*
G37*
G36*
X116130000Y-86920000D02*
G01*
X116260000Y-86920000D01*
X116260000Y-87050000D01*
X116260000Y-87180000D01*
X116130000Y-87180000D01*
X116000000Y-87180000D01*
X116000000Y-87050000D01*
X116000000Y-86920000D01*
X116130000Y-86920000D01*
G37*
G36*
X116000000Y-86780000D02*
G01*
X116000000Y-86920000D01*
X115860000Y-86920000D01*
X115720000Y-86920000D01*
X115720000Y-86780000D01*
X115720000Y-86640000D01*
X115860000Y-86640000D01*
X116000000Y-86640000D01*
X116000000Y-86780000D01*
G37*
G36*
X111400000Y-86239999D02*
G01*
X111400000Y-87180000D01*
X110450000Y-87180000D01*
X109500000Y-87180000D01*
X109500001Y-86240000D01*
X109500000Y-85560000D01*
X109780000Y-85560000D01*
X109780000Y-86239999D01*
X109780000Y-86920000D01*
X110460001Y-86920000D01*
X111140000Y-86920000D01*
X111140000Y-86240000D01*
X111140000Y-85560000D01*
X110460000Y-85559999D01*
X109780000Y-85560000D01*
X109500000Y-85560000D01*
X109500000Y-85300000D01*
X110450000Y-85300001D01*
X111400000Y-85300000D01*
X111400000Y-86239999D01*
G37*
G36*
X119500000Y-87180000D02*
G01*
X118560000Y-87180000D01*
X117620000Y-87180000D01*
X117620000Y-86240000D01*
X117879999Y-86240000D01*
X117880000Y-86920000D01*
X118560000Y-86920001D01*
X119240000Y-86920000D01*
X119240001Y-86240000D01*
X119240000Y-85560000D01*
X118560000Y-85559999D01*
X117880000Y-85560000D01*
X117879999Y-86240000D01*
X117620000Y-86240000D01*
X117620000Y-85300000D01*
X118560000Y-85300001D01*
X119500000Y-85300000D01*
X119499999Y-86240000D01*
X119500000Y-87180000D01*
G37*
G36*
X119500000Y-94339999D02*
G01*
X119499999Y-94350000D01*
X119500000Y-95300000D01*
X118560000Y-95299999D01*
X117620000Y-95300000D01*
X117620000Y-94350000D01*
X117620000Y-94339999D01*
X117880000Y-94339999D01*
X117880000Y-95020000D01*
X118560001Y-95020000D01*
X119240000Y-95020000D01*
X119240001Y-94340000D01*
X119240000Y-93660000D01*
X118560000Y-93660000D01*
X117880000Y-93660000D01*
X117880000Y-94339999D01*
X117620000Y-94339999D01*
X117620000Y-93400000D01*
X118560001Y-93400000D01*
X119500000Y-93400000D01*
X119500000Y-94339999D01*
G37*
G36*
X115460000Y-93800000D02*
G01*
X115460000Y-93940000D01*
X115320000Y-93940000D01*
X115180000Y-93940000D01*
X115180000Y-94070000D01*
X115180000Y-94200000D01*
X115050000Y-94200000D01*
X114920000Y-94200000D01*
X114920000Y-94470000D01*
X114920000Y-94740000D01*
X114780000Y-94740000D01*
X114640000Y-94740000D01*
X114640000Y-94880000D01*
X114640000Y-95020000D01*
X114780000Y-95020000D01*
X114920000Y-95020000D01*
X114920000Y-95160000D01*
X114920000Y-95300000D01*
X114380000Y-95300000D01*
X113840000Y-95299999D01*
X113840000Y-95159999D01*
X113840001Y-95020000D01*
X113700001Y-95020000D01*
X113560001Y-95020000D01*
X113560001Y-94880000D01*
X113560001Y-94740000D01*
X113830000Y-94740001D01*
X114100000Y-94740000D01*
X114100000Y-94610000D01*
X114100000Y-94480000D01*
X114240000Y-94480000D01*
X114380000Y-94480000D01*
X114380000Y-94610000D01*
X114380000Y-94740000D01*
X114510000Y-94740000D01*
X114640000Y-94740000D01*
X114640000Y-94339999D01*
X114640000Y-93940000D01*
X114780000Y-93940000D01*
X114920000Y-93940000D01*
X114920000Y-93800000D01*
X114920000Y-93660000D01*
X115190000Y-93660000D01*
X115460000Y-93660000D01*
X115460000Y-93800000D01*
G37*
G36*
X115590000Y-89080000D02*
G01*
X115720000Y-89080000D01*
X115720000Y-89350000D01*
X115720000Y-89620000D01*
X115590000Y-89620000D01*
X115460000Y-89620000D01*
X115460000Y-89350000D01*
X115460000Y-89080000D01*
X115590000Y-89080000D01*
G37*
G36*
X115720000Y-87860000D02*
G01*
X115720000Y-88260000D01*
X115590000Y-88260000D01*
X115460000Y-88260000D01*
X115460000Y-88400001D01*
X115460000Y-88540001D01*
X115589999Y-88540000D01*
X115720000Y-88540000D01*
X115720000Y-88400000D01*
X115720000Y-88260000D01*
X115860000Y-88260000D01*
X116000000Y-88260000D01*
X116000000Y-88400000D01*
X116000000Y-88540000D01*
X115860000Y-88540000D01*
X115720000Y-88540000D01*
X115720000Y-88670000D01*
X115720000Y-88800000D01*
X115590000Y-88800000D01*
X115460000Y-88800000D01*
X115460000Y-88940000D01*
X115460000Y-89080000D01*
X115320000Y-89080000D01*
X115180000Y-89080000D01*
X115180000Y-88940000D01*
X115180000Y-88800000D01*
X115050000Y-88800000D01*
X114920000Y-88800000D01*
X114920000Y-88670000D01*
X114920000Y-88540000D01*
X114780000Y-88540000D01*
X114640000Y-88540000D01*
X114640000Y-88270000D01*
X114920000Y-88270000D01*
X114920000Y-88540000D01*
X115050000Y-88540000D01*
X115180001Y-88540000D01*
X115180000Y-88270000D01*
X115180000Y-88000000D01*
X115050000Y-88000000D01*
X114920000Y-88000000D01*
X114920000Y-88270000D01*
X114640000Y-88270000D01*
X114640000Y-87999999D01*
X114779999Y-88000000D01*
X114920000Y-88000000D01*
X114920000Y-87730000D01*
X114920000Y-87460000D01*
X115320000Y-87460000D01*
X115720000Y-87460000D01*
X115720000Y-87860000D01*
G37*
G36*
X119500000Y-92180000D02*
G01*
X119500000Y-93120000D01*
X119370000Y-93120000D01*
X119240000Y-93120000D01*
X119240000Y-92850000D01*
X119240001Y-92580000D01*
X119100000Y-92580000D01*
X118960000Y-92580000D01*
X118960000Y-92720000D01*
X118960000Y-92860000D01*
X118830000Y-92860000D01*
X118700000Y-92860000D01*
X118700000Y-92990000D01*
X118700000Y-93120001D01*
X118160000Y-93120000D01*
X117620000Y-93120000D01*
X117620000Y-92990000D01*
X117620000Y-92860000D01*
X118020000Y-92859999D01*
X118420000Y-92860000D01*
X118420000Y-92590000D01*
X118420000Y-92320000D01*
X118290000Y-92320000D01*
X118160000Y-92320000D01*
X118160000Y-92450000D01*
X118160000Y-92580000D01*
X117890000Y-92579999D01*
X117620000Y-92580000D01*
X117620000Y-92450000D01*
X117620000Y-92320000D01*
X117750000Y-92320000D01*
X117880000Y-92320000D01*
X117880000Y-92180000D01*
X118960000Y-92180000D01*
X118960000Y-92320000D01*
X119100000Y-92320000D01*
X119240000Y-92320000D01*
X119240000Y-92180000D01*
X119240000Y-92040000D01*
X119100000Y-92040000D01*
X118960000Y-92040000D01*
X118960000Y-92180000D01*
X117880000Y-92180000D01*
X117880000Y-92040000D01*
X117480000Y-92040000D01*
X117080000Y-92040000D01*
X117080000Y-91909999D01*
X117080000Y-91780001D01*
X117620000Y-91780000D01*
X118160000Y-91780000D01*
X118160000Y-91910000D01*
X118160000Y-92040000D01*
X118290000Y-92040000D01*
X118420000Y-92040000D01*
X118420000Y-91909999D01*
X118420001Y-91780000D01*
X118290000Y-91780000D01*
X118160000Y-91780000D01*
X118160000Y-91640000D01*
X118160000Y-91500000D01*
X118430000Y-91500000D01*
X118700000Y-91500001D01*
X118700000Y-91769999D01*
X118700000Y-92040000D01*
X118830000Y-92040000D01*
X118960000Y-92040000D01*
X118960000Y-91770000D01*
X118960000Y-91500000D01*
X118829999Y-91500000D01*
X118700000Y-91500001D01*
X118700000Y-91370000D01*
X118700000Y-91240000D01*
X119100000Y-91240000D01*
X119500000Y-91239999D01*
X119500000Y-92180000D01*
G37*
G36*
X113020000Y-90420000D02*
G01*
X112890000Y-90420000D01*
X112760000Y-90420000D01*
X112760000Y-90560000D01*
X112760000Y-90700000D01*
X112620000Y-90700000D01*
X112480000Y-90700000D01*
X112480000Y-90430000D01*
X112480000Y-90160000D01*
X112349999Y-90160000D01*
X112220000Y-90160001D01*
X112220000Y-90289999D01*
X112220000Y-90420000D01*
X112080000Y-90420000D01*
X111940000Y-90420000D01*
X111940001Y-90290000D01*
X111940001Y-90160000D01*
X111810000Y-90160000D01*
X111680000Y-90160000D01*
X111680000Y-89750000D01*
X111679999Y-89340000D01*
X111810000Y-89340000D01*
X111940000Y-89340000D01*
X111940000Y-89610000D01*
X111940000Y-89880000D01*
X112080000Y-89880000D01*
X112220000Y-89880000D01*
X112480000Y-89880000D01*
X112480000Y-90020000D01*
X112480000Y-90160000D01*
X112620000Y-90160000D01*
X112760000Y-90160000D01*
X112760000Y-90020000D01*
X112760000Y-89880000D01*
X112620000Y-89880000D01*
X112480000Y-89880000D01*
X112220000Y-89880000D01*
X112220000Y-89610000D01*
X112220000Y-89340000D01*
X112350000Y-89340000D01*
X112480000Y-89340000D01*
X112480000Y-89480000D01*
X112480000Y-89620000D01*
X112620000Y-89620000D01*
X112760000Y-89620000D01*
X112760000Y-89480000D01*
X112760000Y-89340000D01*
X112620000Y-89340000D01*
X112480000Y-89340000D01*
X112480000Y-89210000D01*
X112480000Y-89080000D01*
X112350000Y-89080000D01*
X112220000Y-89080000D01*
X112220000Y-89210000D01*
X112220000Y-89340000D01*
X112080000Y-89340000D01*
X111940000Y-89340000D01*
X111940000Y-89210000D01*
X111940000Y-89080000D01*
X111670000Y-89080000D01*
X111400000Y-89080000D01*
X111400000Y-88940000D01*
X111400000Y-88800000D01*
X112210000Y-88800000D01*
X113020000Y-88800000D01*
X113020000Y-88670000D01*
X113020000Y-88540000D01*
X112890000Y-88540000D01*
X112760000Y-88540000D01*
X112760000Y-88400000D01*
X112760000Y-88260000D01*
X112620000Y-88260000D01*
X112480000Y-88260000D01*
X112480000Y-88400000D01*
X112480000Y-88540000D01*
X112210000Y-88540001D01*
X111940001Y-88540000D01*
X111940001Y-88400000D01*
X111940000Y-88260000D01*
X112080000Y-88260000D01*
X112220000Y-88260000D01*
X112220000Y-88130000D01*
X112220000Y-88000000D01*
X112490000Y-88000000D01*
X112760000Y-88000000D01*
X112760000Y-88130000D01*
X112760000Y-88260000D01*
X112890000Y-88260000D01*
X113020000Y-88260000D01*
X113020000Y-88130000D01*
X113020000Y-87999999D01*
X113290000Y-88000000D01*
X113560000Y-88000000D01*
X113560000Y-88130000D01*
X113560000Y-88260000D01*
X113700000Y-88260000D01*
X113840000Y-88260000D01*
X113840000Y-88800000D01*
X113840000Y-89340000D01*
X113700000Y-89340000D01*
X113560000Y-89340000D01*
X113560000Y-89070000D01*
X113560000Y-88800000D01*
X113430000Y-88800000D01*
X113300000Y-88800000D01*
X113300000Y-88940000D01*
X113300000Y-89080000D01*
X113160000Y-89080000D01*
X113020000Y-89080000D01*
X113019999Y-89340000D01*
X113020000Y-89750000D01*
X113020000Y-90020000D01*
X113020000Y-90420000D01*
G37*
G36*
X114110000Y-89340000D02*
G01*
X114380000Y-89340000D01*
X114380000Y-89480000D01*
X114380000Y-89620000D01*
X114110000Y-89620000D01*
X113840000Y-89620000D01*
X113840000Y-89480000D01*
X113840000Y-89340000D01*
X114110000Y-89340000D01*
G37*
G36*
X114920000Y-86920000D02*
G01*
X114780000Y-86920000D01*
X114640000Y-86920000D01*
X114640000Y-87050000D01*
X114640000Y-87180000D01*
X114510000Y-87180000D01*
X114380000Y-87180000D01*
X114380000Y-87050000D01*
X114380000Y-86920000D01*
X114240000Y-86920000D01*
X114100000Y-86920000D01*
X114100000Y-87190000D01*
X114100000Y-87320000D01*
X114100000Y-87460000D01*
X114240000Y-87460000D01*
X114380000Y-87460000D01*
X114380000Y-87590000D01*
X114380000Y-87720000D01*
X114240000Y-87720000D01*
X114100000Y-87720000D01*
X114100000Y-87860000D01*
X114100000Y-88000000D01*
X114240000Y-88000000D01*
X114380000Y-88000000D01*
X114380000Y-88400000D01*
X114380000Y-88800000D01*
X114650000Y-88800000D01*
X114920000Y-88800000D01*
X114920000Y-89070000D01*
X114920000Y-89340000D01*
X115050000Y-89340000D01*
X115180000Y-89340000D01*
X115180000Y-89610000D01*
X115180000Y-89880000D01*
X115320000Y-89880000D01*
X115460000Y-89880000D01*
X115460000Y-90020001D01*
X115460000Y-90160001D01*
X115589999Y-90160000D01*
X115720000Y-90160000D01*
X115720000Y-89890000D01*
X115720000Y-89620000D01*
X116260000Y-89619999D01*
X116800000Y-89620000D01*
X116800000Y-89480000D01*
X116800000Y-89340000D01*
X116670000Y-89340000D01*
X116540000Y-89340000D01*
X116540000Y-89210000D01*
X116540000Y-89080000D01*
X116400000Y-89080000D01*
X116260000Y-89080000D01*
X116260000Y-88940000D01*
X116260000Y-88800000D01*
X116530000Y-88800000D01*
X116800000Y-88800000D01*
X116800001Y-88670000D01*
X116800001Y-88540000D01*
X116530000Y-88540000D01*
X116260000Y-88540000D01*
X116260000Y-88400000D01*
X116260000Y-88260000D01*
X116400000Y-88260000D01*
X116540000Y-88260000D01*
X117080000Y-88260000D01*
X117080000Y-88400001D01*
X117080000Y-88540001D01*
X117209999Y-88540000D01*
X117340000Y-88540000D01*
X117340000Y-88400000D01*
X117340000Y-88260000D01*
X117210000Y-88260000D01*
X117080000Y-88260000D01*
X116540000Y-88260000D01*
X116540000Y-88130000D01*
X116540000Y-88000000D01*
X116399999Y-88000000D01*
X116260000Y-87999999D01*
X116259999Y-87860000D01*
X116259999Y-87720000D01*
X116530000Y-87720000D01*
X116800000Y-87720000D01*
X116800000Y-87590000D01*
X116800000Y-87460000D01*
X116670000Y-87460000D01*
X116540000Y-87460000D01*
X116540000Y-87190000D01*
X116540000Y-86920000D01*
X116670000Y-86920000D01*
X116800001Y-86920000D01*
X116800001Y-87050000D01*
X116800000Y-87180000D01*
X116940000Y-87180000D01*
X117080000Y-87180000D01*
X117080000Y-87049999D01*
X117080000Y-86920001D01*
X116940000Y-86920001D01*
X116800001Y-86920000D01*
X116800000Y-86780001D01*
X116800000Y-86640000D01*
X116670000Y-86640000D01*
X116540000Y-86640000D01*
X116540000Y-86370000D01*
X116540000Y-86100000D01*
X116670000Y-86100000D01*
X116800000Y-86100000D01*
X116800000Y-85830000D01*
X116800000Y-85559999D01*
X116530000Y-85560000D01*
X116260000Y-85560000D01*
X116260000Y-85830000D01*
X116260000Y-85970001D01*
X116259999Y-86100000D01*
X116130001Y-86100000D01*
X116000000Y-86100000D01*
X116000000Y-86240000D01*
X116000000Y-86380000D01*
X115730000Y-86380000D01*
X115460000Y-86380000D01*
X115460000Y-86240000D01*
X115460000Y-86100000D01*
X115320000Y-86100000D01*
X115180000Y-86100000D01*
X115180000Y-85970000D01*
X115460000Y-85970000D01*
X115460000Y-86100000D01*
X115590000Y-86100000D01*
X115720000Y-86100000D01*
X115720000Y-85970000D01*
X115720000Y-85840000D01*
X115590000Y-85840000D01*
X115460000Y-85840000D01*
X115460000Y-85970000D01*
X115180000Y-85970000D01*
X115180000Y-85830000D01*
X115180000Y-85559999D01*
X115320000Y-85559999D01*
X115460000Y-85559999D01*
X115460000Y-85429999D01*
X115460000Y-85300001D01*
X115589999Y-85300000D01*
X115720000Y-85300000D01*
X115720000Y-85570000D01*
X115720000Y-85840000D01*
X115860000Y-85840000D01*
X116000000Y-85840000D01*
X116000000Y-85570000D01*
X116000000Y-85300000D01*
X116400000Y-85300000D01*
X116800001Y-85300000D01*
X116800001Y-85430000D01*
X116800000Y-85559999D01*
X116940000Y-85559999D01*
X117080000Y-85559999D01*
X117080000Y-85700000D01*
X117080000Y-85840000D01*
X117210000Y-85840000D01*
X117340000Y-85840000D01*
X117340000Y-86110000D01*
X117340000Y-86380000D01*
X117210000Y-86380000D01*
X117080000Y-86380000D01*
X117080000Y-86650000D01*
X117080000Y-86920001D01*
X117209999Y-86920000D01*
X117340000Y-86920000D01*
X117340000Y-87050000D01*
X117340000Y-87180000D01*
X117210000Y-87180000D01*
X117080000Y-87180000D01*
X117080000Y-87590000D01*
X117080000Y-88000000D01*
X117210000Y-88000000D01*
X117340000Y-88000000D01*
X117340000Y-88130000D01*
X117340000Y-88260000D01*
X117480000Y-88260000D01*
X117620000Y-88260000D01*
X117620000Y-88130000D01*
X117620000Y-88000000D01*
X117750000Y-87999999D01*
X117880000Y-87999999D01*
X117880000Y-88130000D01*
X117880000Y-88260000D01*
X117750000Y-88260000D01*
X117620000Y-88260000D01*
X117620000Y-88400000D01*
X117620000Y-88540000D01*
X117890000Y-88540000D01*
X118160000Y-88540000D01*
X118160000Y-88400000D01*
X118160000Y-88260000D01*
X118290000Y-88260000D01*
X118420000Y-88260000D01*
X118420001Y-88530000D01*
X118420000Y-88800000D01*
X118560000Y-88800000D01*
X118700000Y-88800000D01*
X118699999Y-88530000D01*
X118700000Y-88260000D01*
X118560000Y-88260000D01*
X118420000Y-88260000D01*
X118420000Y-87990000D01*
X118420000Y-87720000D01*
X118290000Y-87720000D01*
X118160000Y-87720000D01*
X118160000Y-87590000D01*
X118160000Y-87460000D01*
X118430000Y-87460000D01*
X118700000Y-87460000D01*
X118700000Y-87730000D01*
X118700000Y-88000000D01*
X118970000Y-88000000D01*
X119240001Y-88000000D01*
X119240001Y-87860000D01*
X119240001Y-87720000D01*
X119370001Y-87720000D01*
X119499999Y-87720000D01*
X119500000Y-87990000D01*
X119500000Y-88260000D01*
X119370000Y-88260000D01*
X119240000Y-88260000D01*
X119240000Y-88400000D01*
X119240000Y-88540000D01*
X119100000Y-88540000D01*
X118960000Y-88540000D01*
X118960000Y-88670000D01*
X118960000Y-88800000D01*
X119100000Y-88800000D01*
X119240000Y-88800000D01*
X119240000Y-88670000D01*
X119240000Y-88540000D01*
X119370000Y-88540000D01*
X119500000Y-88540000D01*
X119500000Y-88670000D01*
X119500000Y-88800000D01*
X119370000Y-88800000D01*
X119240000Y-88800000D01*
X119240000Y-88940000D01*
X119240000Y-89080000D01*
X119100000Y-89080000D01*
X118960000Y-89080000D01*
X118960000Y-89210000D01*
X118960000Y-89340000D01*
X119230001Y-89340000D01*
X119499999Y-89340000D01*
X119500000Y-89880000D01*
X119500000Y-90020000D01*
X119500000Y-90700000D01*
X119370000Y-90700000D01*
X119240000Y-90700000D01*
X119240000Y-90560000D01*
X119240000Y-90420000D01*
X119100000Y-90420000D01*
X118960000Y-90420000D01*
X118960000Y-90690000D01*
X118960000Y-90960000D01*
X118690000Y-90960000D01*
X118420000Y-90960000D01*
X118420000Y-91100000D01*
X118420000Y-91240000D01*
X118290000Y-91240000D01*
X118160000Y-91240000D01*
X118160000Y-90970000D01*
X118160000Y-90700000D01*
X118020000Y-90700000D01*
X117880000Y-90700000D01*
X117880000Y-90830001D01*
X117879999Y-90960000D01*
X117750001Y-90960000D01*
X117620000Y-90960000D01*
X117620000Y-91100000D01*
X117620000Y-91240000D01*
X117750000Y-91239999D01*
X117880000Y-91239999D01*
X117880000Y-91370000D01*
X117880000Y-91500000D01*
X117750000Y-91500000D01*
X117620000Y-91500000D01*
X117620000Y-91370000D01*
X117620000Y-91240000D01*
X117480000Y-91240000D01*
X117340000Y-91240000D01*
X117340000Y-90830000D01*
X117340000Y-90420000D01*
X117620000Y-90420000D01*
X117620000Y-90560000D01*
X117620000Y-90700000D01*
X117750000Y-90700000D01*
X117880000Y-90700000D01*
X117880000Y-90560000D01*
X117880000Y-90420000D01*
X117750000Y-90420000D01*
X117620000Y-90420000D01*
X117340000Y-90420000D01*
X117070000Y-90420000D01*
X116800000Y-90420000D01*
X116800001Y-90290000D01*
X116800001Y-90160000D01*
X116940000Y-90160001D01*
X117080000Y-90160001D01*
X117080000Y-90020001D01*
X117080000Y-89880000D01*
X117350000Y-89880000D01*
X117620000Y-89880000D01*
X117620000Y-90020000D01*
X117620000Y-90160000D01*
X118020000Y-90160000D01*
X118420001Y-90160000D01*
X118420001Y-90290000D01*
X118420000Y-90420000D01*
X118290000Y-90420000D01*
X118160000Y-90420000D01*
X118160000Y-90560000D01*
X118160000Y-90700000D01*
X118430000Y-90700000D01*
X118700000Y-90700000D01*
X118700000Y-90429999D01*
X118700000Y-90160001D01*
X118970000Y-90160000D01*
X119240000Y-90160000D01*
X119240000Y-90020000D01*
X119240000Y-89880000D01*
X118430000Y-89880000D01*
X117620000Y-89880000D01*
X117620000Y-89750000D01*
X117620000Y-89620000D01*
X117890000Y-89619999D01*
X118160000Y-89620000D01*
X118160000Y-89480000D01*
X118160000Y-89340000D01*
X118290000Y-89340000D01*
X118420000Y-89340000D01*
X118420000Y-89480000D01*
X118420000Y-89620000D01*
X118560000Y-89620000D01*
X118700000Y-89620000D01*
X118700000Y-89350000D01*
X118700000Y-89080000D01*
X118430000Y-89080000D01*
X118160000Y-89080000D01*
X118160000Y-88940000D01*
X118160000Y-88800000D01*
X117620000Y-88800000D01*
X117080000Y-88800000D01*
X117080000Y-88940000D01*
X117080000Y-89080000D01*
X117210000Y-89080000D01*
X117340000Y-89080000D01*
X117340000Y-89350000D01*
X117340000Y-89620000D01*
X117210000Y-89620000D01*
X117080000Y-89620000D01*
X117080000Y-89750000D01*
X117080000Y-89880000D01*
X116810000Y-89880000D01*
X116540000Y-89880000D01*
X116540000Y-90020000D01*
X116540000Y-90160000D01*
X116270000Y-90160000D01*
X116000000Y-90160000D01*
X116000000Y-90290000D01*
X116000000Y-90420000D01*
X116270000Y-90420000D01*
X116540000Y-90420000D01*
X116540000Y-90560000D01*
X116540000Y-90690000D01*
X116540000Y-90700000D01*
X116400000Y-90700000D01*
X116260000Y-90700000D01*
X116260000Y-90830001D01*
X116259999Y-90960000D01*
X115990001Y-90960000D01*
X115720000Y-90960000D01*
X115720000Y-91100000D01*
X115720000Y-91240000D01*
X115320000Y-91240000D01*
X114920000Y-91240000D01*
X114920000Y-91100000D01*
X114920000Y-90960000D01*
X114650000Y-90959999D01*
X114380000Y-90960000D01*
X114380000Y-91100000D01*
X114380000Y-91240000D01*
X114240000Y-91240000D01*
X114100000Y-91240000D01*
X114100000Y-90830000D01*
X114100000Y-90420000D01*
X114640000Y-90420000D01*
X114640000Y-90560000D01*
X114640000Y-90700000D01*
X114910000Y-90700000D01*
X115180000Y-90700000D01*
X115180000Y-90830000D01*
X115180000Y-90960000D01*
X115450000Y-90960000D01*
X115720000Y-90960000D01*
X115720000Y-90690000D01*
X115720000Y-90420000D01*
X115590000Y-90420000D01*
X115460000Y-90420000D01*
X115460000Y-90560000D01*
X115460000Y-90700000D01*
X115320000Y-90700000D01*
X115180000Y-90700000D01*
X115180000Y-90560000D01*
X115180000Y-90420000D01*
X114910000Y-90420000D01*
X114640000Y-90420000D01*
X114100000Y-90420000D01*
X113970000Y-90420000D01*
X113840000Y-90420000D01*
X113840000Y-90289999D01*
X113840000Y-90160001D01*
X114380000Y-90160000D01*
X114920000Y-90160000D01*
X114920000Y-89890000D01*
X114920000Y-89620000D01*
X114780000Y-89619999D01*
X114640000Y-89619999D01*
X114640000Y-89350001D01*
X114640000Y-89080000D01*
X114370000Y-89080000D01*
X114100000Y-89080000D01*
X114100000Y-88670000D01*
X114100000Y-88260000D01*
X113970000Y-88260000D01*
X113840000Y-88260000D01*
X113840000Y-87990000D01*
X113840000Y-87720000D01*
X113430000Y-87720000D01*
X113019999Y-87720000D01*
X113020000Y-87859999D01*
X113020000Y-87999999D01*
X112890000Y-87999999D01*
X112760000Y-88000000D01*
X112760000Y-87860000D01*
X112760000Y-87720000D01*
X112620000Y-87720000D01*
X112480000Y-87720000D01*
X112480000Y-87450000D01*
X112480000Y-87180000D01*
X112350000Y-87180000D01*
X112220000Y-87180000D01*
X112220000Y-87320000D01*
X112220000Y-87460000D01*
X112080000Y-87460000D01*
X111940000Y-87460000D01*
X111940000Y-87590000D01*
X111940000Y-87720000D01*
X111810000Y-87720000D01*
X111679999Y-87720000D01*
X111680000Y-86510000D01*
X111680000Y-85300000D01*
X111810000Y-85300000D01*
X111940001Y-85300000D01*
X111940000Y-86240000D01*
X111940000Y-87180000D01*
X112080000Y-87180000D01*
X112220000Y-87180000D01*
X112220001Y-87050000D01*
X112220000Y-86920001D01*
X112350000Y-86920001D01*
X112480000Y-86920000D01*
X112480000Y-87050000D01*
X112480000Y-87180000D01*
X112620000Y-87180000D01*
X112760000Y-87180000D01*
X112760000Y-87320000D01*
X112760000Y-87460000D01*
X112890000Y-87460000D01*
X113020000Y-87460000D01*
X113020000Y-87320000D01*
X113020000Y-87180000D01*
X112890000Y-87180000D01*
X112760000Y-87180000D01*
X112760000Y-87050000D01*
X112760000Y-86920000D01*
X112890000Y-86920000D01*
X113020000Y-86920000D01*
X113020000Y-87050000D01*
X113020000Y-87180000D01*
X113160000Y-87180000D01*
X113300000Y-87180000D01*
X113300000Y-86780000D01*
X113300000Y-86640000D01*
X113560000Y-86640000D01*
X113560001Y-86910000D01*
X113560000Y-87180000D01*
X113700000Y-87180000D01*
X113840000Y-87180000D01*
X113840001Y-86910000D01*
X113840000Y-86640000D01*
X113700000Y-86640000D01*
X113560000Y-86640000D01*
X113300000Y-86640000D01*
X113299999Y-86380000D01*
X113159999Y-86380000D01*
X113020000Y-86379999D01*
X113020000Y-86510000D01*
X113020000Y-86640000D01*
X112890000Y-86640000D01*
X112760000Y-86640000D01*
X112760000Y-86510000D01*
X112760000Y-86380000D01*
X112620000Y-86380000D01*
X112480000Y-86380000D01*
X112480000Y-86110000D01*
X112480000Y-85840000D01*
X112620000Y-85840000D01*
X112760000Y-85840000D01*
X112760000Y-85970000D01*
X112760000Y-86100000D01*
X112890001Y-86100000D01*
X113019999Y-86100000D01*
X113020000Y-85970001D01*
X113020000Y-85840000D01*
X112890000Y-85840000D01*
X112760000Y-85840000D01*
X112760000Y-85700000D01*
X112760000Y-85560000D01*
X112620000Y-85560000D01*
X112480000Y-85560000D01*
X112480000Y-85430000D01*
X112480000Y-85300000D01*
X112620000Y-85300000D01*
X112760000Y-85300000D01*
X112760000Y-85430000D01*
X112760000Y-85560000D01*
X112890000Y-85560000D01*
X113020000Y-85560000D01*
X113020000Y-85430000D01*
X113020000Y-85300000D01*
X113160000Y-85300000D01*
X113300000Y-85300000D01*
X113300000Y-85840000D01*
X113299999Y-86380000D01*
X113430000Y-86380000D01*
X113560000Y-86380000D01*
X113560000Y-85970000D01*
X113560000Y-85559999D01*
X113700000Y-85559999D01*
X113840000Y-85559999D01*
X113840000Y-85700000D01*
X113840000Y-85840000D01*
X113970000Y-85840000D01*
X114100000Y-85840000D01*
X114100000Y-86240000D01*
X114100000Y-86640000D01*
X114370000Y-86640000D01*
X114640000Y-86640000D01*
X114640000Y-86510000D01*
X114640000Y-86379999D01*
X114779999Y-86380000D01*
X114920000Y-86380000D01*
X114920000Y-86650000D01*
X114920000Y-86910000D01*
X114920000Y-86920000D01*
G37*
G36*
X116670000Y-90700000D02*
G01*
X116800000Y-90700000D01*
X116800000Y-90830000D01*
X116800000Y-90960000D01*
X116670000Y-90960000D01*
X116540000Y-90960000D01*
X116540000Y-90830000D01*
X116540000Y-90700000D01*
X116670000Y-90700000D01*
G37*
G36*
X111940000Y-93660000D02*
G01*
X112080000Y-93660000D01*
X112220000Y-93660000D01*
X112220000Y-93529999D01*
X112220001Y-93400000D01*
X112489999Y-93400000D01*
X112760000Y-93400000D01*
X112760000Y-93670000D01*
X112760000Y-93940000D01*
X112620000Y-93940000D01*
X112480000Y-93940000D01*
X112480000Y-93800000D01*
X112480000Y-93660000D01*
X112350000Y-93660000D01*
X112220000Y-93660000D01*
X112220000Y-93930000D01*
X112220000Y-94200000D01*
X111950000Y-94200000D01*
X111679999Y-94200000D01*
X111680000Y-94470000D01*
X111680000Y-94740000D01*
X111540000Y-94740000D01*
X111400000Y-94740000D01*
X111400000Y-94880000D01*
X111400000Y-95020000D01*
X111670000Y-95020000D01*
X111940001Y-95020000D01*
X111940001Y-95160000D01*
X111940001Y-95300000D01*
X111540000Y-95300000D01*
X111140000Y-95300000D01*
X111140000Y-95160000D01*
X111140000Y-95020000D01*
X111000000Y-95020000D01*
X110860000Y-95020000D01*
X110860000Y-95160000D01*
X110860000Y-95300000D01*
X110590000Y-95299999D01*
X110320000Y-95300000D01*
X110320000Y-95160000D01*
X110320000Y-95020000D01*
X110050000Y-95020000D01*
X109780000Y-95020000D01*
X109780000Y-95160000D01*
X109780000Y-95300000D01*
X109640000Y-95300000D01*
X109500000Y-95300000D01*
X109500000Y-94890000D01*
X109500000Y-94480000D01*
X109780000Y-94480000D01*
X110060000Y-94480000D01*
X110060000Y-94610000D01*
X110060000Y-94740000D01*
X110330000Y-94740000D01*
X110600000Y-94740001D01*
X110600000Y-94880001D01*
X110600001Y-95020000D01*
X110729999Y-95020000D01*
X110860000Y-95020000D01*
X110860000Y-94880000D01*
X110860000Y-94740000D01*
X110730000Y-94740001D01*
X110600000Y-94740001D01*
X110600000Y-94610000D01*
X110600000Y-94480000D01*
X110870000Y-94480000D01*
X111140000Y-94480000D01*
X111140000Y-94610000D01*
X111140000Y-94740000D01*
X111270000Y-94740000D01*
X111400000Y-94740000D01*
X111400000Y-94610000D01*
X111400000Y-94480000D01*
X111270000Y-94480000D01*
X111140000Y-94480000D01*
X111140000Y-94340000D01*
X111140000Y-94200000D01*
X110870000Y-94200000D01*
X110600000Y-94200000D01*
X110600000Y-94070000D01*
X110600000Y-93940000D01*
X110460000Y-93940000D01*
X110320000Y-93940000D01*
X110320000Y-93800000D01*
X110320000Y-93660000D01*
X110190000Y-93660000D01*
X110060000Y-93660000D01*
X110060000Y-93930001D01*
X110059999Y-94200000D01*
X109919999Y-94200000D01*
X109780000Y-94199999D01*
X109780000Y-94070001D01*
X109780000Y-93940000D01*
X109640000Y-93940000D01*
X109500000Y-93940000D01*
X109500000Y-93670000D01*
X109500000Y-93400000D01*
X109640000Y-93400000D01*
X109780000Y-93400000D01*
X109780000Y-93260000D01*
X109780000Y-93120000D01*
X109640000Y-93120000D01*
X109500000Y-93120000D01*
X109500000Y-92990000D01*
X109500000Y-92859999D01*
X109780000Y-92859999D01*
X110060000Y-92859999D01*
X110060000Y-93130000D01*
X110060000Y-93400000D01*
X110190000Y-93400000D01*
X110320000Y-93400000D01*
X110320000Y-93530000D01*
X110320000Y-93660000D01*
X110460000Y-93660000D01*
X110600000Y-93660000D01*
X110600001Y-93390000D01*
X110600000Y-93120001D01*
X110460000Y-93120001D01*
X110320000Y-93120000D01*
X110860000Y-93120000D01*
X110860000Y-93530000D01*
X110860000Y-93940000D01*
X111270000Y-93940000D01*
X111680000Y-93940000D01*
X111680000Y-93530000D01*
X111680000Y-93120000D01*
X111270000Y-93120000D01*
X110860000Y-93120000D01*
X110320000Y-93120000D01*
X110320000Y-92990000D01*
X110320000Y-92860000D01*
X110190000Y-92860000D01*
X110060000Y-92859999D01*
X110059999Y-92450000D01*
X110060000Y-92040000D01*
X110190000Y-92040000D01*
X110320000Y-92040000D01*
X110320000Y-92450000D01*
X110320000Y-92860000D01*
X110590000Y-92860000D01*
X110860000Y-92860000D01*
X110860000Y-92720000D01*
X110860000Y-92580000D01*
X110730000Y-92580000D01*
X110600000Y-92580000D01*
X110600000Y-92450000D01*
X110600000Y-92320000D01*
X110870000Y-92320000D01*
X111140000Y-92320000D01*
X111140000Y-92180000D01*
X111140000Y-92040000D01*
X111270000Y-92040000D01*
X111400000Y-92040000D01*
X111400000Y-92180000D01*
X111400000Y-92320000D01*
X111540000Y-92320000D01*
X111680000Y-92320000D01*
X111679999Y-92450000D01*
X111679999Y-92580000D01*
X111810000Y-92580000D01*
X111940000Y-92580000D01*
X111940000Y-92450000D01*
X111940000Y-92320000D01*
X112080000Y-92320000D01*
X112220000Y-92320000D01*
X112220000Y-92180000D01*
X112220000Y-92040000D01*
X112350000Y-92040000D01*
X112480000Y-92040000D01*
X112480000Y-92310000D01*
X112480000Y-92580000D01*
X112210000Y-92580000D01*
X111940000Y-92580000D01*
X111940000Y-92720000D01*
X111940000Y-92860000D01*
X112080000Y-92860000D01*
X112220000Y-92860000D01*
X112220000Y-92990000D01*
X112220000Y-93120001D01*
X112080000Y-93120001D01*
X111940001Y-93120000D01*
X111940001Y-93390000D01*
X111940001Y-93530000D01*
X111940000Y-93660000D01*
G37*
G36*
X114380000Y-93930000D02*
G01*
X114380000Y-94200000D01*
X113970000Y-94200000D01*
X113560000Y-94200000D01*
X113560000Y-94340000D01*
X113560000Y-94480000D01*
X113430000Y-94480000D01*
X113300000Y-94480000D01*
X113300000Y-94610000D01*
X113300000Y-94890000D01*
X113300000Y-95300000D01*
X113160000Y-95300000D01*
X113020000Y-95300000D01*
X113020000Y-95160000D01*
X113020000Y-95020000D01*
X112890000Y-95020000D01*
X112760000Y-95020000D01*
X112760000Y-94880000D01*
X112760000Y-94740000D01*
X112620000Y-94740000D01*
X112480000Y-94740000D01*
X112480000Y-94880000D01*
X112480000Y-95020000D01*
X112349999Y-95020000D01*
X112220001Y-95020000D01*
X112220000Y-94880001D01*
X112220000Y-94740001D01*
X112080000Y-94740001D01*
X111940001Y-94740000D01*
X111940000Y-94610000D01*
X111940000Y-94480000D01*
X112080000Y-94480000D01*
X112220000Y-94480000D01*
X112220000Y-94610000D01*
X112220000Y-94740001D01*
X112350000Y-94740001D01*
X112480000Y-94740000D01*
X112480000Y-94480000D01*
X112760000Y-94480000D01*
X112760000Y-94610000D01*
X112760000Y-94740000D01*
X112890000Y-94740000D01*
X113020000Y-94740000D01*
X113020000Y-94610000D01*
X113020000Y-94480000D01*
X112890000Y-94480000D01*
X112760000Y-94480000D01*
X112480000Y-94480000D01*
X112480000Y-94470000D01*
X112480000Y-94200000D01*
X112750001Y-94200000D01*
X113020000Y-94199999D01*
X113020000Y-94339999D01*
X113020000Y-94480000D01*
X113160000Y-94480000D01*
X113300000Y-94480000D01*
X113299999Y-94210000D01*
X113300000Y-93940000D01*
X113160000Y-93940000D01*
X113020000Y-93940000D01*
X113020000Y-93670000D01*
X113020000Y-93660000D01*
X113300000Y-93660000D01*
X113300000Y-93800000D01*
X113300000Y-93940000D01*
X113700000Y-93940000D01*
X114100000Y-93940000D01*
X114100000Y-93800000D01*
X114100000Y-93660000D01*
X113700000Y-93660000D01*
X113300000Y-93660000D01*
X113020000Y-93660000D01*
X113020000Y-93400000D01*
X113160000Y-93400000D01*
X113300000Y-93400000D01*
X113300000Y-93260000D01*
X113300000Y-93120000D01*
X113430000Y-93120000D01*
X113560001Y-93120000D01*
X113560001Y-93260000D01*
X113560001Y-93400000D01*
X113969999Y-93400000D01*
X114380000Y-93400000D01*
X114380000Y-93260000D01*
X114380000Y-93120000D01*
X113970000Y-93120001D01*
X113560001Y-93120000D01*
X113560000Y-92850000D01*
X113560000Y-92580000D01*
X113430000Y-92580000D01*
X113299999Y-92580000D01*
X113299999Y-92720000D01*
X113300000Y-92859999D01*
X113160000Y-92859999D01*
X113020000Y-92859999D01*
X113020000Y-92719999D01*
X113020000Y-92579999D01*
X112890001Y-92580000D01*
X112760000Y-92580000D01*
X112760000Y-92450000D01*
X112760000Y-92320000D01*
X113300000Y-92320000D01*
X113840000Y-92320000D01*
X113840000Y-92450000D01*
X113840000Y-92580000D01*
X113970000Y-92580000D01*
X114100000Y-92580000D01*
X114100000Y-92720000D01*
X114100000Y-92860000D01*
X114240000Y-92860000D01*
X114380000Y-92860000D01*
X114380000Y-92590000D01*
X114380000Y-92320000D01*
X114510000Y-92320000D01*
X114640000Y-92320000D01*
X114640000Y-92180000D01*
X114640000Y-92040000D01*
X114780000Y-92040000D01*
X114920000Y-92040000D01*
X114920000Y-91910000D01*
X114920000Y-91780000D01*
X114240000Y-91780000D01*
X113560001Y-91780000D01*
X113560001Y-91910000D01*
X113560000Y-92040000D01*
X113430000Y-92040000D01*
X113300000Y-92040000D01*
X113300000Y-91910000D01*
X113300000Y-91780000D01*
X113160000Y-91780000D01*
X113020000Y-91780000D01*
X113020000Y-91910000D01*
X113020000Y-92040000D01*
X112750000Y-92040000D01*
X112480000Y-92040000D01*
X112480000Y-91640000D01*
X112480000Y-91240000D01*
X112350000Y-91240000D01*
X112220000Y-91240000D01*
X112220000Y-91640001D01*
X112220000Y-92040000D01*
X112080000Y-92040000D01*
X111940000Y-92040000D01*
X111940001Y-91910000D01*
X111940001Y-91780000D01*
X111670000Y-91780000D01*
X111400000Y-91780000D01*
X111400000Y-91640000D01*
X111400000Y-91500000D01*
X111670000Y-91500000D01*
X111940001Y-91500000D01*
X111940000Y-91370000D01*
X111940000Y-91240000D01*
X111670000Y-91240000D01*
X111400000Y-91239999D01*
X111400000Y-91099999D01*
X111400000Y-90959999D01*
X111270001Y-90960000D01*
X111140000Y-90960000D01*
X111140000Y-91100000D01*
X111140000Y-91240000D01*
X111000000Y-91240000D01*
X110860000Y-91240000D01*
X110860000Y-91370000D01*
X110860000Y-91500000D01*
X110730000Y-91500001D01*
X110600000Y-91500001D01*
X110600000Y-91640001D01*
X110600001Y-91780000D01*
X110330000Y-91780000D01*
X110060000Y-91780000D01*
X110060000Y-91910000D01*
X110060000Y-92040000D01*
X109920000Y-92040000D01*
X109780000Y-92040000D01*
X109780000Y-91910000D01*
X109780000Y-91780000D01*
X109640000Y-91780000D01*
X109500000Y-91780000D01*
X109500000Y-91510000D01*
X109500000Y-91239999D01*
X109640000Y-91239999D01*
X109780000Y-91239999D01*
X109780000Y-91510000D01*
X109780000Y-91780000D01*
X109920000Y-91780000D01*
X110060000Y-91780000D01*
X110060000Y-91640000D01*
X110060000Y-91500000D01*
X110190000Y-91500000D01*
X110320000Y-91500000D01*
X110320000Y-91370000D01*
X110320000Y-91240000D01*
X110190000Y-91240000D01*
X110060000Y-91239999D01*
X110059999Y-91100000D01*
X110059999Y-90960000D01*
X110190000Y-90960000D01*
X110320000Y-90960000D01*
X110320000Y-90690000D01*
X110320000Y-90420000D01*
X110460000Y-90420000D01*
X110600000Y-90420000D01*
X110600000Y-90560000D01*
X110600000Y-90700000D01*
X110870000Y-90700000D01*
X111140000Y-90700000D01*
X111140000Y-90560000D01*
X111140000Y-90420000D01*
X111000000Y-90420000D01*
X110860000Y-90420000D01*
X110860000Y-90150000D01*
X110860000Y-89880000D01*
X111000000Y-89880000D01*
X111140000Y-89880000D01*
X111140000Y-89750000D01*
X111140000Y-89620000D01*
X111000000Y-89620000D01*
X110860000Y-89620000D01*
X110860000Y-89480000D01*
X110860000Y-89340000D01*
X111130000Y-89340000D01*
X111399999Y-89340000D01*
X111400000Y-90020000D01*
X111400000Y-90700000D01*
X111670000Y-90700000D01*
X111940000Y-90700000D01*
X111940000Y-90830000D01*
X111940000Y-90960000D01*
X112350000Y-90960000D01*
X112760000Y-90960000D01*
X112760000Y-90830000D01*
X112760000Y-90700000D01*
X112890000Y-90700000D01*
X113020000Y-90700000D01*
X113020000Y-90830001D01*
X113019999Y-90960000D01*
X113159999Y-90960000D01*
X113299999Y-90960000D01*
X113300000Y-90690001D01*
X113300000Y-90420000D01*
X113570000Y-90420000D01*
X113840000Y-90420000D01*
X113840000Y-90690000D01*
X113840000Y-90960000D01*
X113700000Y-90960000D01*
X113560000Y-90960000D01*
X113560000Y-91100000D01*
X113560000Y-91240000D01*
X113430000Y-91240000D01*
X113299999Y-91240000D01*
X113300000Y-91510000D01*
X113300000Y-91780000D01*
X113430000Y-91780000D01*
X113560001Y-91780000D01*
X113560000Y-91510000D01*
X113560000Y-91240000D01*
X113830000Y-91240000D01*
X114100000Y-91240000D01*
X114100000Y-91370000D01*
X114100000Y-91500000D01*
X114240000Y-91500000D01*
X114380000Y-91500000D01*
X114380000Y-91370000D01*
X114380000Y-91240000D01*
X114650000Y-91239999D01*
X114920000Y-91240000D01*
X114920000Y-91510000D01*
X114920000Y-91780000D01*
X115050000Y-91780000D01*
X115180001Y-91780000D01*
X115180001Y-91640000D01*
X115180000Y-91500001D01*
X115320000Y-91500001D01*
X115460000Y-91500001D01*
X115460000Y-91640001D01*
X115460000Y-91780001D01*
X115589999Y-91780000D01*
X115720000Y-91780000D01*
X115720000Y-91640000D01*
X115720000Y-91500000D01*
X115860000Y-91500000D01*
X116000000Y-91500000D01*
X116000000Y-91640000D01*
X116000000Y-91780000D01*
X116270000Y-91780000D01*
X116540000Y-91780000D01*
X116540000Y-91910000D01*
X116540000Y-92040000D01*
X116670000Y-92040000D01*
X116800000Y-92040000D01*
X116800000Y-92310000D01*
X116800000Y-92580000D01*
X116940000Y-92580000D01*
X117080000Y-92580000D01*
X117080000Y-92450000D01*
X117080000Y-92320000D01*
X117210000Y-92320000D01*
X117340000Y-92320000D01*
X117340000Y-92450000D01*
X117340000Y-92580000D01*
X117210000Y-92580000D01*
X117080000Y-92580000D01*
X117080000Y-92850000D01*
X117080000Y-93120001D01*
X117209999Y-93120000D01*
X117340000Y-93120000D01*
X117340000Y-93390000D01*
X117340000Y-93660000D01*
X117210000Y-93660000D01*
X117080000Y-93660000D01*
X117080000Y-93389999D01*
X117080000Y-93120001D01*
X116940000Y-93120001D01*
X116800000Y-93120001D01*
X116800001Y-93260000D01*
X116800001Y-93400000D01*
X116670000Y-93400000D01*
X116540000Y-93400000D01*
X116540000Y-93670000D01*
X116540000Y-93940000D01*
X116940000Y-93940000D01*
X117340000Y-93940000D01*
X117340000Y-94210000D01*
X117340000Y-94480000D01*
X117210000Y-94480000D01*
X117080000Y-94480000D01*
X117080000Y-94610000D01*
X117080000Y-94750000D01*
X117080000Y-95020001D01*
X116940001Y-95020000D01*
X116800001Y-95020000D01*
X116800001Y-95160000D01*
X116800001Y-95300000D01*
X116670000Y-95300000D01*
X116540000Y-95300000D01*
X116540000Y-95160000D01*
X116540000Y-95020000D01*
X116400000Y-95020000D01*
X116260000Y-95020000D01*
X116260000Y-95160000D01*
X116260000Y-95300000D01*
X115990000Y-95300000D01*
X115720000Y-95300000D01*
X115720000Y-95160000D01*
X115720000Y-95020000D01*
X115589999Y-95020000D01*
X115460001Y-95020000D01*
X115460000Y-94610000D01*
X115460000Y-94480000D01*
X115720000Y-94480000D01*
X115720000Y-94750000D01*
X115720000Y-95020000D01*
X115860000Y-95020000D01*
X116000000Y-95020000D01*
X116000000Y-94880000D01*
X116000000Y-94740000D01*
X116270000Y-94740000D01*
X116540000Y-94740000D01*
X116540000Y-94880000D01*
X116540000Y-95020000D01*
X116670000Y-95020000D01*
X116800001Y-95020000D01*
X116800000Y-94610000D01*
X116800000Y-94200000D01*
X116670000Y-94200000D01*
X116540000Y-94200000D01*
X116540000Y-94340000D01*
X116540000Y-94480000D01*
X116130000Y-94480000D01*
X115720000Y-94480000D01*
X115460000Y-94480000D01*
X115460000Y-94200000D01*
X115860000Y-94200000D01*
X116259999Y-94200000D01*
X116260000Y-93800000D01*
X116260000Y-93400000D01*
X116130000Y-93400000D01*
X116000000Y-93400000D01*
X116000000Y-93530000D01*
X116000000Y-93660000D01*
X115730000Y-93660000D01*
X115460000Y-93660000D01*
X115460000Y-93529999D01*
X115460000Y-93400001D01*
X115320001Y-93400000D01*
X115180001Y-93400000D01*
X115180001Y-93260000D01*
X115180000Y-93120001D01*
X115320000Y-93120001D01*
X115460000Y-93120001D01*
X115460000Y-93260001D01*
X115460000Y-93400001D01*
X115589999Y-93400000D01*
X115720000Y-93400000D01*
X115720000Y-93260000D01*
X115720000Y-93120000D01*
X115590000Y-93120001D01*
X115460000Y-93120001D01*
X115460000Y-92990000D01*
X115460000Y-92860000D01*
X115590000Y-92860000D01*
X115720000Y-92860000D01*
X115720000Y-92990000D01*
X115720000Y-93120000D01*
X115990000Y-93120000D01*
X116260000Y-93120000D01*
X116260000Y-93260000D01*
X116260000Y-93400000D01*
X116400000Y-93400000D01*
X116540000Y-93400000D01*
X116540000Y-93130000D01*
X116540000Y-92860000D01*
X116670000Y-92860000D01*
X116800000Y-92860000D01*
X116800000Y-92720000D01*
X116800000Y-92580000D01*
X116670000Y-92580000D01*
X116540000Y-92580000D01*
X116540000Y-92450000D01*
X116540000Y-92320000D01*
X116400000Y-92320000D01*
X116260000Y-92320000D01*
X116260000Y-92180000D01*
X116260000Y-92040000D01*
X116130000Y-92040000D01*
X116000000Y-92040000D01*
X116000000Y-92180000D01*
X116000000Y-92320000D01*
X115860000Y-92320000D01*
X115720000Y-92320000D01*
X115720000Y-92180000D01*
X115720000Y-92040000D01*
X115590000Y-92040000D01*
X115460000Y-92040000D01*
X115460000Y-91909999D01*
X115460000Y-91780001D01*
X115320001Y-91780000D01*
X115180001Y-91780000D01*
X115180000Y-92049999D01*
X115180000Y-92320000D01*
X115050000Y-92320000D01*
X114920000Y-92320000D01*
X114920000Y-92720000D01*
X114920000Y-93120000D01*
X114780000Y-93120000D01*
X114640000Y-93120000D01*
X114640000Y-93390000D01*
X114640000Y-93660000D01*
X114510000Y-93660000D01*
X114380000Y-93660000D01*
X114380000Y-93800000D01*
X114380000Y-93930000D01*
G37*
G36*
X110190000Y-94200000D02*
G01*
X110320000Y-94200000D01*
X110320000Y-94340000D01*
X110320000Y-94480000D01*
X110190000Y-94480000D01*
X110060000Y-94480000D01*
X110059999Y-94340000D01*
X110059999Y-94200000D01*
X110190000Y-94200000D01*
G37*
G36*
X115320000Y-92320000D02*
G01*
X115460000Y-92320000D01*
X115460000Y-92450000D01*
X115460000Y-92580000D01*
X115320000Y-92580000D01*
X115180000Y-92580000D01*
X115180000Y-92450000D01*
X115180000Y-92320000D01*
X115320000Y-92320000D01*
G37*
G36*
X109780000Y-90290000D02*
G01*
X109780000Y-90420000D01*
X109920000Y-90420000D01*
X110060000Y-90420000D01*
X110060000Y-90290000D01*
X110060000Y-90160000D01*
X110190000Y-90160000D01*
X110320000Y-90160000D01*
X110320000Y-90290000D01*
X110320000Y-90420000D01*
X110190000Y-90420000D01*
X110060000Y-90420000D01*
X110060000Y-90560000D01*
X110060000Y-90700000D01*
X109920000Y-90700000D01*
X109780000Y-90700000D01*
X109780000Y-90560000D01*
X109780000Y-90420000D01*
X109640000Y-90420000D01*
X109500000Y-90420000D01*
X109500000Y-90290000D01*
X109500000Y-90160000D01*
X109640000Y-90160000D01*
X109780000Y-90160000D01*
X109780000Y-90290000D01*
G37*
G36*
X110060000Y-90020000D02*
G01*
X110060000Y-90160000D01*
X109920000Y-90160000D01*
X109780000Y-90160000D01*
X109780000Y-90020000D01*
X109780000Y-89880000D01*
X109920000Y-89880000D01*
X110060000Y-89880000D01*
X110060000Y-90020000D01*
G37*
G36*
X111680000Y-88400000D02*
G01*
X111680000Y-88540000D01*
X111540000Y-88540000D01*
X111400000Y-88540000D01*
X111400000Y-88670000D01*
X111400000Y-88800000D01*
X111130000Y-88800000D01*
X110860000Y-88800000D01*
X110860000Y-89070000D01*
X110860000Y-89340000D01*
X110730000Y-89340000D01*
X110600000Y-89340000D01*
X110600000Y-89750000D01*
X110600001Y-90160000D01*
X110460001Y-90160000D01*
X110320000Y-90160000D01*
X110320000Y-90020000D01*
X110320000Y-89880000D01*
X110190000Y-89880000D01*
X110060000Y-89880000D01*
X110060000Y-89750000D01*
X110060000Y-89619999D01*
X109920000Y-89619999D01*
X109780000Y-89619999D01*
X109780000Y-89479999D01*
X109780000Y-89339999D01*
X109640001Y-89340000D01*
X109500001Y-89340000D01*
X109500000Y-89070000D01*
X109500000Y-88800000D01*
X109640000Y-88800000D01*
X109780000Y-88800000D01*
X109780000Y-88940000D01*
X109780000Y-89080000D01*
X109920000Y-89080000D01*
X110060000Y-89080000D01*
X110060000Y-89210001D01*
X110059999Y-89340000D01*
X110330000Y-89340000D01*
X110600000Y-89340000D01*
X110600000Y-89210000D01*
X110600000Y-89080000D01*
X110460000Y-89080000D01*
X110320000Y-89080000D01*
X110320000Y-88810000D01*
X110320000Y-88540000D01*
X110190000Y-88540000D01*
X110060000Y-88540000D01*
X110060000Y-88270000D01*
X110059999Y-88000000D01*
X110190000Y-88000000D01*
X110320000Y-88000000D01*
X110320000Y-88130000D01*
X110320000Y-88260000D01*
X110460000Y-88260000D01*
X110600000Y-88260000D01*
X110600000Y-88400001D01*
X110600000Y-88540001D01*
X110869999Y-88540000D01*
X111140000Y-88540000D01*
X111140000Y-88400000D01*
X111140000Y-88260000D01*
X110870000Y-88260000D01*
X110600000Y-88260000D01*
X110600000Y-87990000D01*
X110600000Y-87720000D01*
X110730000Y-87720000D01*
X110860000Y-87720000D01*
X110860000Y-87860000D01*
X110860000Y-88000000D01*
X111000000Y-88000000D01*
X111140000Y-88000000D01*
X111140000Y-88130000D01*
X111140000Y-88260000D01*
X111270000Y-88260000D01*
X111400000Y-88260000D01*
X111400000Y-88130000D01*
X111400000Y-87999999D01*
X111270001Y-88000000D01*
X111140000Y-88000000D01*
X111140000Y-87860000D01*
X111140000Y-87720000D01*
X111410001Y-87720000D01*
X111679999Y-87720000D01*
X111680000Y-88130000D01*
X111680000Y-88400000D01*
G37*
G36*
X110600000Y-87590000D02*
G01*
X110600000Y-87720000D01*
X110330000Y-87720000D01*
X110059999Y-87720000D01*
X110060000Y-87590001D01*
X110060000Y-87460000D01*
X110330000Y-87460000D01*
X110600000Y-87460000D01*
X110600000Y-87590000D01*
G37*
%TD*%
M02*
