%TF.GenerationSoftware,KiCad,Pcbnew,9.0.4*%
%TF.CreationDate,2025-10-07T17:21:45+07:00*%
%TF.ProjectId,duodrive,64756f64-7269-4766-952e-6b696361645f,rev?*%
%TF.SameCoordinates,Original*%
%TF.FileFunction,Soldermask,Bot*%
%TF.FilePolarity,Negative*%
%FSLAX46Y46*%
G04 Gerber Fmt 4.6, Leading zero omitted, Abs format (unit mm)*
G04 Created by KiCad (PCBNEW 9.0.4) date 2025-10-07 17:21:45*
%MOMM*%
%LPD*%
G01*
G04 APERTURE LIST*
G04 Aperture macros list*
%AMRoundRect*
0 Rectangle with rounded corners*
0 $1 Rounding radius*
0 $2 $3 $4 $5 $6 $7 $8 $9 X,Y pos of 4 corners*
0 Add a 4 corners polygon primitive as box body*
4,1,4,$2,$3,$4,$5,$6,$7,$8,$9,$2,$3,0*
0 Add four circle primitives for the rounded corners*
1,1,$1+$1,$2,$3*
1,1,$1+$1,$4,$5*
1,1,$1+$1,$6,$7*
1,1,$1+$1,$8,$9*
0 Add four rect primitives between the rounded corners*
20,1,$1+$1,$2,$3,$4,$5,0*
20,1,$1+$1,$4,$5,$6,$7,0*
20,1,$1+$1,$6,$7,$8,$9,0*
20,1,$1+$1,$8,$9,$2,$3,0*%
G04 Aperture macros list end*
%ADD10C,2.000000*%
%ADD11C,1.000000*%
%ADD12C,3.200000*%
%ADD13RoundRect,0.250000X0.750000X0.750000X-0.750000X0.750000X-0.750000X-0.750000X0.750000X-0.750000X0*%
%ADD14C,2.000000*%
%ADD15RoundRect,0.250001X0.949999X0.949999X-0.949999X0.949999X-0.949999X-0.949999X0.949999X-0.949999X0*%
%ADD16C,2.400000*%
%ADD17RoundRect,0.250000X0.725000X-0.600000X0.725000X0.600000X-0.725000X0.600000X-0.725000X-0.600000X0*%
%ADD18O,1.950000X1.700000*%
%ADD19RoundRect,1.500000X-1.500000X1.500000X-1.500000X-1.500000X1.500000X-1.500000X1.500000X1.500000X0*%
%ADD20C,6.000000*%
%ADD21R,1.700000X1.700000*%
%ADD22C,1.700000*%
%ADD23C,1.000000*%
G04 APERTURE END LIST*
D10*
X118900000Y-59350000D02*
X119600000Y-78600000D01*
X110000000Y-59500000D02*
X109600000Y-78600000D01*
X106500000Y-55700000D02*
X105000000Y-67100000D01*
D11*
X131000000Y-77000000D02*
X130000000Y-78000000D01*
X129000000Y-77000000D02*
X128000000Y-78000000D01*
D10*
X122500000Y-55300000D02*
X124500000Y-67100000D01*
D11*
X102500000Y-77000000D02*
X101500000Y-78000000D01*
X100500000Y-78500000D02*
X99500000Y-79500000D01*
D10*
X114500000Y-54700000D02*
X110000000Y-59500000D01*
D11*
X102500000Y-78500000D02*
X101500000Y-79500000D01*
X129000000Y-78500000D02*
X128000000Y-79500000D01*
D10*
X114300000Y-54550000D02*
X118900000Y-59350000D01*
X99900000Y-55300000D02*
X96000000Y-67100000D01*
D11*
X100500000Y-77000000D02*
X99500000Y-78000000D01*
X131000000Y-78500000D02*
X130000000Y-79500000D01*
D10*
X129100000Y-55300000D02*
X133500000Y-67100000D01*
D12*
%TO.C,H3*%
X93000000Y-122000000D03*
%TD*%
D13*
%TO.C,C1*%
X116867676Y-72000000D03*
D14*
X111867676Y-72000000D03*
%TD*%
D12*
%TO.C,H4*%
X136000000Y-122000000D03*
%TD*%
D15*
%TO.C,J9*%
X104950000Y-51432500D03*
D16*
X101450000Y-51432500D03*
%TD*%
D15*
%TO.C,J10*%
X127550000Y-51432500D03*
D16*
X124050000Y-51432500D03*
%TD*%
D17*
%TO.C,J8*%
X106800000Y-122000000D03*
D18*
X106800000Y-119500000D03*
X106800000Y-117000000D03*
X106800000Y-114500000D03*
%TD*%
D12*
%TO.C,H2*%
X136000000Y-53000000D03*
%TD*%
D13*
%TO.C,C3*%
X116867676Y-82900000D03*
D14*
X111867676Y-82900000D03*
%TD*%
D19*
%TO.C,J1*%
X114500000Y-54700000D03*
D20*
X114500000Y-61900000D03*
%TD*%
D21*
%TO.C,J3*%
X112000000Y-102525000D03*
D22*
X112000000Y-99985000D03*
X112000000Y-97445001D03*
%TD*%
D23*
%TO.C,TP1*%
X98500000Y-93800000D03*
%TD*%
D17*
%TO.C,J7*%
X99675000Y-122000000D03*
D18*
X99675000Y-119500000D03*
X99675000Y-117000000D03*
X99675000Y-114500000D03*
%TD*%
D12*
%TO.C,H1*%
X93000000Y-53000000D03*
%TD*%
D21*
%TO.C,J2*%
X130590001Y-111840000D03*
D22*
X130590001Y-114380000D03*
X128050001Y-111840000D03*
X128050001Y-114380000D03*
X125510002Y-111840000D03*
X125510001Y-114380000D03*
X122970001Y-111840000D03*
X122970001Y-114380000D03*
X120430001Y-111840000D03*
X120430001Y-114380000D03*
X117890001Y-111840000D03*
X117890001Y-114380000D03*
X115350001Y-111840000D03*
X115350001Y-114380000D03*
X112810000Y-111840000D03*
X112810001Y-114380000D03*
%TD*%
D21*
%TO.C,JP2*%
X93800000Y-116340000D03*
D22*
X93800000Y-113800000D03*
X93800000Y-111260001D03*
%TD*%
D23*
%TO.C,TP2*%
X91200000Y-107600000D03*
%TD*%
G36*
X98543039Y-76619685D02*
G01*
X98588794Y-76672489D01*
X98600000Y-76724000D01*
X98600000Y-80126000D01*
X98580315Y-80193039D01*
X98527511Y-80238794D01*
X98476000Y-80250000D01*
X94424000Y-80250000D01*
X94356961Y-80230315D01*
X94311206Y-80177511D01*
X94300000Y-80126000D01*
X94300000Y-76724000D01*
X94319685Y-76656961D01*
X94372489Y-76611206D01*
X94424000Y-76600000D01*
X98476000Y-76600000D01*
X98543039Y-76619685D01*
G37*
G36*
X109243039Y-50217208D02*
G01*
X109288794Y-50270012D01*
X109300000Y-50321523D01*
X109300000Y-56073523D01*
X109280315Y-56140562D01*
X109227511Y-56186317D01*
X109176000Y-56197523D01*
X103824000Y-56197523D01*
X103756961Y-56177838D01*
X103711206Y-56125034D01*
X103700000Y-56073523D01*
X103700000Y-50321523D01*
X103719685Y-50254484D01*
X103772489Y-50208729D01*
X103824000Y-50197523D01*
X109176000Y-50197523D01*
X109243039Y-50217208D01*
G37*
G36*
X131843039Y-50219685D02*
G01*
X131888794Y-50272489D01*
X131900000Y-50324000D01*
X131900000Y-56076000D01*
X131880315Y-56143039D01*
X131827511Y-56188794D01*
X131776000Y-56200000D01*
X126424000Y-56200000D01*
X126356961Y-56180315D01*
X126311206Y-56127511D01*
X126300000Y-56076000D01*
X126300000Y-50324000D01*
X126319685Y-50256961D01*
X126372489Y-50211206D01*
X126424000Y-50200000D01*
X131776000Y-50200000D01*
X131843039Y-50219685D01*
G37*
G36*
X125243039Y-50219685D02*
G01*
X125288794Y-50272489D01*
X125300000Y-50324000D01*
X125300000Y-56076000D01*
X125280315Y-56143039D01*
X125227511Y-56188794D01*
X125176000Y-56200000D01*
X119824000Y-56200000D01*
X119756961Y-56180315D01*
X119711206Y-56127511D01*
X119700000Y-56076000D01*
X119700000Y-50324000D01*
X119719685Y-50256961D01*
X119772489Y-50211206D01*
X119824000Y-50200000D01*
X125176000Y-50200000D01*
X125243039Y-50219685D01*
G37*
G36*
X136043039Y-76619685D02*
G01*
X136088794Y-76672489D01*
X136100000Y-76724000D01*
X136100000Y-80126000D01*
X136080315Y-80193039D01*
X136027511Y-80238794D01*
X135976000Y-80250000D01*
X131924000Y-80250000D01*
X131856961Y-80230315D01*
X131811206Y-80177511D01*
X131800000Y-80126000D01*
X131800000Y-76724000D01*
X131819685Y-76656961D01*
X131872489Y-76611206D01*
X131924000Y-76600000D01*
X135976000Y-76600000D01*
X136043039Y-76619685D01*
G37*
G36*
X102643039Y-50219685D02*
G01*
X102688794Y-50272489D01*
X102700000Y-50324000D01*
X102700000Y-56076000D01*
X102680315Y-56143039D01*
X102627511Y-56188794D01*
X102576000Y-56200000D01*
X97224000Y-56200000D01*
X97156961Y-56180315D01*
X97111206Y-56127511D01*
X97100000Y-56076000D01*
X97100000Y-50324000D01*
X97119685Y-50256961D01*
X97172489Y-50211206D01*
X97224000Y-50200000D01*
X102576000Y-50200000D01*
X102643039Y-50219685D01*
G37*
G36*
X107543039Y-76619685D02*
G01*
X107588794Y-76672489D01*
X107600000Y-76724000D01*
X107600000Y-80126000D01*
X107580315Y-80193039D01*
X107527511Y-80238794D01*
X107476000Y-80250000D01*
X103424000Y-80250000D01*
X103356961Y-80230315D01*
X103311206Y-80177511D01*
X103300000Y-80126000D01*
X103300000Y-76724000D01*
X103319685Y-76656961D01*
X103372489Y-76611206D01*
X103424000Y-76600000D01*
X107476000Y-76600000D01*
X107543039Y-76619685D01*
G37*
G36*
X127143039Y-76619685D02*
G01*
X127188794Y-76672489D01*
X127200000Y-76724000D01*
X127200000Y-80126000D01*
X127180315Y-80193039D01*
X127127511Y-80238794D01*
X127076000Y-80250000D01*
X123024000Y-80250000D01*
X122956961Y-80230315D01*
X122911206Y-80177511D01*
X122900000Y-80126000D01*
X122900000Y-76724000D01*
X122919685Y-76656961D01*
X122972489Y-76611206D01*
X123024000Y-76600000D01*
X127076000Y-76600000D01*
X127143039Y-76619685D01*
G37*
G36*
X135243039Y-66119685D02*
G01*
X135288794Y-66172489D01*
X135300000Y-66224000D01*
X135300000Y-69576000D01*
X135280315Y-69643039D01*
X135227511Y-69688794D01*
X135176000Y-69700000D01*
X131824000Y-69700000D01*
X131756961Y-69680315D01*
X131711206Y-69627511D01*
X131700000Y-69576000D01*
X131700000Y-66224000D01*
X131719685Y-66156961D01*
X131772489Y-66111206D01*
X131824000Y-66100000D01*
X135176000Y-66100000D01*
X135243039Y-66119685D01*
G37*
G36*
X126243039Y-66119685D02*
G01*
X126288794Y-66172489D01*
X126300000Y-66224000D01*
X126300000Y-69576000D01*
X126280315Y-69643039D01*
X126227511Y-69688794D01*
X126176000Y-69700000D01*
X122824000Y-69700000D01*
X122756961Y-69680315D01*
X122711206Y-69627511D01*
X122700000Y-69576000D01*
X122700000Y-66224000D01*
X122719685Y-66156961D01*
X122772489Y-66111206D01*
X122824000Y-66100000D01*
X126176000Y-66100000D01*
X126243039Y-66119685D01*
G37*
G36*
X97743039Y-66119685D02*
G01*
X97788794Y-66172489D01*
X97800000Y-66224000D01*
X97800000Y-69576000D01*
X97780315Y-69643039D01*
X97727511Y-69688794D01*
X97676000Y-69700000D01*
X94324000Y-69700000D01*
X94256961Y-69680315D01*
X94211206Y-69627511D01*
X94200000Y-69576000D01*
X94200000Y-66224000D01*
X94219685Y-66156961D01*
X94272489Y-66111206D01*
X94324000Y-66100000D01*
X97676000Y-66100000D01*
X97743039Y-66119685D01*
G37*
G36*
X106743039Y-66119685D02*
G01*
X106788794Y-66172489D01*
X106800000Y-66224000D01*
X106800000Y-69576000D01*
X106780315Y-69643039D01*
X106727511Y-69688794D01*
X106676000Y-69700000D01*
X103324000Y-69700000D01*
X103256961Y-69680315D01*
X103211206Y-69627511D01*
X103200000Y-69576000D01*
X103200000Y-66224000D01*
X103219685Y-66156961D01*
X103272489Y-66111206D01*
X103324000Y-66100000D01*
X106676000Y-66100000D01*
X106743039Y-66119685D01*
G37*
M02*
