%TF.GenerationSoftware,KiCad,Pcbnew,9.0.4*%
%TF.CreationDate,2025-10-07T20:55:13+07:00*%
%TF.ProjectId,duodrive,64756f64-7269-4766-952e-6b696361645f,rev?*%
%TF.SameCoordinates,Original*%
%TF.FileFunction,Legend,Top*%
%TF.FilePolarity,Positive*%
%FSLAX46Y46*%
G04 Gerber Fmt 4.6, Leading zero omitted, Abs format (unit mm)*
G04 Created by KiCad (PCBNEW 9.0.4) date 2025-10-07 20:55:13*
%MOMM*%
%LPD*%
G01*
G04 APERTURE LIST*
G04 Aperture macros list*
%AMRoundRect*
0 Rectangle with rounded corners*
0 $1 Rounding radius*
0 $2 $3 $4 $5 $6 $7 $8 $9 X,Y pos of 4 corners*
0 Add a 4 corners polygon primitive as box body*
4,1,4,$2,$3,$4,$5,$6,$7,$8,$9,$2,$3,0*
0 Add four circle primitives for the rounded corners*
1,1,$1+$1,$2,$3*
1,1,$1+$1,$4,$5*
1,1,$1+$1,$6,$7*
1,1,$1+$1,$8,$9*
0 Add four rect primitives between the rounded corners*
20,1,$1+$1,$2,$3,$4,$5,0*
20,1,$1+$1,$4,$5,$6,$7,0*
20,1,$1+$1,$6,$7,$8,$9,0*
20,1,$1+$1,$8,$9,$2,$3,0*%
G04 Aperture macros list end*
%ADD10C,0.200000*%
%ADD11C,0.100000*%
%ADD12C,0.400000*%
%ADD13C,0.120000*%
%ADD14C,2.000000*%
%ADD15RoundRect,0.218750X-0.256250X0.218750X-0.256250X-0.218750X0.256250X-0.218750X0.256250X0.218750X0*%
%ADD16RoundRect,0.225000X0.250000X-0.225000X0.250000X0.225000X-0.250000X0.225000X-0.250000X-0.225000X0*%
%ADD17RoundRect,0.225000X-0.250000X0.225000X-0.250000X-0.225000X0.250000X-0.225000X0.250000X0.225000X0*%
%ADD18RoundRect,0.250000X0.350000X-0.850000X0.350000X0.850000X-0.350000X0.850000X-0.350000X-0.850000X0*%
%ADD19RoundRect,0.249997X2.650003X-2.950003X2.650003X2.950003X-2.650003X2.950003X-2.650003X-2.950003X0*%
%ADD20RoundRect,0.150000X-0.150000X0.825000X-0.150000X-0.825000X0.150000X-0.825000X0.150000X0.825000X0*%
%ADD21RoundRect,0.250000X-0.450000X0.262500X-0.450000X-0.262500X0.450000X-0.262500X0.450000X0.262500X0*%
%ADD22C,3.200000*%
%ADD23RoundRect,0.225000X0.225000X0.250000X-0.225000X0.250000X-0.225000X-0.250000X0.225000X-0.250000X0*%
%ADD24RoundRect,0.250000X0.750000X0.750000X-0.750000X0.750000X-0.750000X-0.750000X0.750000X-0.750000X0*%
%ADD25C,2.000000*%
%ADD26RoundRect,0.225000X-0.225000X-0.250000X0.225000X-0.250000X0.225000X0.250000X-0.225000X0.250000X0*%
%ADD27RoundRect,0.250001X0.949999X0.949999X-0.949999X0.949999X-0.949999X-0.949999X0.949999X-0.949999X0*%
%ADD28C,2.400000*%
%ADD29RoundRect,0.250000X0.250000X0.475000X-0.250000X0.475000X-0.250000X-0.475000X0.250000X-0.475000X0*%
%ADD30RoundRect,0.062500X0.187500X0.062500X-0.187500X0.062500X-0.187500X-0.062500X0.187500X-0.062500X0*%
%ADD31R,0.900000X1.600000*%
%ADD32RoundRect,0.243750X0.456250X-0.243750X0.456250X0.243750X-0.456250X0.243750X-0.456250X-0.243750X0*%
%ADD33RoundRect,0.218750X0.256250X-0.218750X0.256250X0.218750X-0.256250X0.218750X-0.256250X-0.218750X0*%
%ADD34RoundRect,0.200000X0.200000X0.275000X-0.200000X0.275000X-0.200000X-0.275000X0.200000X-0.275000X0*%
%ADD35RoundRect,0.250000X0.325000X0.650000X-0.325000X0.650000X-0.325000X-0.650000X0.325000X-0.650000X0*%
%ADD36RoundRect,0.200000X0.275000X-0.200000X0.275000X0.200000X-0.275000X0.200000X-0.275000X-0.200000X0*%
%ADD37RoundRect,0.250000X-0.475000X0.250000X-0.475000X-0.250000X0.475000X-0.250000X0.475000X0.250000X0*%
%ADD38RoundRect,0.250000X0.725000X-0.600000X0.725000X0.600000X-0.725000X0.600000X-0.725000X-0.600000X0*%
%ADD39O,1.950000X1.700000*%
%ADD40R,1.900000X0.400000*%
%ADD41RoundRect,0.150000X-0.825000X-0.150000X0.825000X-0.150000X0.825000X0.150000X-0.825000X0.150000X0*%
%ADD42RoundRect,0.243750X-0.243750X-0.456250X0.243750X-0.456250X0.243750X0.456250X-0.243750X0.456250X0*%
%ADD43RoundRect,0.250000X-0.250000X-0.475000X0.250000X-0.475000X0.250000X0.475000X-0.250000X0.475000X0*%
%ADD44RoundRect,0.200000X-0.275000X0.200000X-0.275000X-0.200000X0.275000X-0.200000X0.275000X0.200000X0*%
%ADD45RoundRect,0.075000X-0.700000X-0.075000X0.700000X-0.075000X0.700000X0.075000X-0.700000X0.075000X0*%
%ADD46RoundRect,0.075000X-0.075000X-0.700000X0.075000X-0.700000X0.075000X0.700000X-0.075000X0.700000X0*%
%ADD47RoundRect,1.500000X-1.500000X1.500000X-1.500000X-1.500000X1.500000X-1.500000X1.500000X1.500000X0*%
%ADD48C,6.000000*%
%ADD49R,1.700000X1.700000*%
%ADD50C,1.700000*%
%ADD51RoundRect,0.200000X-0.200000X-0.275000X0.200000X-0.275000X0.200000X0.275000X-0.200000X0.275000X0*%
%ADD52R,2.800000X0.850000*%
%ADD53RoundRect,0.250000X-0.650000X0.325000X-0.650000X-0.325000X0.650000X-0.325000X0.650000X0.325000X0*%
%ADD54RoundRect,0.050000X-0.100000X0.285000X-0.100000X-0.285000X0.100000X-0.285000X0.100000X0.285000X0*%
%ADD55C,1.000000*%
%ADD56RoundRect,0.250000X0.300000X1.600000X-0.300000X1.600000X-0.300000X-1.600000X0.300000X-1.600000X0*%
%ADD57RoundRect,0.150000X0.512500X0.150000X-0.512500X0.150000X-0.512500X-0.150000X0.512500X-0.150000X0*%
G04 APERTURE END LIST*
D10*
G36*
X114432789Y-97789738D02*
G01*
X114141285Y-97789738D01*
X114141285Y-97596236D01*
X114138260Y-97520838D01*
X114132370Y-97493166D01*
X114119077Y-97478662D01*
X114093353Y-97473199D01*
X114072199Y-97476290D01*
X114058410Y-97484481D01*
X114049877Y-97497684D01*
X114043678Y-97529405D01*
X114040657Y-97605762D01*
X114040657Y-98119160D01*
X114043668Y-98192432D01*
X114049877Y-98223208D01*
X114064194Y-98240617D01*
X114091338Y-98246960D01*
X114117319Y-98240656D01*
X114131699Y-98222964D01*
X114138084Y-98190664D01*
X114141285Y-98107559D01*
X114141285Y-97965593D01*
X114432789Y-97965593D01*
X114432789Y-98010839D01*
X114429265Y-98127752D01*
X114420386Y-98206410D01*
X114408365Y-98256486D01*
X114386747Y-98301094D01*
X114351681Y-98343349D01*
X114300471Y-98383797D01*
X114242474Y-98413401D01*
X114174628Y-98431913D01*
X114094757Y-98438447D01*
X114011145Y-98432766D01*
X113942205Y-98416962D01*
X113885380Y-98392346D01*
X113835645Y-98356846D01*
X113799768Y-98314635D01*
X113776020Y-98264790D01*
X113762483Y-98209301D01*
X113752901Y-98129972D01*
X113749214Y-98020303D01*
X113749214Y-97697109D01*
X113751615Y-97584886D01*
X113757397Y-97517285D01*
X113766281Y-97478474D01*
X113782453Y-97440019D01*
X113806612Y-97401453D01*
X113836749Y-97367532D01*
X113874219Y-97338313D01*
X113920062Y-97313709D01*
X113969349Y-97296318D01*
X114024535Y-97285486D01*
X114086575Y-97281713D01*
X114170473Y-97287766D01*
X114239877Y-97304657D01*
X114297356Y-97331111D01*
X114348201Y-97368280D01*
X114383846Y-97409114D01*
X114406655Y-97454148D01*
X114419763Y-97504516D01*
X114429146Y-97578453D01*
X114432789Y-97682882D01*
X114432789Y-97789738D01*
G37*
G36*
X114823639Y-97305160D02*
G01*
X114823639Y-98188342D01*
X114998517Y-98188342D01*
X114998517Y-98415000D01*
X114532135Y-98415000D01*
X114532135Y-97305160D01*
X114823639Y-97305160D01*
G37*
G36*
X115754387Y-97305160D02*
G01*
X115589157Y-97806468D01*
X115770019Y-98415000D01*
X115468745Y-98415000D01*
X115354134Y-97938970D01*
X115356088Y-98415000D01*
X115064584Y-98415000D01*
X115064584Y-97305160D01*
X115356088Y-97305160D01*
X115354134Y-97736798D01*
X115480408Y-97305160D01*
X115754387Y-97305160D01*
G37*
D11*
G36*
X121880966Y-93618136D02*
G01*
X121588607Y-95830000D01*
X120715561Y-95830000D01*
X120383635Y-93618136D01*
X120990212Y-93618136D01*
X121083655Y-94497487D01*
X121140544Y-95171154D01*
X121188150Y-94544785D01*
X121234822Y-94029685D01*
X121274389Y-93618136D01*
X121880966Y-93618136D01*
G37*
G36*
X123153838Y-95454842D02*
G01*
X123153838Y-95830000D01*
X121939218Y-95830000D01*
X121939218Y-95517369D01*
X122422239Y-94714453D01*
X122580600Y-94427801D01*
X122642588Y-94284064D01*
X122673670Y-94178196D01*
X122682449Y-94101493D01*
X122673667Y-94018404D01*
X122651674Y-93967281D01*
X122613934Y-93934501D01*
X122558129Y-93922951D01*
X122502744Y-93935500D01*
X122464462Y-93972044D01*
X122443456Y-94033660D01*
X122433810Y-94166584D01*
X122433810Y-94376266D01*
X121939218Y-94376266D01*
X121939218Y-94295422D01*
X121944648Y-94119022D01*
X121958269Y-94001720D01*
X121990486Y-93897137D01*
X122052547Y-93790083D01*
X122107615Y-93726355D01*
X122172382Y-93674064D01*
X122247941Y-93632547D01*
X122329833Y-93603786D01*
X122425173Y-93585526D01*
X122536270Y-93579057D01*
X122701885Y-93590871D01*
X122836520Y-93623580D01*
X122945832Y-93674353D01*
X123034281Y-93742212D01*
X123107997Y-93829031D01*
X123160174Y-93925374D01*
X123192031Y-94033188D01*
X123203053Y-94155226D01*
X123193164Y-94279885D01*
X123162314Y-94413027D01*
X123108042Y-94556517D01*
X123031409Y-94702715D01*
X122861587Y-94980733D01*
X122548604Y-95454842D01*
X123153838Y-95454842D01*
G37*
G36*
X123736235Y-95376685D02*
G01*
X123736235Y-95830000D01*
X123319556Y-95830000D01*
X123319556Y-95376685D01*
X123736235Y-95376685D01*
G37*
G36*
X124735676Y-93618136D02*
G01*
X124735676Y-95830000D01*
X124183810Y-95830000D01*
X124183810Y-94642369D01*
X124179479Y-94409559D01*
X124171475Y-94333157D01*
X124149083Y-94288219D01*
X124103820Y-94254511D01*
X124031583Y-94236519D01*
X123857257Y-94227766D01*
X123802547Y-94227766D01*
X123802547Y-93971800D01*
X123961965Y-93927753D01*
X124100130Y-93869905D01*
X124219641Y-93799036D01*
X124322611Y-93715285D01*
X124410589Y-93618136D01*
X124735676Y-93618136D01*
G37*
D10*
G36*
X114166403Y-99311233D02*
G01*
X114256995Y-99324394D01*
X114304330Y-99340882D01*
X114341213Y-99362113D01*
X114369469Y-99387775D01*
X114401057Y-99434793D01*
X114417707Y-99485900D01*
X114424291Y-99552695D01*
X114427355Y-99697170D01*
X114427355Y-100084478D01*
X114422844Y-100221448D01*
X114413189Y-100284269D01*
X114393338Y-100330139D01*
X114363790Y-100363647D01*
X114325281Y-100387633D01*
X114276962Y-100403703D01*
X114218958Y-100411676D01*
X114122112Y-100415000D01*
X113757397Y-100415000D01*
X113757397Y-100223513D01*
X114048900Y-100223513D01*
X114087546Y-100219940D01*
X114109976Y-100211277D01*
X114121868Y-100199211D01*
X114131049Y-100164253D01*
X114135851Y-100064206D01*
X114135851Y-99632629D01*
X114134293Y-99564065D01*
X114131149Y-99536641D01*
X114123396Y-99518458D01*
X114110022Y-99506294D01*
X114089841Y-99499630D01*
X114048900Y-99496646D01*
X114048900Y-100223513D01*
X113757397Y-100223513D01*
X113757397Y-99305160D01*
X113974528Y-99305160D01*
X114166403Y-99311233D01*
G37*
G36*
X114822662Y-99305160D02*
G01*
X114822662Y-100415000D01*
X114531158Y-100415000D01*
X114531158Y-99305160D01*
X114822662Y-99305160D01*
G37*
G36*
X115318964Y-99285133D02*
G01*
X115372142Y-99295013D01*
X115420385Y-99310961D01*
X115465198Y-99333983D01*
X115503102Y-99363132D01*
X115534874Y-99398705D01*
X115560135Y-99439285D01*
X115577183Y-99481474D01*
X115586470Y-99525833D01*
X115592178Y-99607273D01*
X115594713Y-99765436D01*
X115594713Y-99954724D01*
X115592310Y-100109413D01*
X115586837Y-100191273D01*
X115577837Y-100236391D01*
X115561428Y-100278696D01*
X115537316Y-100318768D01*
X115506684Y-100353983D01*
X115469493Y-100383503D01*
X115424904Y-100407550D01*
X115376783Y-100424280D01*
X115322198Y-100434771D01*
X115260101Y-100438447D01*
X115201234Y-100435034D01*
X115148056Y-100425174D01*
X115099816Y-100409260D01*
X115054994Y-100386209D01*
X115017069Y-100357059D01*
X114985266Y-100321516D01*
X114960033Y-100280901D01*
X114942984Y-100238691D01*
X114933670Y-100194326D01*
X114928005Y-100112886D01*
X114925488Y-99954724D01*
X114925488Y-99765436D01*
X114927891Y-99610746D01*
X114929184Y-99591413D01*
X115216931Y-99591413D01*
X115216931Y-100107559D01*
X115219532Y-100194577D01*
X115224502Y-100225284D01*
X115236568Y-100241265D01*
X115259368Y-100246960D01*
X115282486Y-100240574D01*
X115295272Y-100221864D01*
X115300547Y-100187910D01*
X115303210Y-100099377D01*
X115303210Y-99591413D01*
X115300469Y-99521483D01*
X115294966Y-99493899D01*
X115282767Y-99478563D01*
X115261444Y-99473199D01*
X115242315Y-99477445D01*
X115228410Y-99489930D01*
X115220932Y-99515050D01*
X115216931Y-99591413D01*
X114929184Y-99591413D01*
X114933365Y-99528886D01*
X114942364Y-99483769D01*
X114958773Y-99441464D01*
X114982885Y-99401392D01*
X115013519Y-99366181D01*
X115050710Y-99336682D01*
X115095298Y-99312670D01*
X115143421Y-99295907D01*
X115198006Y-99285395D01*
X115260101Y-99281713D01*
X115318964Y-99285133D01*
G37*
G36*
X114421188Y-101815488D02*
G01*
X114129684Y-101815488D01*
X114129684Y-101713517D01*
X114126992Y-101627848D01*
X114121746Y-101596219D01*
X114108965Y-101579270D01*
X114084499Y-101573199D01*
X114062715Y-101578350D01*
X114049816Y-101592922D01*
X114043779Y-101620509D01*
X114040657Y-101696847D01*
X114040657Y-102227404D01*
X114043646Y-102295063D01*
X114049877Y-102324185D01*
X114063399Y-102341092D01*
X114086514Y-102346960D01*
X114112082Y-102340368D01*
X114127608Y-102321132D01*
X114135059Y-102288875D01*
X114138538Y-102218367D01*
X114138538Y-102089040D01*
X114080469Y-102089040D01*
X114080469Y-101917093D01*
X114421188Y-101917093D01*
X114421188Y-102515000D01*
X114236784Y-102515000D01*
X114211078Y-102438551D01*
X114178917Y-102481218D01*
X114138415Y-102512435D01*
X114090279Y-102531677D01*
X114031926Y-102538447D01*
X113984234Y-102534493D01*
X113938914Y-102522742D01*
X113895333Y-102503032D01*
X113855267Y-102476698D01*
X113823381Y-102447465D01*
X113798674Y-102415226D01*
X113771671Y-102361203D01*
X113757397Y-102305561D01*
X113751616Y-102241059D01*
X113749214Y-102133981D01*
X113749214Y-101805291D01*
X113754363Y-101657344D01*
X113766372Y-101574359D01*
X113783741Y-101529777D01*
X113815559Y-101485906D01*
X113865047Y-101441919D01*
X113906920Y-101416485D01*
X113955196Y-101397713D01*
X114010988Y-101385884D01*
X114075645Y-101381713D01*
X114158862Y-101388055D01*
X114228279Y-101405845D01*
X114286366Y-101433920D01*
X114337899Y-101472824D01*
X114373460Y-101513977D01*
X114395725Y-101557873D01*
X114408699Y-101606655D01*
X114417744Y-101674344D01*
X114421188Y-101765785D01*
X114421188Y-101815488D01*
G37*
G36*
X115175226Y-101405160D02*
G01*
X115175226Y-102515000D01*
X114919748Y-102515000D01*
X114771615Y-102010272D01*
X114773569Y-102515000D01*
X114529204Y-102515000D01*
X114529204Y-101405160D01*
X114773019Y-101405160D01*
X114932815Y-101905064D01*
X114930861Y-101405160D01*
X115175226Y-101405160D01*
G37*
G36*
X115696340Y-101411233D02*
G01*
X115786933Y-101424394D01*
X115834267Y-101440882D01*
X115871150Y-101462113D01*
X115899406Y-101487775D01*
X115930994Y-101534793D01*
X115947644Y-101585900D01*
X115954228Y-101652695D01*
X115957292Y-101797170D01*
X115957292Y-102184478D01*
X115952781Y-102321448D01*
X115943126Y-102384269D01*
X115923275Y-102430139D01*
X115893728Y-102463647D01*
X115855218Y-102487633D01*
X115806899Y-102503703D01*
X115748895Y-102511676D01*
X115652049Y-102515000D01*
X115287334Y-102515000D01*
X115287334Y-102323513D01*
X115578838Y-102323513D01*
X115617483Y-102319940D01*
X115639913Y-102311277D01*
X115651805Y-102299211D01*
X115660986Y-102264253D01*
X115665788Y-102164206D01*
X115665788Y-101732629D01*
X115664230Y-101664065D01*
X115661086Y-101636641D01*
X115653333Y-101618458D01*
X115639959Y-101606294D01*
X115619778Y-101599630D01*
X115578838Y-101596646D01*
X115578838Y-102323513D01*
X115287334Y-102323513D01*
X115287334Y-101405160D01*
X115504466Y-101405160D01*
X115696340Y-101411233D01*
G37*
D12*
G36*
X111643663Y-88233699D02*
G01*
X111915440Y-88273183D01*
X112057444Y-88322648D01*
X112168093Y-88386339D01*
X112252861Y-88463326D01*
X112347624Y-88604379D01*
X112397575Y-88757700D01*
X112417326Y-88958086D01*
X112426518Y-89391510D01*
X112426518Y-90553435D01*
X112412986Y-90964345D01*
X112384020Y-91152807D01*
X112324468Y-91290418D01*
X112235825Y-91390943D01*
X112120296Y-91462901D01*
X111975340Y-91511111D01*
X111801328Y-91535029D01*
X111510791Y-91545000D01*
X110416644Y-91545000D01*
X110416644Y-90970540D01*
X111291155Y-90970540D01*
X111407092Y-90959822D01*
X111474381Y-90933832D01*
X111510058Y-90897634D01*
X111537600Y-90792761D01*
X111552007Y-90492618D01*
X111552007Y-89197887D01*
X111547332Y-88992197D01*
X111537902Y-88909924D01*
X111514642Y-88855376D01*
X111474521Y-88818883D01*
X111413976Y-88798892D01*
X111291155Y-88789940D01*
X111291155Y-90970540D01*
X110416644Y-90970540D01*
X110416644Y-88215481D01*
X111068039Y-88215481D01*
X111643663Y-88233699D01*
G37*
G36*
X114710799Y-88215481D02*
G01*
X114710799Y-90439129D01*
X114703213Y-90788816D01*
X114686070Y-90970540D01*
X114639495Y-91120822D01*
X114539341Y-91286163D01*
X114450307Y-91384802D01*
X114344049Y-91466448D01*
X114218406Y-91531810D01*
X114083289Y-91576864D01*
X113928226Y-91605319D01*
X113750009Y-91615341D01*
X113553008Y-91603644D01*
X113378295Y-91570116D01*
X113222811Y-91516423D01*
X113077504Y-91440287D01*
X112965078Y-91354250D01*
X112880443Y-91258503D01*
X112789285Y-91093042D01*
X112746171Y-90923096D01*
X112732292Y-90699385D01*
X112725655Y-90184872D01*
X112725655Y-88215481D01*
X113600166Y-88215481D01*
X113600166Y-90708590D01*
X113607664Y-90905367D01*
X113622697Y-90982814D01*
X113656136Y-91026014D01*
X113713189Y-91040882D01*
X113778084Y-91024229D01*
X113813573Y-90976769D01*
X113828677Y-90890337D01*
X113836288Y-90665725D01*
X113836288Y-88215481D01*
X114710799Y-88215481D01*
G37*
G36*
X116188716Y-88155399D02*
G01*
X116348251Y-88185039D01*
X116492978Y-88232883D01*
X116627418Y-88301949D01*
X116741128Y-88389396D01*
X116836445Y-88496116D01*
X116912229Y-88617857D01*
X116963371Y-88744422D01*
X116991234Y-88877501D01*
X117008357Y-89121821D01*
X117015963Y-89596308D01*
X117015963Y-90164173D01*
X117008754Y-90628240D01*
X116992333Y-90873820D01*
X116965335Y-91009173D01*
X116916107Y-91136088D01*
X116843772Y-91256304D01*
X116751875Y-91361951D01*
X116640303Y-91450509D01*
X116506534Y-91522651D01*
X116362173Y-91572840D01*
X116198417Y-91604315D01*
X116012125Y-91615341D01*
X115835527Y-91605102D01*
X115675991Y-91575522D01*
X115531272Y-91527780D01*
X115396805Y-91458628D01*
X115283030Y-91371178D01*
X115187622Y-91264548D01*
X115111921Y-91142705D01*
X115060776Y-91016075D01*
X115032834Y-90882979D01*
X115015837Y-90638660D01*
X115008287Y-90164173D01*
X115008287Y-89596308D01*
X115015496Y-89132240D01*
X115019375Y-89074239D01*
X115882615Y-89074239D01*
X115882615Y-90622677D01*
X115890420Y-90883733D01*
X115905330Y-90975853D01*
X115941528Y-91023795D01*
X116009927Y-91040882D01*
X116079282Y-91021724D01*
X116117638Y-90965594D01*
X116133464Y-90863730D01*
X116141452Y-90598131D01*
X116141452Y-89074239D01*
X116133229Y-88864449D01*
X116116722Y-88781697D01*
X116080124Y-88735691D01*
X116016155Y-88719598D01*
X115958767Y-88732336D01*
X115917054Y-88769790D01*
X115894619Y-88845150D01*
X115882615Y-89074239D01*
X115019375Y-89074239D01*
X115031918Y-88886660D01*
X115058916Y-88751307D01*
X115108143Y-88624392D01*
X115180478Y-88504176D01*
X115272382Y-88398544D01*
X115383953Y-88310048D01*
X115517717Y-88238012D01*
X115662087Y-88187722D01*
X115825842Y-88156186D01*
X116012125Y-88145139D01*
X116188716Y-88155399D01*
G37*
D11*
G36*
X111399272Y-92699220D02*
G01*
X111462186Y-92719799D01*
X111503803Y-92757573D01*
X111527765Y-92813588D01*
X111537459Y-92897264D01*
X111542237Y-93103749D01*
X111542237Y-94398480D01*
X111527513Y-94700246D01*
X111499189Y-94807159D01*
X111462316Y-94844304D01*
X111391927Y-94871146D01*
X111269662Y-94882264D01*
X111269662Y-92689940D01*
X111399272Y-92699220D01*
G37*
G36*
X113726700Y-92704678D02*
G01*
X113796842Y-92739216D01*
X113836127Y-92805345D01*
X113853262Y-92946395D01*
X113853262Y-93129028D01*
X113843690Y-93277291D01*
X113821903Y-93354313D01*
X113794827Y-93388597D01*
X113724275Y-93416527D01*
X113590946Y-93428531D01*
X113590946Y-92689940D01*
X113726700Y-92704678D01*
G37*
G36*
X120222996Y-95778333D02*
G01*
X110073541Y-95778333D01*
X110073541Y-94882264D01*
X110406874Y-94882264D01*
X110406874Y-95445000D01*
X111495159Y-95445000D01*
X111785100Y-95435074D01*
X111958243Y-95411294D01*
X112102122Y-95363466D01*
X112216347Y-95292409D01*
X112303914Y-95193067D01*
X112362893Y-95056653D01*
X112391591Y-94869417D01*
X112405024Y-94459296D01*
X112405024Y-93428531D01*
X112728158Y-93428531D01*
X112728158Y-95445000D01*
X113590946Y-95445000D01*
X113590946Y-93944371D01*
X113708937Y-93954007D01*
X113776292Y-93977041D01*
X113811131Y-94008119D01*
X113839070Y-94097451D01*
X113853262Y-94339129D01*
X113853262Y-95445000D01*
X114654501Y-95445000D01*
X114987893Y-95445000D01*
X115850680Y-95445000D01*
X115850680Y-92127205D01*
X115998692Y-92127205D01*
X116496581Y-95445000D01*
X117806150Y-95445000D01*
X118393615Y-95445000D01*
X119889663Y-95445000D01*
X119889663Y-94776751D01*
X119256403Y-94776751D01*
X119256403Y-94049884D01*
X119795325Y-94049884D01*
X119795325Y-93416807D01*
X119256403Y-93416807D01*
X119256403Y-92795453D01*
X119832144Y-92795453D01*
X119832144Y-92127205D01*
X118393615Y-92127205D01*
X118393615Y-95445000D01*
X117806150Y-95445000D01*
X118244688Y-92127205D01*
X117334822Y-92127205D01*
X117275471Y-92744528D01*
X117205464Y-93517178D01*
X117134054Y-94456732D01*
X117048721Y-93446230D01*
X116908557Y-92127205D01*
X115998692Y-92127205D01*
X115850680Y-92127205D01*
X114987893Y-92127205D01*
X114987893Y-95445000D01*
X114654501Y-95445000D01*
X114654501Y-94567740D01*
X114647042Y-94202790D01*
X114632886Y-94075713D01*
X114597692Y-93987253D01*
X114523343Y-93879525D01*
X114456388Y-93820022D01*
X114346846Y-93762540D01*
X114179143Y-93708982D01*
X114362253Y-93674950D01*
X114482746Y-93620280D01*
X114558147Y-93549614D01*
X114605079Y-93453806D01*
X114640195Y-93290556D01*
X114654501Y-93030476D01*
X114635930Y-92749537D01*
X114587730Y-92550997D01*
X114518214Y-92414434D01*
X114416686Y-92300274D01*
X114300208Y-92221409D01*
X114165771Y-92174282D01*
X113900629Y-92142068D01*
X113338887Y-92127205D01*
X112728158Y-92127205D01*
X112728158Y-93428531D01*
X112405024Y-93428531D01*
X112405024Y-93297372D01*
X112395880Y-92864553D01*
X112376265Y-92665211D01*
X112326686Y-92512816D01*
X112232833Y-92373035D01*
X112148853Y-92296822D01*
X112039007Y-92233676D01*
X111897793Y-92184541D01*
X111627239Y-92145323D01*
X111052408Y-92127205D01*
X110406874Y-92127205D01*
X110406874Y-94882264D01*
X110073541Y-94882264D01*
X110073541Y-91793872D01*
X120222996Y-91793872D01*
X120222996Y-95778333D01*
G37*
D13*
%TO.C,D2*%
X106365000Y-89815000D02*
X106365000Y-92100000D01*
X107835000Y-89815000D02*
X106365000Y-89815000D01*
X107835000Y-92100000D02*
X107835000Y-89815000D01*
%TO.C,C6*%
X131590000Y-105640581D02*
X131590000Y-105359419D01*
X132610000Y-105640581D02*
X132610000Y-105359419D01*
%TO.C,C12*%
X108390000Y-108659420D02*
X108390000Y-108940580D01*
X109410000Y-108659420D02*
X109410000Y-108940580D01*
%TO.C,Q2*%
X92270000Y-70850000D02*
X92270000Y-77270000D01*
X92270000Y-77270000D02*
X92540000Y-77270000D01*
X99170000Y-70850000D02*
X99170000Y-77270000D01*
X99170000Y-77270000D02*
X98900000Y-77270000D01*
X92580000Y-79000000D02*
X92110000Y-79340000D01*
X92110000Y-78660000D01*
X92580000Y-79000000D01*
G36*
X92580000Y-79000000D02*
G01*
X92110000Y-79340000D01*
X92110000Y-78660000D01*
X92580000Y-79000000D01*
G37*
%TO.C,U7*%
X135295000Y-87540000D02*
X134965000Y-87300000D01*
X135295000Y-87060000D01*
X135295000Y-87540000D01*
G36*
X135295000Y-87540000D02*
G01*
X134965000Y-87300000D01*
X135295000Y-87060000D01*
X135295000Y-87540000D01*
G37*
%TO.C,R18*%
X124765000Y-82372936D02*
X124765000Y-82827064D01*
X126235000Y-82372936D02*
X126235000Y-82827064D01*
%TO.C,C10*%
X113740581Y-108490000D02*
X113459419Y-108490000D01*
X113740581Y-109510000D02*
X113459419Y-109510000D01*
%TO.C,C1*%
X109287676Y-72599000D02*
X109287676Y-71401000D01*
X109327676Y-72862000D02*
X109327676Y-71138000D01*
X109367676Y-73062000D02*
X109367676Y-70938000D01*
X109407676Y-73230000D02*
X109407676Y-70770000D01*
X109447676Y-73377000D02*
X109447676Y-70623000D01*
X109487676Y-73509000D02*
X109487676Y-70491000D01*
X109527676Y-73630000D02*
X109527676Y-70370000D01*
X109567676Y-73742000D02*
X109567676Y-70258000D01*
X109607676Y-73846000D02*
X109607676Y-70154000D01*
X109647676Y-73944000D02*
X109647676Y-70056000D01*
X109687676Y-74037000D02*
X109687676Y-69963000D01*
X109727676Y-74124000D02*
X109727676Y-69876000D01*
X109767676Y-74208000D02*
X109767676Y-69792000D01*
X109807676Y-74288000D02*
X109807676Y-69712000D01*
X109847676Y-74365000D02*
X109847676Y-69635000D01*
X109887676Y-74439000D02*
X109887676Y-69561000D01*
X109927676Y-74510000D02*
X109927676Y-69490000D01*
X109967676Y-74578000D02*
X109967676Y-69422000D01*
X110007676Y-74644000D02*
X110007676Y-69356000D01*
X110047676Y-74708000D02*
X110047676Y-69292000D01*
X110087676Y-74770000D02*
X110087676Y-69230000D01*
X110127676Y-74830000D02*
X110127676Y-69170000D01*
X110167676Y-74888000D02*
X110167676Y-69112000D01*
X110207676Y-74945000D02*
X110207676Y-69055000D01*
X110247676Y-75000000D02*
X110247676Y-69000000D01*
X110287676Y-75053000D02*
X110287676Y-68947000D01*
X110327676Y-75105000D02*
X110327676Y-68895000D01*
X110367676Y-75156000D02*
X110367676Y-68844000D01*
X110407676Y-75205000D02*
X110407676Y-68795000D01*
X110447676Y-75254000D02*
X110447676Y-68746000D01*
X110487676Y-75301000D02*
X110487676Y-68699000D01*
X110527676Y-75347000D02*
X110527676Y-68653000D01*
X110567676Y-75391000D02*
X110567676Y-68609000D01*
X110607676Y-75435000D02*
X110607676Y-68565000D01*
X110647676Y-70760000D02*
X110647676Y-68522000D01*
X110647676Y-75478000D02*
X110647676Y-73240000D01*
X110687676Y-70760000D02*
X110687676Y-68480000D01*
X110687676Y-75520000D02*
X110687676Y-73240000D01*
X110727676Y-70760000D02*
X110727676Y-68439000D01*
X110727676Y-75561000D02*
X110727676Y-73240000D01*
X110767676Y-70760000D02*
X110767676Y-68399000D01*
X110767676Y-75601000D02*
X110767676Y-73240000D01*
X110807676Y-70760000D02*
X110807676Y-68360000D01*
X110807676Y-75640000D02*
X110807676Y-73240000D01*
X110847676Y-70760000D02*
X110847676Y-68322000D01*
X110847676Y-75678000D02*
X110847676Y-73240000D01*
X110887676Y-70760000D02*
X110887676Y-68284000D01*
X110887676Y-75716000D02*
X110887676Y-73240000D01*
X110927676Y-70760000D02*
X110927676Y-68248000D01*
X110927676Y-75752000D02*
X110927676Y-73240000D01*
X110967676Y-70760000D02*
X110967676Y-68212000D01*
X110967676Y-75788000D02*
X110967676Y-73240000D01*
X111007676Y-70760000D02*
X111007676Y-68177000D01*
X111007676Y-75823000D02*
X111007676Y-73240000D01*
X111047676Y-70760000D02*
X111047676Y-68142000D01*
X111047676Y-75858000D02*
X111047676Y-73240000D01*
X111087676Y-70760000D02*
X111087676Y-68109000D01*
X111087676Y-75891000D02*
X111087676Y-73240000D01*
X111127676Y-70760000D02*
X111127676Y-68076000D01*
X111127676Y-75924000D02*
X111127676Y-73240000D01*
X111167676Y-70760000D02*
X111167676Y-68043000D01*
X111167676Y-75957000D02*
X111167676Y-73240000D01*
X111207676Y-70760000D02*
X111207676Y-68012000D01*
X111207676Y-75988000D02*
X111207676Y-73240000D01*
X111247676Y-70760000D02*
X111247676Y-67980000D01*
X111247676Y-76020000D02*
X111247676Y-73240000D01*
X111287676Y-70760000D02*
X111287676Y-67950000D01*
X111287676Y-76050000D02*
X111287676Y-73240000D01*
X111327676Y-70760000D02*
X111327676Y-67920000D01*
X111327676Y-76080000D02*
X111327676Y-73240000D01*
X111367676Y-70760000D02*
X111367676Y-67891000D01*
X111367676Y-76109000D02*
X111367676Y-73240000D01*
X111407676Y-70760000D02*
X111407676Y-67862000D01*
X111407676Y-76138000D02*
X111407676Y-73240000D01*
X111447676Y-70760000D02*
X111447676Y-67834000D01*
X111447676Y-76166000D02*
X111447676Y-73240000D01*
X111487676Y-70760000D02*
X111487676Y-67807000D01*
X111487676Y-76193000D02*
X111487676Y-73240000D01*
X111527676Y-70760000D02*
X111527676Y-67780000D01*
X111527676Y-76220000D02*
X111527676Y-73240000D01*
X111567676Y-70760000D02*
X111567676Y-67753000D01*
X111567676Y-76247000D02*
X111567676Y-73240000D01*
X111607676Y-70760000D02*
X111607676Y-67728000D01*
X111607676Y-76272000D02*
X111607676Y-73240000D01*
X111647676Y-70760000D02*
X111647676Y-67702000D01*
X111647676Y-76298000D02*
X111647676Y-73240000D01*
X111687676Y-70760000D02*
X111687676Y-67677000D01*
X111687676Y-76323000D02*
X111687676Y-73240000D01*
X111727676Y-70760000D02*
X111727676Y-67653000D01*
X111727676Y-76347000D02*
X111727676Y-73240000D01*
X111767676Y-70760000D02*
X111767676Y-67629000D01*
X111767676Y-76371000D02*
X111767676Y-73240000D01*
X111807676Y-70760000D02*
X111807676Y-67606000D01*
X111807676Y-76394000D02*
X111807676Y-73240000D01*
X111847676Y-70760000D02*
X111847676Y-67583000D01*
X111847676Y-76417000D02*
X111847676Y-73240000D01*
X111887676Y-70760000D02*
X111887676Y-67561000D01*
X111887676Y-76439000D02*
X111887676Y-73240000D01*
X111927676Y-70760000D02*
X111927676Y-67539000D01*
X111927676Y-76461000D02*
X111927676Y-73240000D01*
X111967676Y-70760000D02*
X111967676Y-67517000D01*
X111967676Y-76483000D02*
X111967676Y-73240000D01*
X112007676Y-70760000D02*
X112007676Y-67496000D01*
X112007676Y-76504000D02*
X112007676Y-73240000D01*
X112047676Y-70760000D02*
X112047676Y-67476000D01*
X112047676Y-76524000D02*
X112047676Y-73240000D01*
X112087676Y-70760000D02*
X112087676Y-67456000D01*
X112087676Y-76544000D02*
X112087676Y-73240000D01*
X112127676Y-70760000D02*
X112127676Y-67436000D01*
X112127676Y-76564000D02*
X112127676Y-73240000D01*
X112167676Y-70760000D02*
X112167676Y-67417000D01*
X112167676Y-76583000D02*
X112167676Y-73240000D01*
X112207676Y-70760000D02*
X112207676Y-67398000D01*
X112207676Y-76602000D02*
X112207676Y-73240000D01*
X112247676Y-70760000D02*
X112247676Y-67380000D01*
X112247676Y-76620000D02*
X112247676Y-73240000D01*
X112287676Y-70760000D02*
X112287676Y-67362000D01*
X112287676Y-76638000D02*
X112287676Y-73240000D01*
X112327676Y-70760000D02*
X112327676Y-67344000D01*
X112327676Y-76656000D02*
X112327676Y-73240000D01*
X112367676Y-70760000D02*
X112367676Y-67327000D01*
X112367676Y-76673000D02*
X112367676Y-73240000D01*
X112407676Y-70760000D02*
X112407676Y-67310000D01*
X112407676Y-76690000D02*
X112407676Y-73240000D01*
X112447676Y-70760000D02*
X112447676Y-67294000D01*
X112447676Y-76706000D02*
X112447676Y-73240000D01*
X112487676Y-70760000D02*
X112487676Y-67278000D01*
X112487676Y-76722000D02*
X112487676Y-73240000D01*
X112527676Y-70760000D02*
X112527676Y-67262000D01*
X112527676Y-76738000D02*
X112527676Y-73240000D01*
X112567676Y-70760000D02*
X112567676Y-67247000D01*
X112567676Y-76753000D02*
X112567676Y-73240000D01*
X112607676Y-70760000D02*
X112607676Y-67232000D01*
X112607676Y-76768000D02*
X112607676Y-73240000D01*
X112647676Y-70760000D02*
X112647676Y-67218000D01*
X112647676Y-76782000D02*
X112647676Y-73240000D01*
X112687676Y-70760000D02*
X112687676Y-67203000D01*
X112687676Y-76797000D02*
X112687676Y-73240000D01*
X112727676Y-70760000D02*
X112727676Y-67190000D01*
X112727676Y-76810000D02*
X112727676Y-73240000D01*
X112767676Y-70760000D02*
X112767676Y-67176000D01*
X112767676Y-76824000D02*
X112767676Y-73240000D01*
X112807676Y-70760000D02*
X112807676Y-67163000D01*
X112807676Y-76837000D02*
X112807676Y-73240000D01*
X112847676Y-70760000D02*
X112847676Y-67151000D01*
X112847676Y-76849000D02*
X112847676Y-73240000D01*
X112887676Y-70760000D02*
X112887676Y-67139000D01*
X112887676Y-76861000D02*
X112887676Y-73240000D01*
X112927676Y-70760000D02*
X112927676Y-67127000D01*
X112927676Y-76873000D02*
X112927676Y-73240000D01*
X112967676Y-70760000D02*
X112967676Y-67115000D01*
X112967676Y-76885000D02*
X112967676Y-73240000D01*
X113007676Y-70760000D02*
X113007676Y-67104000D01*
X113007676Y-76896000D02*
X113007676Y-73240000D01*
X113047676Y-70760000D02*
X113047676Y-67093000D01*
X113047676Y-76907000D02*
X113047676Y-73240000D01*
X113087676Y-70760000D02*
X113087676Y-67083000D01*
X113087676Y-76917000D02*
X113087676Y-73240000D01*
X113127676Y-76928000D02*
X113127676Y-67072000D01*
X113167676Y-76937000D02*
X113167676Y-67063000D01*
X113207676Y-76947000D02*
X113207676Y-67053000D01*
X113247676Y-76956000D02*
X113247676Y-67044000D01*
X113287676Y-76965000D02*
X113287676Y-67035000D01*
X113327676Y-76973000D02*
X113327676Y-67027000D01*
X113367676Y-76981000D02*
X113367676Y-67019000D01*
X113407676Y-76989000D02*
X113407676Y-67011000D01*
X113447676Y-76997000D02*
X113447676Y-67003000D01*
X113487676Y-77004000D02*
X113487676Y-66996000D01*
X113527676Y-77011000D02*
X113527676Y-66989000D01*
X113567676Y-77017000D02*
X113567676Y-66983000D01*
X113607676Y-77023000D02*
X113607676Y-66977000D01*
X113647676Y-77029000D02*
X113647676Y-66971000D01*
X113687676Y-77035000D02*
X113687676Y-66965000D01*
X113727676Y-77040000D02*
X113727676Y-66960000D01*
X113767676Y-77045000D02*
X113767676Y-66955000D01*
X113807676Y-77049000D02*
X113807676Y-66951000D01*
X113847676Y-77054000D02*
X113847676Y-66946000D01*
X113887676Y-77057000D02*
X113887676Y-66943000D01*
X113927676Y-77061000D02*
X113927676Y-66939000D01*
X113967676Y-77064000D02*
X113967676Y-66936000D01*
X114007676Y-77067000D02*
X114007676Y-66933000D01*
X114047676Y-77070000D02*
X114047676Y-66930000D01*
X114087676Y-77072000D02*
X114087676Y-66928000D01*
X114127676Y-77074000D02*
X114127676Y-66926000D01*
X114167676Y-77076000D02*
X114167676Y-66924000D01*
X114207676Y-77077000D02*
X114207676Y-66923000D01*
X114247676Y-77079000D02*
X114247676Y-66921000D01*
X114287676Y-77079000D02*
X114287676Y-66921000D01*
X114327676Y-77080000D02*
X114327676Y-66920000D01*
X114367676Y-77080000D02*
X114367676Y-66920000D01*
X119347322Y-75375000D02*
X119347322Y-74375000D01*
X119847322Y-74875000D02*
X118847322Y-74875000D01*
X119487676Y-72000000D02*
G75*
G02*
X109247676Y-72000000I-5120000J0D01*
G01*
X109247676Y-72000000D02*
G75*
G02*
X119487676Y-72000000I5120000J0D01*
G01*
%TO.C,U5*%
X106295000Y-87540000D02*
X105965000Y-87300000D01*
X106295000Y-87060000D01*
X106295000Y-87540000D01*
G36*
X106295000Y-87540000D02*
G01*
X105965000Y-87300000D01*
X106295000Y-87060000D01*
X106295000Y-87540000D01*
G37*
%TO.C,C21*%
X95765581Y-107490000D02*
X95484419Y-107490000D01*
X95765581Y-108510000D02*
X95484419Y-108510000D01*
%TO.C,R19*%
X129965000Y-82372936D02*
X129965000Y-82827064D01*
X131435000Y-82372936D02*
X131435000Y-82827064D01*
%TO.C,C13*%
X116990000Y-106740581D02*
X116990000Y-106459419D01*
X118010000Y-106740581D02*
X118010000Y-106459419D01*
%TO.C,U2*%
X97295000Y-87540000D02*
X96965000Y-87300000D01*
X97295000Y-87060000D01*
X97295000Y-87540000D01*
G36*
X97295000Y-87540000D02*
G01*
X96965000Y-87300000D01*
X97295000Y-87060000D01*
X97295000Y-87540000D01*
G37*
%TO.C,U6*%
X126295000Y-87540000D02*
X125965000Y-87300000D01*
X126295000Y-87060000D01*
X126295000Y-87540000D01*
G36*
X126295000Y-87540000D02*
G01*
X125965000Y-87300000D01*
X126295000Y-87060000D01*
X126295000Y-87540000D01*
G37*
%TO.C,C5*%
X93959420Y-105440000D02*
X94240580Y-105440000D01*
X93959420Y-106460000D02*
X94240580Y-106460000D01*
%TO.C,C7*%
X94161252Y-84577500D02*
X93638748Y-84577500D01*
X94161252Y-86047500D02*
X93638748Y-86047500D01*
%TO.C,C4*%
X96690580Y-96540000D02*
X96409420Y-96540000D01*
X96690580Y-97560000D02*
X96409420Y-97560000D01*
%TO.C,U3*%
X123800000Y-97660001D02*
X121800000Y-97660001D01*
X123810000Y-99940001D02*
X121810000Y-99940001D01*
X124170000Y-100150001D02*
X124170000Y-99870001D01*
X124450000Y-99870001D01*
X124170000Y-100150001D01*
G36*
X124170000Y-100150001D02*
G01*
X124170000Y-99870001D01*
X124450000Y-99870001D01*
X124170000Y-100150001D01*
G37*
%TO.C,D14*%
X126440000Y-81600000D02*
X126440000Y-84285000D01*
X126440000Y-84285000D02*
X128360000Y-84285000D01*
X128360000Y-84285000D02*
X128360000Y-81600000D01*
%TO.C,D20*%
X90365000Y-110600000D02*
X90365000Y-112885000D01*
X90365000Y-112885000D02*
X91835000Y-112885000D01*
X91835000Y-112885000D02*
X91835000Y-110600000D01*
%TO.C,R6*%
X132437258Y-107377500D02*
X131962742Y-107377500D01*
X132437258Y-108422500D02*
X131962742Y-108422500D01*
%TO.C,C28*%
X129711252Y-97890000D02*
X128288748Y-97890000D01*
X129711252Y-99710000D02*
X128288748Y-99710000D01*
%TO.C,R10*%
X128177500Y-91537258D02*
X128177500Y-91062742D01*
X129222500Y-91537258D02*
X129222500Y-91062742D01*
%TO.C,C16*%
X107015000Y-87738748D02*
X107015000Y-88261252D01*
X108485000Y-87738748D02*
X108485000Y-88261252D01*
%TO.C,J8*%
X104050000Y-123600000D02*
X104050000Y-124850000D01*
X104050000Y-124850000D02*
X105300000Y-124850000D01*
X104340000Y-111940000D02*
X104340000Y-124560000D01*
X104340000Y-124560000D02*
X110310000Y-124560000D01*
X104349999Y-113750000D02*
X105100000Y-113750001D01*
X104349999Y-121250000D02*
X105100000Y-121249999D01*
X104349999Y-122750000D02*
X104350000Y-124550000D01*
X104350000Y-111950000D02*
X104349999Y-113750000D01*
X104350000Y-115250000D02*
X104349999Y-121250000D01*
X104350000Y-124550000D02*
X105100000Y-124550000D01*
X105100000Y-111950000D02*
X104350000Y-111950000D01*
X105100000Y-113750001D02*
X105100000Y-111950000D01*
X105100000Y-115250000D02*
X104350000Y-115250000D01*
X105100000Y-121249999D02*
X105100000Y-115250000D01*
X105100000Y-122750001D02*
X104349999Y-122750000D01*
X105100000Y-124550000D02*
X105100000Y-122750001D01*
X106600000Y-111950000D02*
X106600001Y-112700000D01*
X106600000Y-123800000D02*
X109550000Y-123800000D01*
X106600000Y-124550000D02*
X106600000Y-123800000D01*
X106600001Y-112700000D02*
X109550000Y-112700000D01*
X109550000Y-112700000D02*
X109550000Y-118250000D01*
X109550000Y-123800000D02*
X109550000Y-118250000D01*
X110310000Y-111940000D02*
X104340000Y-111940000D01*
X110310000Y-124560000D02*
X110310000Y-111940000D01*
%TO.C,Q7*%
X129830000Y-59750000D02*
X129830000Y-66170000D01*
X129830000Y-66170000D02*
X130100000Y-66170000D01*
X136730000Y-59750000D02*
X136730000Y-66170000D01*
X136730000Y-66170000D02*
X136460000Y-66170000D01*
X130140000Y-67900000D02*
X129670000Y-68240000D01*
X129670000Y-67560000D01*
X130140000Y-67900000D01*
G36*
X130140000Y-67900000D02*
G01*
X129670000Y-68240000D01*
X129670000Y-67560000D01*
X130140000Y-67900000D01*
G37*
%TO.C,Y1*%
X92900000Y-100800000D02*
X92500000Y-100800000D01*
X92900000Y-100800000D02*
X92900000Y-99800000D01*
X92900000Y-103400000D02*
X92900000Y-102600000D01*
X93300000Y-99600000D02*
X92900000Y-99600000D01*
X93300000Y-99800000D02*
X92900000Y-99800000D01*
X93300000Y-99800000D02*
X95300000Y-99800000D01*
X93300000Y-103400000D02*
X92900000Y-103400000D01*
X95300000Y-99600000D02*
X93300000Y-99600000D01*
X95300000Y-99800000D02*
X95300000Y-100800000D01*
X95300000Y-102600000D02*
X95300000Y-103400000D01*
X95300000Y-103400000D02*
X93300000Y-103400000D01*
%TO.C,U9*%
X119300000Y-104135000D02*
X119060001Y-103805000D01*
X119540000Y-103805000D01*
X119300000Y-104135000D01*
G36*
X119300000Y-104135000D02*
G01*
X119060001Y-103805000D01*
X119540000Y-103805000D01*
X119300000Y-104135000D01*
G37*
%TO.C,D8*%
X95715000Y-84352500D02*
X95715000Y-86272500D01*
X95715000Y-86272500D02*
X98400000Y-86272500D01*
X98400000Y-84352500D02*
X95715000Y-84352500D01*
%TO.C,Q4*%
X101270000Y-70850000D02*
X101270000Y-77270000D01*
X101270000Y-77270000D02*
X101540000Y-77270000D01*
X108170000Y-70850000D02*
X108170000Y-77270000D01*
X108170000Y-77270000D02*
X107900000Y-77270000D01*
X101580000Y-79000000D02*
X101110000Y-79340000D01*
X101110000Y-78660000D01*
X101580000Y-79000000D01*
G36*
X101580000Y-79000000D02*
G01*
X101110000Y-79340000D01*
X101110000Y-78660000D01*
X101580000Y-79000000D01*
G37*
%TO.C,C14*%
X132161252Y-84565000D02*
X131638748Y-84565000D01*
X132161252Y-86035000D02*
X131638748Y-86035000D01*
%TO.C,D10*%
X102540000Y-81587500D02*
X102540000Y-84272500D01*
X102540000Y-84272500D02*
X104460000Y-84272500D01*
X104460000Y-84272500D02*
X104460000Y-81587500D01*
%TO.C,D13*%
X122640000Y-81600000D02*
X122640000Y-84285000D01*
X122640000Y-84285000D02*
X124560000Y-84285000D01*
X124560000Y-84285000D02*
X124560000Y-81600000D01*
%TO.C,R15*%
X100865000Y-82360436D02*
X100865000Y-82814564D01*
X102335000Y-82360436D02*
X102335000Y-82814564D01*
%TO.C,D16*%
X135440000Y-81600000D02*
X135440000Y-84285000D01*
X135440000Y-84285000D02*
X137360000Y-84285000D01*
X137360000Y-84285000D02*
X137360000Y-81600000D01*
%TO.C,C31*%
X122538747Y-100365000D02*
X123061253Y-100365000D01*
X122538747Y-101835000D02*
X123061253Y-101835000D01*
%TO.C,C20*%
X129711252Y-100290000D02*
X128288748Y-100290000D01*
X129711252Y-102110000D02*
X128288748Y-102110000D01*
%TO.C,R8*%
X90577500Y-114262742D02*
X90577500Y-114737258D01*
X91622500Y-114262742D02*
X91622500Y-114737258D01*
%TO.C,C22*%
X107990000Y-97590580D02*
X107990000Y-97309420D01*
X109010000Y-97590580D02*
X109010000Y-97309420D01*
%TO.C,R4*%
X129237258Y-107377500D02*
X128762742Y-107377500D01*
X129237258Y-108422500D02*
X128762742Y-108422500D01*
%TO.C,R14*%
X95765000Y-82372936D02*
X95765000Y-82827064D01*
X97235000Y-82372936D02*
X97235000Y-82827064D01*
%TO.C,C8*%
X96690580Y-95040000D02*
X96409420Y-95040000D01*
X96690580Y-96060000D02*
X96409420Y-96060000D01*
%TO.C,D15*%
X131640000Y-81600000D02*
X131640000Y-84285000D01*
X131640000Y-84285000D02*
X133560000Y-84285000D01*
X133560000Y-84285000D02*
X133560000Y-81600000D01*
%TO.C,R20*%
X133765000Y-82372936D02*
X133765000Y-82827064D01*
X135235000Y-82372936D02*
X135235000Y-82827064D01*
%TO.C,U4*%
X97390000Y-97990000D02*
X97390000Y-98940000D01*
X97390000Y-108210000D02*
X97390000Y-107260000D01*
X98340000Y-97990000D02*
X97390000Y-97990000D01*
X98340000Y-108210000D02*
X97390000Y-108210000D01*
X106660000Y-97990000D02*
X107610000Y-97990000D01*
X106660000Y-108210000D02*
X107610000Y-108210000D01*
X107610000Y-97990000D02*
X107610000Y-98940000D01*
X107610000Y-108210000D02*
X107610000Y-107260000D01*
X96775000Y-98940000D02*
X96435000Y-98470000D01*
X97115000Y-98470000D01*
X96775000Y-98940000D01*
G36*
X96775000Y-98940000D02*
G01*
X96435000Y-98470000D01*
X97115000Y-98470000D01*
X96775000Y-98940000D01*
G37*
%TO.C,C17*%
X123161252Y-84565000D02*
X122638748Y-84565000D01*
X123161252Y-86035000D02*
X122638748Y-86035000D01*
%TO.C,D12*%
X124715000Y-84340000D02*
X124715000Y-86260000D01*
X124715000Y-86260000D02*
X127400000Y-86260000D01*
X127400000Y-84340000D02*
X124715000Y-84340000D01*
%TO.C,Q3*%
X101270000Y-59750000D02*
X101270000Y-66170000D01*
X101270000Y-66170000D02*
X101540000Y-66170000D01*
X108170000Y-59750000D02*
X108170000Y-66170000D01*
X108170000Y-66170000D02*
X107900000Y-66170000D01*
X101580000Y-67900000D02*
X101110000Y-68240000D01*
X101110000Y-67560000D01*
X101580000Y-67900000D01*
G36*
X101580000Y-67900000D02*
G01*
X101110000Y-68240000D01*
X101110000Y-67560000D01*
X101580000Y-67900000D01*
G37*
%TO.C,C41*%
X124965581Y-96290000D02*
X124684419Y-96290000D01*
X124965581Y-97310000D02*
X124684419Y-97310000D01*
%TO.C,C3*%
X109287676Y-83499000D02*
X109287676Y-82301000D01*
X109327676Y-83762000D02*
X109327676Y-82038000D01*
X109367676Y-83962000D02*
X109367676Y-81838000D01*
X109407676Y-84130000D02*
X109407676Y-81670000D01*
X109447676Y-84277000D02*
X109447676Y-81523000D01*
X109487676Y-84409000D02*
X109487676Y-81391000D01*
X109527676Y-84530000D02*
X109527676Y-81270000D01*
X109567676Y-84642000D02*
X109567676Y-81158000D01*
X109607676Y-84746000D02*
X109607676Y-81054000D01*
X109647676Y-84844000D02*
X109647676Y-80956000D01*
X109687676Y-84937000D02*
X109687676Y-80863000D01*
X109727676Y-85024000D02*
X109727676Y-80776000D01*
X109767676Y-85108000D02*
X109767676Y-80692000D01*
X109807676Y-85188000D02*
X109807676Y-80612000D01*
X109847676Y-85265000D02*
X109847676Y-80535000D01*
X109887676Y-85339000D02*
X109887676Y-80461000D01*
X109927676Y-85410000D02*
X109927676Y-80390000D01*
X109967676Y-85478000D02*
X109967676Y-80322000D01*
X110007676Y-85544000D02*
X110007676Y-80256000D01*
X110047676Y-85608000D02*
X110047676Y-80192000D01*
X110087676Y-85670000D02*
X110087676Y-80130000D01*
X110127676Y-85730000D02*
X110127676Y-80070000D01*
X110167676Y-85788000D02*
X110167676Y-80012000D01*
X110207676Y-85845000D02*
X110207676Y-79955000D01*
X110247676Y-85900000D02*
X110247676Y-79900000D01*
X110287676Y-85953000D02*
X110287676Y-79847000D01*
X110327676Y-86005000D02*
X110327676Y-79795000D01*
X110367676Y-86056000D02*
X110367676Y-79744000D01*
X110407676Y-86105000D02*
X110407676Y-79695000D01*
X110447676Y-86154000D02*
X110447676Y-79646000D01*
X110487676Y-86201000D02*
X110487676Y-79599000D01*
X110527676Y-86247000D02*
X110527676Y-79553000D01*
X110567676Y-86291000D02*
X110567676Y-79509000D01*
X110607676Y-86335000D02*
X110607676Y-79465000D01*
X110647676Y-81660000D02*
X110647676Y-79422000D01*
X110647676Y-86378000D02*
X110647676Y-84140000D01*
X110687676Y-81660000D02*
X110687676Y-79380000D01*
X110687676Y-86420000D02*
X110687676Y-84140000D01*
X110727676Y-81660000D02*
X110727676Y-79339000D01*
X110727676Y-86461000D02*
X110727676Y-84140000D01*
X110767676Y-81660000D02*
X110767676Y-79299000D01*
X110767676Y-86501000D02*
X110767676Y-84140000D01*
X110807676Y-81660000D02*
X110807676Y-79260000D01*
X110807676Y-86540000D02*
X110807676Y-84140000D01*
X110847676Y-81660000D02*
X110847676Y-79222000D01*
X110847676Y-86578000D02*
X110847676Y-84140000D01*
X110887676Y-81660000D02*
X110887676Y-79184000D01*
X110887676Y-86616000D02*
X110887676Y-84140000D01*
X110927676Y-81660000D02*
X110927676Y-79148000D01*
X110927676Y-86652000D02*
X110927676Y-84140000D01*
X110967676Y-81660000D02*
X110967676Y-79112000D01*
X110967676Y-86688000D02*
X110967676Y-84140000D01*
X111007676Y-81660000D02*
X111007676Y-79077000D01*
X111007676Y-86723000D02*
X111007676Y-84140000D01*
X111047676Y-81660000D02*
X111047676Y-79042000D01*
X111047676Y-86758000D02*
X111047676Y-84140000D01*
X111087676Y-81660000D02*
X111087676Y-79009000D01*
X111087676Y-86791000D02*
X111087676Y-84140000D01*
X111127676Y-81660000D02*
X111127676Y-78976000D01*
X111127676Y-86824000D02*
X111127676Y-84140000D01*
X111167676Y-81660000D02*
X111167676Y-78943000D01*
X111167676Y-86857000D02*
X111167676Y-84140000D01*
X111207676Y-81660000D02*
X111207676Y-78912000D01*
X111207676Y-86888000D02*
X111207676Y-84140000D01*
X111247676Y-81660000D02*
X111247676Y-78880000D01*
X111247676Y-86920000D02*
X111247676Y-84140000D01*
X111287676Y-81660000D02*
X111287676Y-78850000D01*
X111287676Y-86950000D02*
X111287676Y-84140000D01*
X111327676Y-81660000D02*
X111327676Y-78820000D01*
X111327676Y-86980000D02*
X111327676Y-84140000D01*
X111367676Y-81660000D02*
X111367676Y-78791000D01*
X111367676Y-87009000D02*
X111367676Y-84140000D01*
X111407676Y-81660000D02*
X111407676Y-78762000D01*
X111407676Y-87038000D02*
X111407676Y-84140000D01*
X111447676Y-81660000D02*
X111447676Y-78734000D01*
X111447676Y-87066000D02*
X111447676Y-84140000D01*
X111487676Y-81660000D02*
X111487676Y-78707000D01*
X111487676Y-87093000D02*
X111487676Y-84140000D01*
X111527676Y-81660000D02*
X111527676Y-78680000D01*
X111527676Y-87120000D02*
X111527676Y-84140000D01*
X111567676Y-81660000D02*
X111567676Y-78653000D01*
X111567676Y-87147000D02*
X111567676Y-84140000D01*
X111607676Y-81660000D02*
X111607676Y-78628000D01*
X111607676Y-87172000D02*
X111607676Y-84140000D01*
X111647676Y-81660000D02*
X111647676Y-78602000D01*
X111647676Y-87198000D02*
X111647676Y-84140000D01*
X111687676Y-81660000D02*
X111687676Y-78577000D01*
X111687676Y-87223000D02*
X111687676Y-84140000D01*
X111727676Y-81660000D02*
X111727676Y-78553000D01*
X111727676Y-87247000D02*
X111727676Y-84140000D01*
X111767676Y-81660000D02*
X111767676Y-78529000D01*
X111767676Y-87271000D02*
X111767676Y-84140000D01*
X111807676Y-81660000D02*
X111807676Y-78506000D01*
X111807676Y-87294000D02*
X111807676Y-84140000D01*
X111847676Y-81660000D02*
X111847676Y-78483000D01*
X111847676Y-87317000D02*
X111847676Y-84140000D01*
X111887676Y-81660000D02*
X111887676Y-78461000D01*
X111887676Y-87339000D02*
X111887676Y-84140000D01*
X111927676Y-81660000D02*
X111927676Y-78439000D01*
X111927676Y-87361000D02*
X111927676Y-84140000D01*
X111967676Y-81660000D02*
X111967676Y-78417000D01*
X111967676Y-87383000D02*
X111967676Y-84140000D01*
X112007676Y-81660000D02*
X112007676Y-78396000D01*
X112007676Y-87404000D02*
X112007676Y-84140000D01*
X112047676Y-81660000D02*
X112047676Y-78376000D01*
X112047676Y-87424000D02*
X112047676Y-84140000D01*
X112087676Y-81660000D02*
X112087676Y-78356000D01*
X112087676Y-87444000D02*
X112087676Y-84140000D01*
X112127676Y-81660000D02*
X112127676Y-78336000D01*
X112127676Y-87464000D02*
X112127676Y-84140000D01*
X112167676Y-81660000D02*
X112167676Y-78317000D01*
X112167676Y-87483000D02*
X112167676Y-84140000D01*
X112207676Y-81660000D02*
X112207676Y-78298000D01*
X112207676Y-87502000D02*
X112207676Y-84140000D01*
X112247676Y-81660000D02*
X112247676Y-78280000D01*
X112247676Y-87520000D02*
X112247676Y-84140000D01*
X112287676Y-81660000D02*
X112287676Y-78262000D01*
X112287676Y-87538000D02*
X112287676Y-84140000D01*
X112327676Y-81660000D02*
X112327676Y-78244000D01*
X112327676Y-87556000D02*
X112327676Y-84140000D01*
X112367676Y-81660000D02*
X112367676Y-78227000D01*
X112367676Y-87573000D02*
X112367676Y-84140000D01*
X112407676Y-81660000D02*
X112407676Y-78210000D01*
X112407676Y-87590000D02*
X112407676Y-84140000D01*
X112447676Y-81660000D02*
X112447676Y-78194000D01*
X112447676Y-87606000D02*
X112447676Y-84140000D01*
X112487676Y-81660000D02*
X112487676Y-78178000D01*
X112487676Y-87622000D02*
X112487676Y-84140000D01*
X112527676Y-81660000D02*
X112527676Y-78162000D01*
X112527676Y-87638000D02*
X112527676Y-84140000D01*
X112567676Y-81660000D02*
X112567676Y-78147000D01*
X112567676Y-87653000D02*
X112567676Y-84140000D01*
X112607676Y-81660000D02*
X112607676Y-78132000D01*
X112607676Y-87668000D02*
X112607676Y-84140000D01*
X112647676Y-81660000D02*
X112647676Y-78118000D01*
X112647676Y-87682000D02*
X112647676Y-84140000D01*
X112687676Y-81660000D02*
X112687676Y-78103000D01*
X112687676Y-87697000D02*
X112687676Y-84140000D01*
X112727676Y-81660000D02*
X112727676Y-78090000D01*
X112727676Y-87710000D02*
X112727676Y-84140000D01*
X112767676Y-81660000D02*
X112767676Y-78076000D01*
X112767676Y-87724000D02*
X112767676Y-84140000D01*
X112807676Y-81660000D02*
X112807676Y-78063000D01*
X112807676Y-87737000D02*
X112807676Y-84140000D01*
X112847676Y-81660000D02*
X112847676Y-78051000D01*
X112847676Y-87749000D02*
X112847676Y-84140000D01*
X112887676Y-81660000D02*
X112887676Y-78039000D01*
X112887676Y-87761000D02*
X112887676Y-84140000D01*
X112927676Y-81660000D02*
X112927676Y-78027000D01*
X112927676Y-87773000D02*
X112927676Y-84140000D01*
X112967676Y-81660000D02*
X112967676Y-78015000D01*
X112967676Y-87785000D02*
X112967676Y-84140000D01*
X113007676Y-81660000D02*
X113007676Y-78004000D01*
X113007676Y-87796000D02*
X113007676Y-84140000D01*
X113047676Y-81660000D02*
X113047676Y-77993000D01*
X113047676Y-87807000D02*
X113047676Y-84140000D01*
X113087676Y-81660000D02*
X113087676Y-77983000D01*
X113087676Y-87817000D02*
X113087676Y-84140000D01*
X113127676Y-87828000D02*
X113127676Y-77972000D01*
X113167676Y-87837000D02*
X113167676Y-77963000D01*
X113207676Y-87847000D02*
X113207676Y-77953000D01*
X113247676Y-87856000D02*
X113247676Y-77944000D01*
X113287676Y-87865000D02*
X113287676Y-77935000D01*
X113327676Y-87873000D02*
X113327676Y-77927000D01*
X113367676Y-87881000D02*
X113367676Y-77919000D01*
X113407676Y-87889000D02*
X113407676Y-77911000D01*
X113447676Y-87897000D02*
X113447676Y-77903000D01*
X113487676Y-87904000D02*
X113487676Y-77896000D01*
X113527676Y-87911000D02*
X113527676Y-77889000D01*
X113567676Y-87917000D02*
X113567676Y-77883000D01*
X113607676Y-87923000D02*
X113607676Y-77877000D01*
X113647676Y-87929000D02*
X113647676Y-77871000D01*
X113687676Y-87935000D02*
X113687676Y-77865000D01*
X113727676Y-87940000D02*
X113727676Y-77860000D01*
X113767676Y-87945000D02*
X113767676Y-77855000D01*
X113807676Y-87949000D02*
X113807676Y-77851000D01*
X113847676Y-87954000D02*
X113847676Y-77846000D01*
X113887676Y-87957000D02*
X113887676Y-77843000D01*
X113927676Y-87961000D02*
X113927676Y-77839000D01*
X113967676Y-87964000D02*
X113967676Y-77836000D01*
X114007676Y-87967000D02*
X114007676Y-77833000D01*
X114047676Y-87970000D02*
X114047676Y-77830000D01*
X114087676Y-87972000D02*
X114087676Y-77828000D01*
X114127676Y-87974000D02*
X114127676Y-77826000D01*
X114167676Y-87976000D02*
X114167676Y-77824000D01*
X114207676Y-87977000D02*
X114207676Y-77823000D01*
X114247676Y-87979000D02*
X114247676Y-77821000D01*
X114287676Y-87979000D02*
X114287676Y-77821000D01*
X114327676Y-87980000D02*
X114327676Y-77820000D01*
X114367676Y-87980000D02*
X114367676Y-77820000D01*
X119347322Y-86275000D02*
X119347322Y-85275000D01*
X119847322Y-85775000D02*
X118847322Y-85775000D01*
X119487676Y-82900000D02*
G75*
G02*
X109247676Y-82900000I-5120000J0D01*
G01*
X109247676Y-82900000D02*
G75*
G02*
X119487676Y-82900000I5120000J0D01*
G01*
%TO.C,D6*%
X93640000Y-81600000D02*
X93640000Y-84285000D01*
X93640000Y-84285000D02*
X95560000Y-84285000D01*
X95560000Y-84285000D02*
X95560000Y-81600000D01*
%TO.C,D3*%
X126365000Y-89815000D02*
X126365000Y-92100000D01*
X127835000Y-89815000D02*
X126365000Y-89815000D01*
X127835000Y-92100000D02*
X127835000Y-89815000D01*
%TO.C,J1*%
X110350000Y-53300000D02*
X110350000Y-66150000D01*
X110350000Y-66150000D02*
X118650000Y-66150000D01*
X112950000Y-50450000D02*
X110350000Y-53300000D01*
X116100000Y-50450000D02*
X112950000Y-50450000D01*
X118650000Y-53300000D02*
X116100000Y-50450000D01*
X118650000Y-66150000D02*
X118650000Y-53300000D01*
%TO.C,C9*%
X103161252Y-84565000D02*
X102638748Y-84565000D01*
X103161252Y-86035000D02*
X102638748Y-86035000D01*
%TO.C,J3*%
X110620000Y-101255000D02*
X110620000Y-96065000D01*
X113379999Y-102525000D02*
X113380000Y-103905000D01*
X113380000Y-96065000D02*
X110620000Y-96065000D01*
X113380000Y-101255000D02*
X110620000Y-101255000D01*
X113380000Y-101255000D02*
X113380000Y-96065000D01*
X113380000Y-103905000D02*
X112000000Y-103904999D01*
%TO.C,C42*%
X119190581Y-96990000D02*
X118909419Y-96990000D01*
X119190581Y-98010000D02*
X118909419Y-98010000D01*
%TO.C,C30*%
X136015000Y-87738748D02*
X136015000Y-88261252D01*
X137485000Y-87738748D02*
X137485000Y-88261252D01*
%TO.C,R17*%
X120965000Y-82372936D02*
X120965000Y-82827064D01*
X122435000Y-82372936D02*
X122435000Y-82827064D01*
%TO.C,R12*%
X135977500Y-102237742D02*
X135977500Y-102712258D01*
X137022500Y-102237742D02*
X137022500Y-102712258D01*
%TO.C,R9*%
X135062742Y-93977500D02*
X135537258Y-93977500D01*
X135062742Y-95022500D02*
X135537258Y-95022500D01*
%TO.C,R13*%
X91965000Y-82372936D02*
X91965000Y-82827064D01*
X93435000Y-82372936D02*
X93435000Y-82827064D01*
%TO.C,Q5*%
X120830000Y-59750000D02*
X120830000Y-66170000D01*
X120830000Y-66170000D02*
X121100000Y-66170000D01*
X127730000Y-59750000D02*
X127730000Y-66170000D01*
X127730000Y-66170000D02*
X127460000Y-66170000D01*
X121140000Y-67900000D02*
X120670000Y-68240000D01*
X120670000Y-67560000D01*
X121140000Y-67900000D01*
G36*
X121140000Y-67900000D02*
G01*
X120670000Y-68240000D01*
X120670000Y-67560000D01*
X121140000Y-67900000D01*
G37*
%TO.C,L2*%
X117640000Y-98700000D02*
X117640000Y-101700000D01*
X120960000Y-100200000D02*
X120960000Y-101700000D01*
%TO.C,C26*%
X110190000Y-106359419D02*
X110190000Y-106640581D01*
X111210000Y-106359419D02*
X111210000Y-106640581D01*
%TO.C,C29*%
X124865000Y-100038747D02*
X124865000Y-100561253D01*
X126335000Y-100038747D02*
X126335000Y-100561253D01*
%TO.C,C27*%
X133990001Y-97888748D02*
X133990001Y-99311252D01*
X135810001Y-97888748D02*
X135810001Y-99311252D01*
%TO.C,U8*%
X131640001Y-103150000D02*
X131640001Y-101850000D01*
X133959999Y-103150000D02*
X133960000Y-102100000D01*
X134240000Y-101740000D02*
X133960000Y-101740000D01*
X133960000Y-101460000D01*
X134240000Y-101740000D01*
G36*
X134240000Y-101740000D02*
G01*
X133960000Y-101740000D01*
X133960000Y-101460000D01*
X134240000Y-101740000D01*
G37*
%TO.C,TP1*%
X99200000Y-93800000D02*
G75*
G02*
X97800000Y-93800000I-700000J0D01*
G01*
X97800000Y-93800000D02*
G75*
G02*
X99200000Y-93800000I700000J0D01*
G01*
%TO.C,R11*%
X135977500Y-105737258D02*
X135977500Y-105262742D01*
X137022500Y-105737258D02*
X137022500Y-105262742D01*
%TO.C,C25*%
X133090000Y-105640581D02*
X133090000Y-105359419D01*
X134110000Y-105640581D02*
X134110000Y-105359419D01*
%TO.C,C18*%
X131690000Y-97888748D02*
X131690000Y-99311252D01*
X133510000Y-97888748D02*
X133510000Y-99311252D01*
%TO.C,R3*%
X108177500Y-91537258D02*
X108177500Y-91062742D01*
X109222500Y-91537258D02*
X109222500Y-91062742D01*
%TO.C,D7*%
X97440000Y-81600000D02*
X97440000Y-84285000D01*
X97440000Y-84285000D02*
X99360000Y-84285000D01*
X99360000Y-84285000D02*
X99360000Y-81600000D01*
%TO.C,D21*%
X135265000Y-89815000D02*
X135265000Y-92100000D01*
X136735000Y-89815000D02*
X135265000Y-89815000D01*
X136735000Y-92100000D02*
X136735000Y-89815000D01*
%TO.C,J7*%
X96925000Y-123600000D02*
X96925000Y-124850000D01*
X96925000Y-124850000D02*
X98175000Y-124850000D01*
X97215000Y-111940000D02*
X97215000Y-124560000D01*
X97215000Y-124560000D02*
X103185000Y-124560000D01*
X97224999Y-113750000D02*
X97975000Y-113750001D01*
X97224999Y-121250000D02*
X97975000Y-121249999D01*
X97224999Y-122750000D02*
X97225000Y-124550000D01*
X97225000Y-111950000D02*
X97224999Y-113750000D01*
X97225000Y-115250000D02*
X97224999Y-121250000D01*
X97225000Y-124550000D02*
X97975000Y-124550000D01*
X97975000Y-111950000D02*
X97225000Y-111950000D01*
X97975000Y-113750001D02*
X97975000Y-111950000D01*
X97975000Y-115250000D02*
X97225000Y-115250000D01*
X97975000Y-121249999D02*
X97975000Y-115250000D01*
X97975000Y-122750001D02*
X97224999Y-122750000D01*
X97975000Y-124550000D02*
X97975000Y-122750001D01*
X99475000Y-111950000D02*
X99475001Y-112700000D01*
X99475000Y-123800000D02*
X102425000Y-123800000D01*
X99475000Y-124550000D02*
X99475000Y-123800000D01*
X99475001Y-112700000D02*
X102425000Y-112700000D01*
X102425000Y-112700000D02*
X102425000Y-118250000D01*
X102425000Y-123800000D02*
X102425000Y-118250000D01*
X103185000Y-111940000D02*
X97215000Y-111940000D01*
X103185000Y-124560000D02*
X103185000Y-111940000D01*
%TO.C,Q8*%
X129830000Y-70850000D02*
X129830000Y-77270000D01*
X129830000Y-77270000D02*
X130100000Y-77270000D01*
X136730000Y-70850000D02*
X136730000Y-77270000D01*
X136730000Y-77270000D02*
X136460000Y-77270000D01*
X130140000Y-79000000D02*
X129670000Y-79340000D01*
X129670000Y-78660000D01*
X130140000Y-79000000D01*
G36*
X130140000Y-79000000D02*
G01*
X129670000Y-79340000D01*
X129670000Y-78660000D01*
X130140000Y-79000000D01*
G37*
%TO.C,L1*%
X126890000Y-102590000D02*
X131110000Y-102590000D01*
X131110000Y-106810000D02*
X126890000Y-106810000D01*
%TO.C,D11*%
X106340000Y-81587500D02*
X106340000Y-84272500D01*
X106340000Y-84272500D02*
X108260000Y-84272500D01*
X108260000Y-84272500D02*
X108260000Y-81587500D01*
%TO.C,R1*%
X99177500Y-91537258D02*
X99177500Y-91062742D01*
X100222500Y-91537258D02*
X100222500Y-91062742D01*
%TO.C,Q1*%
X92270000Y-59750000D02*
X92270000Y-66170000D01*
X92270000Y-66170000D02*
X92540000Y-66170000D01*
X99170000Y-59750000D02*
X99170000Y-66170000D01*
X99170000Y-66170000D02*
X98900000Y-66170000D01*
X92580000Y-67900000D02*
X92110000Y-68240000D01*
X92110000Y-67560000D01*
X92580000Y-67900000D01*
G36*
X92580000Y-67900000D02*
G01*
X92110000Y-68240000D01*
X92110000Y-67560000D01*
X92580000Y-67900000D01*
G37*
%TO.C,D17*%
X133615000Y-84340000D02*
X133615000Y-86260000D01*
X133615000Y-86260000D02*
X136300000Y-86260000D01*
X136300000Y-84340000D02*
X133615000Y-84340000D01*
%TO.C,J2*%
X111430001Y-115770000D02*
X111430001Y-118529999D01*
X111430001Y-118529999D02*
X131970001Y-118530000D01*
X112380001Y-112917358D02*
X112380001Y-113302643D01*
X112380001Y-115457358D02*
X112380001Y-115770000D01*
X112380001Y-124530001D02*
X112380001Y-118530000D01*
X113240001Y-112917358D02*
X113240001Y-113302642D01*
X113240001Y-115457358D02*
X113240001Y-115770000D01*
X113240001Y-118530000D02*
X113240001Y-124530000D01*
X113240001Y-124530000D02*
X112380001Y-124530001D01*
X114080001Y-115770000D02*
X114080001Y-118529999D01*
X114920001Y-112917358D02*
X114920001Y-113302642D01*
X114920001Y-115457358D02*
X114920001Y-115770000D01*
X114920001Y-124530000D02*
X114920001Y-118530000D01*
X115780001Y-112917358D02*
X115780001Y-113302643D01*
X115780001Y-115457358D02*
X115780001Y-115770000D01*
X115780001Y-118530000D02*
X115780002Y-124530000D01*
X115780002Y-124530000D02*
X114920001Y-124530000D01*
X116620001Y-115770000D02*
X116620001Y-118530000D01*
X117460001Y-112917358D02*
X117460001Y-113302642D01*
X117460001Y-115457357D02*
X117460001Y-115770000D01*
X117460001Y-124530000D02*
X117460001Y-118529999D01*
X118320001Y-112917358D02*
X118320001Y-113302642D01*
X118320001Y-115457358D02*
X118320001Y-115770000D01*
X118320001Y-118530000D02*
X118320001Y-124530000D01*
X118320001Y-124530000D02*
X117460001Y-124530000D01*
X119160001Y-115770000D02*
X119160001Y-118530000D01*
X120000001Y-112917358D02*
X120000001Y-113302642D01*
X120000001Y-115457358D02*
X120000001Y-115770000D01*
X120000001Y-124530000D02*
X120000001Y-118530000D01*
X120860001Y-112917358D02*
X120860001Y-113302642D01*
X120860001Y-115457357D02*
X120860001Y-115770000D01*
X120860001Y-118529999D02*
X120860001Y-124530000D01*
X120860001Y-124530000D02*
X120000001Y-124530000D01*
X121700001Y-115770000D02*
X121700001Y-118530000D01*
X122540000Y-124530000D02*
X122540001Y-118530000D01*
X122540001Y-112917358D02*
X122540000Y-113302642D01*
X122540001Y-115457358D02*
X122540001Y-115770000D01*
X123400001Y-112917358D02*
X123400001Y-113302642D01*
X123400001Y-115457358D02*
X123400001Y-115770000D01*
X123400001Y-118530000D02*
X123400001Y-124530000D01*
X123400001Y-124530000D02*
X122540000Y-124530000D01*
X124240001Y-115770000D02*
X124240001Y-118529999D01*
X125080001Y-112917358D02*
X125080002Y-113302642D01*
X125080001Y-115457358D02*
X125080001Y-115770000D01*
X125080002Y-124530000D02*
X125080001Y-118530000D01*
X125940001Y-112917358D02*
X125940001Y-113302643D01*
X125940001Y-115457358D02*
X125940001Y-115770000D01*
X125940001Y-118530000D02*
X125940001Y-124530001D01*
X125940001Y-124530001D02*
X125080002Y-124530000D01*
X126780001Y-115770000D02*
X126780001Y-118530000D01*
X127620000Y-115457358D02*
X127620001Y-115770000D01*
X127620001Y-112917358D02*
X127620001Y-113302642D01*
X127620001Y-124530000D02*
X127620000Y-118530000D01*
X128480001Y-112917358D02*
X128480001Y-113302642D01*
X128480001Y-115457358D02*
X128480001Y-115770000D01*
X128480001Y-118530000D02*
X128480001Y-124530000D01*
X128480001Y-124530000D02*
X127620001Y-124530000D01*
X129320001Y-115770000D02*
X129320001Y-118530000D01*
X130160001Y-113000000D02*
X130160001Y-113302642D01*
X130160001Y-115457357D02*
X130160001Y-115770000D01*
X130590001Y-110569999D02*
X131860001Y-110570000D01*
X131020001Y-113000000D02*
X131020001Y-113302642D01*
X131020001Y-115457357D02*
X131020001Y-115770000D01*
X131860001Y-110570000D02*
X131860002Y-111840000D01*
X131970001Y-115770000D02*
X111430001Y-115770000D01*
X131970001Y-118530000D02*
X131970001Y-115770000D01*
X131020001Y-124530000D02*
X130160001Y-124530000D01*
X130160001Y-118529999D01*
X131020001Y-118529999D01*
X131020001Y-124530000D01*
G36*
X131020001Y-124530000D02*
G01*
X130160001Y-124530000D01*
X130160001Y-118529999D01*
X131020001Y-118529999D01*
X131020001Y-124530000D01*
G37*
%TO.C,D9*%
X104715000Y-84340000D02*
X104715000Y-86260000D01*
X104715000Y-86260000D02*
X107400000Y-86260000D01*
X107400000Y-84340000D02*
X104715000Y-84340000D01*
%TO.C,R5*%
X94337258Y-103877500D02*
X93862742Y-103877500D01*
X94337258Y-104922500D02*
X93862742Y-104922500D01*
%TO.C,JP2*%
X92420000Y-115070000D02*
X92420000Y-109880000D01*
X95179999Y-116340000D02*
X95180000Y-117720000D01*
X95180000Y-109880000D02*
X92420000Y-109880000D01*
X95180000Y-115070000D02*
X92420000Y-115070000D01*
X95180000Y-115070000D02*
X95180000Y-109880000D01*
X95180000Y-117720000D02*
X93800000Y-117719999D01*
%TO.C,R2*%
X99362742Y-95027500D02*
X99837258Y-95027500D01*
X99362742Y-96072500D02*
X99837258Y-96072500D01*
%TO.C,R16*%
X104665000Y-82360436D02*
X104665000Y-82814564D01*
X106135000Y-82360436D02*
X106135000Y-82814564D01*
%TO.C,C11*%
X106890000Y-109759420D02*
X106890000Y-110040580D01*
X107910000Y-109759420D02*
X107910000Y-110040580D01*
%TO.C,R7*%
X134377500Y-102237742D02*
X134377500Y-102712258D01*
X135422500Y-102237742D02*
X135422500Y-102712258D01*
%TO.C,U10*%
X113600000Y-104939999D02*
X112800000Y-104940000D01*
X113600000Y-104939999D02*
X114400000Y-104940000D01*
X113600000Y-108060001D02*
X112800000Y-108060000D01*
X113600000Y-108060001D02*
X114400000Y-108060000D01*
X115140000Y-108340000D02*
X114660000Y-108340000D01*
X114900000Y-108010000D01*
X115140000Y-108340000D01*
G36*
X115140000Y-108340000D02*
G01*
X114660000Y-108340000D01*
X114900000Y-108010000D01*
X115140000Y-108340000D01*
G37*
%TO.C,C2*%
X104165580Y-110190000D02*
X103884420Y-110190000D01*
X104165580Y-111210000D02*
X103884420Y-111210000D01*
%TO.C,TP2*%
X91900000Y-107600000D02*
G75*
G02*
X90500000Y-107600000I-700000J0D01*
G01*
X90500000Y-107600000D02*
G75*
G02*
X91900000Y-107600000I700000J0D01*
G01*
%TO.C,C15*%
X98015000Y-87738748D02*
X98015000Y-88261252D01*
X99485000Y-87738748D02*
X99485000Y-88261252D01*
%TO.C,D1*%
X97365000Y-89815000D02*
X97365000Y-92100000D01*
X98835000Y-89815000D02*
X97365000Y-89815000D01*
X98835000Y-92100000D02*
X98835000Y-89815000D01*
%TO.C,C19*%
X127015000Y-87738748D02*
X127015000Y-88261252D01*
X128485000Y-87738748D02*
X128485000Y-88261252D01*
%TO.C,Q6*%
X120830000Y-70850000D02*
X120830000Y-77270000D01*
X120830000Y-77270000D02*
X121100000Y-77270000D01*
X127730000Y-70850000D02*
X127730000Y-77270000D01*
X127730000Y-77270000D02*
X127460000Y-77270000D01*
X121140000Y-79000000D02*
X120670000Y-79340000D01*
X120670000Y-78660000D01*
X121140000Y-79000000D01*
G36*
X121140000Y-79000000D02*
G01*
X120670000Y-79340000D01*
X120670000Y-78660000D01*
X121140000Y-79000000D01*
G37*
%TD*%
%LPC*%
D14*
X93400000Y-59100000D02*
X135600000Y-59100000D01*
D15*
%TO.C,D2*%
X107100000Y-90512500D03*
X107100000Y-92087500D03*
%TD*%
D16*
%TO.C,C6*%
X132100000Y-106275000D03*
X132100000Y-104725000D03*
%TD*%
D17*
%TO.C,C12*%
X108900000Y-108025000D03*
X108900000Y-109575000D03*
%TD*%
D18*
%TO.C,Q2*%
X93440000Y-79000000D03*
D19*
X95720000Y-72700000D03*
D18*
X98000000Y-79000000D03*
%TD*%
D20*
%TO.C,U7*%
X134405000Y-87525000D03*
X133135000Y-87525000D03*
X131865000Y-87525000D03*
X130595000Y-87525000D03*
X130595000Y-92475000D03*
X131865000Y-92475000D03*
X133135000Y-92475000D03*
X134405000Y-92475000D03*
%TD*%
D21*
%TO.C,R18*%
X125500000Y-81687500D03*
X125500000Y-83512500D03*
%TD*%
D22*
%TO.C,H3*%
X93000000Y-122000000D03*
%TD*%
D23*
%TO.C,C10*%
X114375000Y-109000000D03*
X112825000Y-109000000D03*
%TD*%
D24*
%TO.C,C1*%
X116867676Y-72000000D03*
D25*
X111867676Y-72000000D03*
%TD*%
D20*
%TO.C,U5*%
X105405000Y-87525000D03*
X104135000Y-87525000D03*
X102865000Y-87525000D03*
X101595000Y-87525000D03*
X101595000Y-92475000D03*
X102865000Y-92475000D03*
X104135000Y-92475000D03*
X105405000Y-92475000D03*
%TD*%
D23*
%TO.C,C21*%
X96400000Y-108000000D03*
X94850000Y-108000000D03*
%TD*%
D22*
%TO.C,H4*%
X136000000Y-122000000D03*
%TD*%
D21*
%TO.C,R19*%
X130700000Y-81687500D03*
X130700000Y-83512500D03*
%TD*%
D16*
%TO.C,C13*%
X117500000Y-107375000D03*
X117500000Y-105825000D03*
%TD*%
D20*
%TO.C,U2*%
X96405000Y-87525000D03*
X95135000Y-87525000D03*
X93865000Y-87525000D03*
X92595000Y-87525000D03*
X92595000Y-92475000D03*
X93865000Y-92475000D03*
X95135000Y-92475000D03*
X96405000Y-92475000D03*
%TD*%
%TO.C,U6*%
X125405000Y-87525000D03*
X124135000Y-87525000D03*
X122865000Y-87525000D03*
X121595000Y-87525000D03*
X121595000Y-92475000D03*
X122865000Y-92475000D03*
X124135000Y-92475000D03*
X125405000Y-92475000D03*
%TD*%
D26*
%TO.C,C5*%
X93325000Y-105950000D03*
X94875000Y-105950000D03*
%TD*%
D27*
%TO.C,J9*%
X104950000Y-51432500D03*
D28*
X101450000Y-51432500D03*
%TD*%
D29*
%TO.C,C7*%
X94850000Y-85312500D03*
X92950000Y-85312500D03*
%TD*%
D23*
%TO.C,C4*%
X97325000Y-97050000D03*
X95775000Y-97050000D03*
%TD*%
D30*
%TO.C,U3*%
X123750000Y-99550002D03*
X123750000Y-99050001D03*
X123750000Y-98550001D03*
X123750000Y-98050000D03*
X121850000Y-98050000D03*
X121850000Y-98550001D03*
X121850000Y-99050001D03*
X121850000Y-99550002D03*
D31*
X122800000Y-98800001D03*
%TD*%
D32*
%TO.C,D14*%
X127400000Y-83537500D03*
X127400000Y-81662500D03*
%TD*%
D33*
%TO.C,D20*%
X91100000Y-112187501D03*
X91100000Y-110612499D03*
%TD*%
D34*
%TO.C,R6*%
X133025000Y-107900000D03*
X131375000Y-107900000D03*
%TD*%
D35*
%TO.C,C28*%
X130475001Y-98800000D03*
X127524999Y-98800000D03*
%TD*%
D36*
%TO.C,R10*%
X128700000Y-92125000D03*
X128700000Y-90475000D03*
%TD*%
D27*
%TO.C,J10*%
X127550000Y-51432500D03*
D28*
X124050000Y-51432500D03*
%TD*%
D37*
%TO.C,C16*%
X107750000Y-87050000D03*
X107750000Y-88950000D03*
%TD*%
D38*
%TO.C,J8*%
X106800000Y-122000000D03*
D39*
X106800000Y-119500000D03*
X106800000Y-117000000D03*
X106800000Y-114500000D03*
%TD*%
D18*
%TO.C,Q7*%
X131000000Y-67900000D03*
D19*
X133280000Y-61600000D03*
D18*
X135560000Y-67900000D03*
%TD*%
D40*
%TO.C,Y1*%
X94100000Y-100400000D03*
X94100000Y-101600000D03*
X94100000Y-102800000D03*
%TD*%
D41*
%TO.C,U9*%
X119525000Y-104695000D03*
X119525000Y-105965000D03*
X119525000Y-107235000D03*
X119525000Y-108505000D03*
X124475000Y-108505000D03*
X124475000Y-107235000D03*
X124475000Y-105965000D03*
X124475000Y-104695000D03*
%TD*%
D42*
%TO.C,D8*%
X96462500Y-85312500D03*
X98337500Y-85312500D03*
%TD*%
D18*
%TO.C,Q4*%
X102440000Y-79000000D03*
D19*
X104720000Y-72700000D03*
D18*
X107000000Y-79000000D03*
%TD*%
D22*
%TO.C,H2*%
X136000000Y-53000000D03*
%TD*%
D29*
%TO.C,C14*%
X132850000Y-85300000D03*
X130950000Y-85300000D03*
%TD*%
D32*
%TO.C,D10*%
X103500000Y-83525000D03*
X103500000Y-81650000D03*
%TD*%
%TO.C,D13*%
X123600000Y-83537500D03*
X123600000Y-81662500D03*
%TD*%
D21*
%TO.C,R15*%
X101600000Y-81675000D03*
X101600000Y-83500000D03*
%TD*%
D32*
%TO.C,D16*%
X136400000Y-83537500D03*
X136400000Y-81662500D03*
%TD*%
D43*
%TO.C,C31*%
X121850001Y-101100000D03*
X123749999Y-101100000D03*
%TD*%
D35*
%TO.C,C20*%
X130475001Y-101200000D03*
X127524999Y-101200000D03*
%TD*%
D44*
%TO.C,R8*%
X91100000Y-113675000D03*
X91100000Y-115325000D03*
%TD*%
D16*
%TO.C,C22*%
X108500000Y-98225000D03*
X108500000Y-96675000D03*
%TD*%
D34*
%TO.C,R4*%
X129825000Y-107900000D03*
X128175000Y-107900000D03*
%TD*%
D21*
%TO.C,R14*%
X96500000Y-81687500D03*
X96500000Y-83512500D03*
%TD*%
D23*
%TO.C,C8*%
X97325000Y-95550000D03*
X95775000Y-95550000D03*
%TD*%
D32*
%TO.C,D15*%
X132600000Y-83537500D03*
X132600000Y-81662500D03*
%TD*%
D21*
%TO.C,R20*%
X134500000Y-81687500D03*
X134500000Y-83512500D03*
%TD*%
D45*
%TO.C,U4*%
X96825000Y-99350000D03*
X96825000Y-99850000D03*
X96825000Y-100350000D03*
X96825000Y-100850000D03*
X96825000Y-101350000D03*
X96825000Y-101850000D03*
X96825000Y-102350000D03*
X96825000Y-102850000D03*
X96825000Y-103350000D03*
X96825000Y-103850000D03*
X96825000Y-104350000D03*
X96825000Y-104850000D03*
X96825000Y-105350000D03*
X96825000Y-105850000D03*
X96825000Y-106350000D03*
X96825000Y-106850000D03*
D46*
X98750000Y-108775000D03*
X99250000Y-108775000D03*
X99750000Y-108775000D03*
X100250000Y-108775000D03*
X100750000Y-108775000D03*
X101250000Y-108775000D03*
X101750000Y-108775000D03*
X102250000Y-108775000D03*
X102750000Y-108775000D03*
X103250000Y-108775000D03*
X103750000Y-108775000D03*
X104250000Y-108775000D03*
X104750000Y-108775000D03*
X105250000Y-108775000D03*
X105750000Y-108775000D03*
X106250000Y-108775000D03*
D45*
X108175000Y-106850000D03*
X108175000Y-106350000D03*
X108175000Y-105850000D03*
X108175000Y-105350000D03*
X108175000Y-104850000D03*
X108175000Y-104350000D03*
X108175000Y-103850000D03*
X108175000Y-103350000D03*
X108175000Y-102850000D03*
X108175000Y-102350000D03*
X108175000Y-101850000D03*
X108175000Y-101350000D03*
X108175000Y-100850000D03*
X108175000Y-100350000D03*
X108175000Y-99850000D03*
X108175000Y-99350000D03*
D46*
X106250000Y-97425000D03*
X105750000Y-97425000D03*
X105250000Y-97425000D03*
X104750000Y-97425000D03*
X104250000Y-97425000D03*
X103750000Y-97425000D03*
X103250000Y-97425000D03*
X102750000Y-97425000D03*
X102250000Y-97425000D03*
X101750000Y-97425000D03*
X101250000Y-97425000D03*
X100750000Y-97425000D03*
X100250000Y-97425000D03*
X99750000Y-97425000D03*
X99250000Y-97425000D03*
X98750000Y-97425000D03*
%TD*%
D29*
%TO.C,C17*%
X123850000Y-85300000D03*
X121950000Y-85300000D03*
%TD*%
D42*
%TO.C,D12*%
X125462500Y-85300000D03*
X127337500Y-85300000D03*
%TD*%
D18*
%TO.C,Q3*%
X102440000Y-67900000D03*
D19*
X104720000Y-61600000D03*
D18*
X107000000Y-67900000D03*
%TD*%
D23*
%TO.C,C41*%
X125600000Y-96800000D03*
X124050000Y-96800000D03*
%TD*%
D24*
%TO.C,C3*%
X116867676Y-82900000D03*
D25*
X111867676Y-82900000D03*
%TD*%
D32*
%TO.C,D6*%
X94600000Y-83537500D03*
X94600000Y-81662500D03*
%TD*%
D15*
%TO.C,D3*%
X127100000Y-90512500D03*
X127100000Y-92087500D03*
%TD*%
D47*
%TO.C,J1*%
X114500000Y-54700000D03*
D48*
X114500000Y-61900000D03*
%TD*%
D29*
%TO.C,C9*%
X103850000Y-85300000D03*
X101950000Y-85300000D03*
%TD*%
D49*
%TO.C,J3*%
X112000000Y-102525000D03*
D50*
X112000000Y-99985000D03*
X112000000Y-97445001D03*
%TD*%
D23*
%TO.C,C42*%
X119825000Y-97500000D03*
X118275000Y-97500000D03*
%TD*%
D37*
%TO.C,C30*%
X136750000Y-87050000D03*
X136750000Y-88950000D03*
%TD*%
D21*
%TO.C,R17*%
X121700000Y-81687500D03*
X121700000Y-83512500D03*
%TD*%
D44*
%TO.C,R12*%
X136500000Y-101650000D03*
X136500000Y-103300000D03*
%TD*%
D51*
%TO.C,R9*%
X134475000Y-94500000D03*
X136125000Y-94500000D03*
%TD*%
D21*
%TO.C,R13*%
X92700000Y-81687500D03*
X92700000Y-83512500D03*
%TD*%
D18*
%TO.C,Q5*%
X122000000Y-67900000D03*
D19*
X124280000Y-61600000D03*
D18*
X126560000Y-67900000D03*
%TD*%
D52*
%TO.C,L2*%
X119300000Y-99025001D03*
X119300000Y-101374999D03*
%TD*%
D17*
%TO.C,C26*%
X110700000Y-105725000D03*
X110700000Y-107275000D03*
%TD*%
D37*
%TO.C,C29*%
X125600000Y-99350001D03*
X125600000Y-101249999D03*
%TD*%
D53*
%TO.C,C27*%
X134900001Y-97124999D03*
X134900001Y-100075001D03*
%TD*%
D54*
%TO.C,U8*%
X133550000Y-101760000D03*
X133050000Y-101760000D03*
X132550000Y-101760000D03*
X132050000Y-101760000D03*
X132050000Y-103240000D03*
X132550000Y-103240000D03*
X133050000Y-103240000D03*
X133550000Y-103240000D03*
%TD*%
D55*
%TO.C,TP1*%
X98500000Y-93800000D03*
%TD*%
D36*
%TO.C,R11*%
X136500000Y-106325000D03*
X136500000Y-104675000D03*
%TD*%
D16*
%TO.C,C25*%
X133600000Y-106275000D03*
X133600000Y-104725000D03*
%TD*%
D53*
%TO.C,C18*%
X132600000Y-97124999D03*
X132600000Y-100075001D03*
%TD*%
D36*
%TO.C,R3*%
X108700000Y-92125000D03*
X108700000Y-90475000D03*
%TD*%
D32*
%TO.C,D7*%
X98400000Y-83537500D03*
X98400000Y-81662500D03*
%TD*%
D15*
%TO.C,D21*%
X136000000Y-90512500D03*
X136000000Y-92087500D03*
%TD*%
D38*
%TO.C,J7*%
X99675000Y-122000000D03*
D39*
X99675000Y-119500000D03*
X99675000Y-117000000D03*
X99675000Y-114500000D03*
%TD*%
D18*
%TO.C,Q8*%
X131000000Y-79000000D03*
D19*
X133280000Y-72700000D03*
D18*
X135560000Y-79000000D03*
%TD*%
D22*
%TO.C,H1*%
X93000000Y-53000000D03*
%TD*%
D56*
%TO.C,L1*%
X130500000Y-104700000D03*
X127500000Y-104700000D03*
%TD*%
D32*
%TO.C,D11*%
X107300000Y-83525000D03*
X107300000Y-81650000D03*
%TD*%
D36*
%TO.C,R1*%
X99700000Y-92125000D03*
X99700000Y-90475000D03*
%TD*%
D18*
%TO.C,Q1*%
X93440000Y-67900000D03*
D19*
X95720000Y-61600000D03*
D18*
X98000000Y-67900000D03*
%TD*%
D42*
%TO.C,D17*%
X134362500Y-85300000D03*
X136237500Y-85300000D03*
%TD*%
D49*
%TO.C,J2*%
X130590001Y-111840000D03*
D50*
X130590001Y-114380000D03*
X128050001Y-111840000D03*
X128050001Y-114380000D03*
X125510002Y-111840000D03*
X125510001Y-114380000D03*
X122970001Y-111840000D03*
X122970001Y-114380000D03*
X120430001Y-111840000D03*
X120430001Y-114380000D03*
X117890001Y-111840000D03*
X117890001Y-114380000D03*
X115350001Y-111840000D03*
X115350001Y-114380000D03*
X112810000Y-111840000D03*
X112810001Y-114380000D03*
%TD*%
D42*
%TO.C,D9*%
X105462500Y-85300000D03*
X107337500Y-85300000D03*
%TD*%
D34*
%TO.C,R5*%
X94925000Y-104400000D03*
X93275000Y-104400000D03*
%TD*%
D49*
%TO.C,JP2*%
X93800000Y-116340000D03*
D50*
X93800000Y-113800000D03*
X93800000Y-111260001D03*
%TD*%
D51*
%TO.C,R2*%
X98775000Y-95550000D03*
X100425000Y-95550000D03*
%TD*%
D21*
%TO.C,R16*%
X105400000Y-81675000D03*
X105400000Y-83500000D03*
%TD*%
D17*
%TO.C,C11*%
X107400000Y-109125000D03*
X107400000Y-110675000D03*
%TD*%
D44*
%TO.C,R7*%
X134900000Y-101650000D03*
X134900000Y-103300000D03*
%TD*%
D57*
%TO.C,U10*%
X114737500Y-107449999D03*
X114737500Y-106500000D03*
X114737500Y-105550001D03*
X112462500Y-105550001D03*
X112462500Y-107449999D03*
%TD*%
D23*
%TO.C,C2*%
X104800000Y-110700000D03*
X103250000Y-110700000D03*
%TD*%
D55*
%TO.C,TP2*%
X91200000Y-107600000D03*
%TD*%
D37*
%TO.C,C15*%
X98750000Y-87050000D03*
X98750000Y-88950000D03*
%TD*%
D15*
%TO.C,D1*%
X98100000Y-90512500D03*
X98100000Y-92087500D03*
%TD*%
D37*
%TO.C,C19*%
X127750000Y-87050000D03*
X127750000Y-88950000D03*
%TD*%
D18*
%TO.C,Q6*%
X122000000Y-79000000D03*
D19*
X124280000Y-72700000D03*
D18*
X126560000Y-79000000D03*
%TD*%
G36*
X98543039Y-66319685D02*
G01*
X98588794Y-66372489D01*
X98600000Y-66424000D01*
X98600000Y-69826000D01*
X98580315Y-69893039D01*
X98527511Y-69938794D01*
X98476000Y-69950000D01*
X94524000Y-69950000D01*
X94456961Y-69930315D01*
X94411206Y-69877511D01*
X94400000Y-69826000D01*
X94400000Y-66424000D01*
X94419685Y-66356961D01*
X94472489Y-66311206D01*
X94524000Y-66300000D01*
X98476000Y-66300000D01*
X98543039Y-66319685D01*
G37*
G36*
X107543039Y-66319685D02*
G01*
X107588794Y-66372489D01*
X107600000Y-66424000D01*
X107600000Y-69826000D01*
X107580315Y-69893039D01*
X107527511Y-69938794D01*
X107476000Y-69950000D01*
X103524000Y-69950000D01*
X103456961Y-69930315D01*
X103411206Y-69877511D01*
X103400000Y-69826000D01*
X103400000Y-66424000D01*
X103419685Y-66356961D01*
X103472489Y-66311206D01*
X103524000Y-66300000D01*
X107476000Y-66300000D01*
X107543039Y-66319685D01*
G37*
G36*
X136043039Y-66319685D02*
G01*
X136088794Y-66372489D01*
X136100000Y-66424000D01*
X136100000Y-69826000D01*
X136080315Y-69893039D01*
X136027511Y-69938794D01*
X135976000Y-69950000D01*
X132024000Y-69950000D01*
X131956961Y-69930315D01*
X131911206Y-69877511D01*
X131900000Y-69826000D01*
X131900000Y-66424000D01*
X131919685Y-66356961D01*
X131972489Y-66311206D01*
X132024000Y-66300000D01*
X135976000Y-66300000D01*
X136043039Y-66319685D01*
G37*
G36*
X127043039Y-66319685D02*
G01*
X127088794Y-66372489D01*
X127100000Y-66424000D01*
X127100000Y-69826000D01*
X127080315Y-69893039D01*
X127027511Y-69938794D01*
X126976000Y-69950000D01*
X123024000Y-69950000D01*
X122956961Y-69930315D01*
X122911206Y-69877511D01*
X122900000Y-69826000D01*
X122900000Y-66424000D01*
X122919685Y-66356961D01*
X122972489Y-66311206D01*
X123024000Y-66300000D01*
X126976000Y-66300000D01*
X127043039Y-66319685D01*
G37*
G36*
X98543039Y-76619685D02*
G01*
X98588794Y-76672489D01*
X98600000Y-76724000D01*
X98600000Y-80126000D01*
X98580315Y-80193039D01*
X98527511Y-80238794D01*
X98476000Y-80250000D01*
X94424000Y-80250000D01*
X94356961Y-80230315D01*
X94311206Y-80177511D01*
X94300000Y-80126000D01*
X94300000Y-76724000D01*
X94319685Y-76656961D01*
X94372489Y-76611206D01*
X94424000Y-76600000D01*
X98476000Y-76600000D01*
X98543039Y-76619685D01*
G37*
G36*
X109243039Y-50217208D02*
G01*
X109288794Y-50270012D01*
X109300000Y-50321523D01*
X109300000Y-56073523D01*
X109280315Y-56140562D01*
X109227511Y-56186317D01*
X109176000Y-56197523D01*
X103824000Y-56197523D01*
X103756961Y-56177838D01*
X103711206Y-56125034D01*
X103700000Y-56073523D01*
X103700000Y-50321523D01*
X103719685Y-50254484D01*
X103772489Y-50208729D01*
X103824000Y-50197523D01*
X109176000Y-50197523D01*
X109243039Y-50217208D01*
G37*
G36*
X131843039Y-50219685D02*
G01*
X131888794Y-50272489D01*
X131900000Y-50324000D01*
X131900000Y-56076000D01*
X131880315Y-56143039D01*
X131827511Y-56188794D01*
X131776000Y-56200000D01*
X126424000Y-56200000D01*
X126356961Y-56180315D01*
X126311206Y-56127511D01*
X126300000Y-56076000D01*
X126300000Y-50324000D01*
X126319685Y-50256961D01*
X126372489Y-50211206D01*
X126424000Y-50200000D01*
X131776000Y-50200000D01*
X131843039Y-50219685D01*
G37*
G36*
X125243039Y-50219685D02*
G01*
X125288794Y-50272489D01*
X125300000Y-50324000D01*
X125300000Y-56076000D01*
X125280315Y-56143039D01*
X125227511Y-56188794D01*
X125176000Y-56200000D01*
X119824000Y-56200000D01*
X119756961Y-56180315D01*
X119711206Y-56127511D01*
X119700000Y-56076000D01*
X119700000Y-50324000D01*
X119719685Y-50256961D01*
X119772489Y-50211206D01*
X119824000Y-50200000D01*
X125176000Y-50200000D01*
X125243039Y-50219685D01*
G37*
G36*
X136043039Y-76619685D02*
G01*
X136088794Y-76672489D01*
X136100000Y-76724000D01*
X136100000Y-80126000D01*
X136080315Y-80193039D01*
X136027511Y-80238794D01*
X135976000Y-80250000D01*
X131924000Y-80250000D01*
X131856961Y-80230315D01*
X131811206Y-80177511D01*
X131800000Y-80126000D01*
X131800000Y-76724000D01*
X131819685Y-76656961D01*
X131872489Y-76611206D01*
X131924000Y-76600000D01*
X135976000Y-76600000D01*
X136043039Y-76619685D01*
G37*
G36*
X102643039Y-50219685D02*
G01*
X102688794Y-50272489D01*
X102700000Y-50324000D01*
X102700000Y-56076000D01*
X102680315Y-56143039D01*
X102627511Y-56188794D01*
X102576000Y-56200000D01*
X97224000Y-56200000D01*
X97156961Y-56180315D01*
X97111206Y-56127511D01*
X97100000Y-56076000D01*
X97100000Y-50324000D01*
X97119685Y-50256961D01*
X97172489Y-50211206D01*
X97224000Y-50200000D01*
X102576000Y-50200000D01*
X102643039Y-50219685D01*
G37*
G36*
X107543039Y-76619685D02*
G01*
X107588794Y-76672489D01*
X107600000Y-76724000D01*
X107600000Y-80126000D01*
X107580315Y-80193039D01*
X107527511Y-80238794D01*
X107476000Y-80250000D01*
X103424000Y-80250000D01*
X103356961Y-80230315D01*
X103311206Y-80177511D01*
X103300000Y-80126000D01*
X103300000Y-76724000D01*
X103319685Y-76656961D01*
X103372489Y-76611206D01*
X103424000Y-76600000D01*
X107476000Y-76600000D01*
X107543039Y-76619685D01*
G37*
G36*
X127143039Y-76619685D02*
G01*
X127188794Y-76672489D01*
X127200000Y-76724000D01*
X127200000Y-80126000D01*
X127180315Y-80193039D01*
X127127511Y-80238794D01*
X127076000Y-80250000D01*
X123024000Y-80250000D01*
X122956961Y-80230315D01*
X122911206Y-80177511D01*
X122900000Y-80126000D01*
X122900000Y-76724000D01*
X122919685Y-76656961D01*
X122972489Y-76611206D01*
X123024000Y-76600000D01*
X127076000Y-76600000D01*
X127143039Y-76619685D01*
G37*
%LPD*%
M02*
